M48
; DRILL file {KiCad (6.0.1)} date Sun May  8 00:04:24 2022
; FORMAT={-:-/ absolute / inch / decimal}
; #@! TF.CreationDate,2022-05-08T00:04:24+10:00
; #@! TF.GenerationSoftware,Kicad,Pcbnew,(6.0.1)
; #@! TF.FileFunction,Plated,1,4,PTH
FMAT,2
INCH
; #@! TA.AperFunction,Plated,PTH,ViaDrill
T1C0.0157
; #@! TA.AperFunction,Plated,PTH,ComponentDrill
T2C0.0276
; #@! TA.AperFunction,Plated,PTH,ComponentDrill
T3C0.0394
; #@! TA.AperFunction,Plated,PTH,ComponentDrill
T4C0.0551
%
G90
G05
T1
X2.6438Y-3.1627
X2.6438Y-3.2415
X2.6438Y-3.3202
X2.6438Y-3.399
X2.6438Y-3.4777
X2.6438Y-3.5564
X2.6438Y-3.6352
X2.6438Y-3.7139
X2.6438Y-3.7927
X2.6438Y-3.8714
X2.6438Y-3.9501
X2.6438Y-4.0289
X2.6438Y-4.1076
X2.6438Y-4.5801
X2.6438Y-4.7769
X2.6438Y-4.9344
X2.6438Y-5.0525
X2.6438Y-5.21
X2.6438Y-5.3281
X2.6438Y-5.4856
X2.6438Y-5.6037
X2.6438Y-5.7218
X2.6438Y-5.8399
X2.6438Y-5.958
X2.6832Y-3.084
X2.6832Y-4.5407
X2.693Y-6.0761
X2.7422Y-4.2454
X2.7422Y-4.2848
X2.7422Y-4.3242
X2.7619Y-3.0053
X2.7619Y-4.1864
X2.7619Y-4.3832
X2.7717Y-3.3891
X2.7816Y-4.2454
X2.7816Y-4.2848
X2.7816Y-4.3242
X2.7855Y-3.4364
X2.8013Y-4.5407
X2.821Y-4.2848
X2.821Y-4.3242
X2.821Y-4.3832
X2.821Y-6.0761
X2.8229Y-3.3517
X2.8406Y-2.9265
X2.8544Y-5.3301
X2.8544Y-5.9127
X2.8584Y-3.4757
X2.8741Y-3.2966
X2.88Y-4.5407
X2.88Y-4.5801
X2.9156Y-4.6686
X2.9156Y-4.7277
X2.9194Y-2.8478
X2.9194Y-4.2848
X2.9194Y-4.3242
X2.9194Y-4.3635
X2.9489Y-4.5407
X2.9588Y-4.2848
X2.9588Y-4.3242
X2.9588Y-4.3635
X2.9647Y-3.4718
X2.9784Y-4.5801
X2.9784Y-6.0761
X2.9863Y-3.3124
X2.9981Y-2.769
X2.9981Y-4.2848
X2.9981Y-4.3242
X2.9981Y-4.3635
X2.9981Y-4.5407
X3.0119Y-2.9757
X3.0139Y-3.1116
X3.0375Y-4.2061
X3.0414Y-3.4236
X3.0572Y-4.7375
X3.067Y-5.4167
X3.067Y-5.4659
X3.067Y-5.5151
X3.0749Y-5.71
X3.0769Y-2.6903
X3.0769Y-4.2848
X3.0769Y-4.8064
X3.0769Y-4.8557
X3.0769Y-4.9639
X3.0769Y-5.0131
X3.0769Y-5.0624
X3.0769Y-5.958
X3.0906Y-2.9541
X3.1162Y-3.2986
X3.1359Y-4.708
X3.1359Y-4.7474
X3.1556Y-2.6116
X3.1556Y-5.958
X3.1556Y-6.0761
X3.1576Y-5.712
X3.1694Y-3.4246
X3.1753Y-4.2848
X3.1753Y-4.708
X3.1753Y-4.7474
X3.1832Y-2.8566
X3.2048Y-5.712
X3.2048Y-5.958
X3.2147Y-4.6194
X3.2147Y-4.708
X3.2147Y-4.7474
X3.2147Y-5.6431
X3.2225Y-3.6903
X3.2343Y-2.5328
X3.2343Y-4.3832
X3.2422Y-2.8566
X3.254Y-5.3872
X3.254Y-5.4462
X3.2737Y-4.5407
X3.2737Y-4.5998
X3.2737Y-4.6588
X3.2737Y-5.0919
X3.2737Y-5.1312
X3.2737Y-5.1706
X3.2737Y-5.6431
X3.2777Y-2.7651
X3.2934Y-5.3872
X3.2934Y-5.4462
X3.2993Y-3.2198
X3.3013Y-2.8566
X3.3131Y-2.4541
X3.3131Y-3.769
X3.3131Y-4.3832
X3.318Y-3.5436
X3.3249Y-4.0564
X3.3328Y-6.0761
X3.3426Y-3.3891
X3.3584Y-2.9757
X3.3761Y-3.6214
X3.381Y-4.0653
X3.3918Y-2.3753
X3.3918Y-3.2749
X3.3918Y-4.3832
X3.4312Y-4.0604
X3.443Y-2.962
X3.4558Y-3.7307
X3.4706Y-2.2966
X3.4706Y-4.3832
X3.4824Y-2.5171
X3.4903Y-6.0761
X3.506Y-3.1549
X3.508Y-3.3576
X3.5099Y-4.7572
X3.5099Y-4.7966
X3.5099Y-4.9147
X3.5119Y-2.5486
X3.5296Y-4.6391
X3.5306Y-3.7917
X3.5365Y-3.6519
X3.5385Y-3.5328
X3.5385Y-3.5811
X3.5434Y-2.5781
X3.5493Y-2.2179
X3.5493Y-4.3832
X3.5493Y-4.7572
X3.5493Y-4.7966
X3.5493Y-4.9147
X3.569Y-5.2001
X3.569Y-5.2494
X3.569Y-5.2986
X3.5779Y-3.6155
X3.5788Y-3.0604
X3.5798Y-3.4571
X3.5808Y-2.5466
X3.5808Y-2.6923
X3.5847Y-2.9088
X3.5867Y-3.5142
X3.5887Y-3.5535
X3.5985Y-5.7316
X3.5985Y-5.958
X3.6084Y-2.2572
X3.6103Y-3.2809
X3.628Y-2.1391
X3.628Y-4.2651
X3.628Y-4.3832
X3.633Y-3.7917
X3.634Y-3.2198
X3.6359Y-2.5249
X3.6379Y-6.0761
X3.6477Y-4.5604
X3.6477Y-4.6194
X3.6477Y-4.6785
X3.6477Y-5.958
X3.6507Y-4.7385
X3.6517Y-5.7297
X3.6635Y-5.8379
X3.6694Y-2.8163
X3.6733Y-2.6923
X3.6733Y-3.082
X3.6753Y-3.2454
X3.6792Y-4.1312
X3.6792Y-4.1746
X3.6871Y-4.2533
X3.6901Y-4.774
X3.695Y-3.3852
X3.6999Y-3.7287
X3.7068Y-2.0604
X3.7068Y-2.4561
X3.7068Y-4.3832
X3.7107Y-2.1982
X3.7107Y-3.8616
X3.7265Y-5.958
X3.7284Y-3.4836
X3.7437Y-3.3758
X3.7442Y-3.0072
X3.7452Y-4.9088
X3.7462Y-4.3045
X3.7462Y-4.5604
X3.7462Y-4.6194
X3.7481Y-4.835
X3.7521Y-3.082
X3.7521Y-3.1332
X3.756Y-2.9049
X3.758Y-2.6923
X3.7658Y-5.7218
X3.7658Y-5.9186
X3.7678Y-4.0328
X3.7683Y-3.6504
X3.7698Y-2.4305
X3.7737Y-3.4236
X3.7816Y-4.772
X3.7855Y-1.9816
X3.7855Y-4.1746
X3.7855Y-5.9974
X3.7855Y-6.0761
X3.7944Y-3.3901
X3.7973Y-3.8222
X3.82Y-2.9811
X3.821Y-3.1627
X3.8249Y-4.7572
X3.8249Y-4.895
X3.8249Y-4.9935
X3.8249Y-5.0919
X3.8249Y-5.1903
X3.8249Y-5.2887
X3.8249Y-5.3872
X3.8249Y-5.4856
X3.8249Y-5.5643
X3.8249Y-5.6431
X3.8288Y-2.3163
X3.8288Y-3.9757
X3.8288Y-4.0781
X3.8426Y-3.5727
X3.8446Y-5.9974
X3.8456Y-5.96
X3.8623Y-3.2316
X3.8623Y-3.6116
X3.8643Y-1.9816
X3.8712Y-4.1677
X3.8741Y-3.521
X3.878Y-2.9969
X3.8795Y-3.681
X3.88Y-3.7868
X3.882Y-3.053
X3.8849Y-3.5747
X3.8879Y-2.9265
X3.9036Y-2.6982
X3.9036Y-2.7508
X3.9036Y-2.8005
X3.9036Y-2.8557
X3.9036Y-4.1076
X3.9194Y-3.9423
X3.9204Y-4.1696
X3.9263Y-3.1549
X3.9332Y-3.3301
X3.9332Y-3.3793
X3.9332Y-3.4285
X3.9381Y-2.6686
X3.943Y-1.9816
X3.943Y-3.8517
X3.943Y-4.0683
X3.943Y-6.0761
X3.9529Y-3.055
X3.9597Y-3.2818
X3.9627Y-4.895
X3.9627Y-4.9935
X3.9627Y-5.0919
X3.9627Y-5.1903
X3.9627Y-5.2887
X3.9627Y-5.3872
X3.9627Y-5.4856
X3.9627Y-5.5643
X3.9627Y-5.6431
X3.9627Y-5.7218
X3.9627Y-6.0171
X3.9706Y-4.7484
X3.9804Y-3.8931
X3.9824Y-2.6667
X3.9922Y-3.3301
X3.9922Y-3.3793
X3.9922Y-3.4285
X4.006Y-3.1561
X4.0119Y-4.895
X4.0119Y-5.0919
X4.0119Y-5.2887
X4.0119Y-5.4856
X4.0119Y-5.6431
X4.0119Y-5.7809
X4.0119Y-5.7809
X4.0158Y-3.7927
X4.0168Y-3.2544
X4.0198Y-3.6608
X4.0217Y-1.9816
X4.0375Y-2.6667
X4.0375Y-3.9423
X4.0395Y-2.3498
X4.0513Y-3.3301
X4.0513Y-3.3793
X4.0611Y-4.3832
X4.0906Y-2.6667
X4.1005Y-1.9816
X4.1005Y-2.9068
X4.1044Y-4.0879
X4.1084Y-3.9383
X4.1123Y-3.7671
X4.1123Y-3.834
X4.1261Y-3.3744
X4.129Y-3.052
X4.13Y-3.4285
X4.1379Y-3.6214
X4.1399Y-2.6667
X4.1399Y-4.3832
X4.1418Y-2.3468
X4.1556Y-3.8005
X4.1595Y-2.9068
X4.1615Y-3.9383
X4.1625Y-3.1327
X4.1714Y-2.7218
X4.1714Y-4.086
X4.1792Y-1.9816
X4.1812Y-2.9959
X4.1891Y-2.8183
X4.1891Y-2.8694
X4.1901Y-2.7572
X4.191Y-3.7198
X4.2009Y-3.1475
X4.2252Y-4.3548
X4.2255Y-3.8655
X4.2334Y-3.7464
X4.2383Y-2.0358
X4.2383Y-3.5171
X4.2383Y-4.9344
X4.2426Y-4.6356
X4.2521Y-3.5742
X4.258Y-1.9816
X4.258Y-5.0525
X4.258Y-5.1706
X4.258Y-5.2887
X4.258Y-5.5643
X4.258Y-5.7021
X4.258Y-5.8202
X4.258Y-5.8793
X4.258Y-5.9383
X4.2599Y-3.2887
X4.2678Y-3.0643
X4.2678Y-3.832
X4.2708Y-3.2439
X4.2717Y-3.1475
X4.2757Y-3.708
X4.2767Y-3.617
X4.2816Y-3.9403
X4.2826Y-4.0397
X4.2836Y-3.4519
X4.2973Y-4.9344
X4.317Y-5.8202
X4.317Y-5.8793
X4.317Y-5.9383
X4.3229Y-3.9009
X4.3229Y-4.2297
X4.3328Y-3.3891
X4.3347Y-2.0358
X4.3367Y-1.9816
X4.3367Y-4.0092
X4.3409Y-4.6658
X4.3443Y-4.28
X4.3466Y-3.4482
X4.3503Y-3.9441
X4.3564Y-4.9344
X4.3743Y-3.9752
X4.3761Y-5.8202
X4.3761Y-5.8793
X4.3761Y-5.9383
X4.38Y-3.5131
X4.3918Y-3.8379
X4.3958Y-3.3793
X4.3958Y-3.4383
X4.3967Y-3.3291
X4.4017Y-2.7907
X4.4036Y-2.8458
X4.4076Y-2.9009
X4.4115Y-3.6962
X4.4115Y-3.8793
X4.4155Y-1.9816
X4.4155Y-4.9344
X4.4233Y-5.3045
X4.4292Y-2.0355
X4.4312Y-3.2809
X4.4351Y-3.6312
X4.4371Y-2.7513
X4.4509Y-3.834
X4.4666Y-2.8104
X4.4784Y-2.9836
X4.4843Y-4.2277
X4.4883Y-3.8586
X4.4899Y-4.6875
X4.4903Y-3.9127
X4.4903Y-3.9649
X4.4942Y-1.9816
X4.4942Y-2.8616
X4.4981Y-2.6391
X4.5139Y-5.8005
X4.5139Y-5.9974
X4.5198Y-5.4797
X4.5217Y-4.2061
X4.5237Y-2.0348
X4.5336Y-4.9167
X4.5415Y-2.9875
X4.5559Y-4.2279
X4.5651Y-4.082
X4.5729Y-1.9816
X4.5974Y-4.6403
X4.6143Y-2.0363
X4.6162Y-2.3473
X4.6182Y-4.2848
X4.6359Y-5.3576
X4.6517Y-1.9816
X4.6595Y-3.2769
X4.6635Y-2.9521
X4.6674Y-3.9246
X4.6714Y-5.8005
X4.6714Y-5.9974
X4.6753Y-5.1293
X4.679Y-3.6956
X4.682Y-3.7665
X4.6832Y-2.8124
X4.6867Y-2.5878
X4.6891Y-5.4777
X4.6891Y-5.5348
X4.6897Y-2.6587
X4.691Y-4.2061
X4.691Y-4.5801
X4.693Y-5.4206
X4.7029Y-3.332
X4.7029Y-3.3911
X4.7029Y-3.4501
X4.7029Y-3.5289
X4.7147Y-2.9088
X4.7155Y-3.9072
X4.7304Y-1.9816
X4.7363Y-2.5387
X4.7389Y-2.7994
X4.7698Y-4.1076
X4.7895Y-4.4816
X4.7954Y-2.5387
X4.7973Y-5.1746
X4.806Y-4.0263
X4.8092Y-2.021
X4.8092Y-2.0998
X4.8092Y-2.1785
X4.8092Y-2.2572
X4.8092Y-2.336
X4.8092Y-2.4147
X4.8092Y-2.4935
X4.8092Y-3.0053
X4.8092Y-3.084
X4.8092Y-3.1627
X4.8092Y-3.2415
X4.8092Y-3.3202
X4.8092Y-3.399
X4.8092Y-3.4777
X4.8092Y-3.5564
X4.8092Y-3.6352
X4.8137Y-2.9185
X4.817Y-5.3045
X4.8288Y-5.8005
X4.8288Y-5.9974
X4.8584Y-5.4777
X4.8584Y-5.5348
X4.8603Y-5.4206
X4.8879Y-4.3832
X4.8918Y-4.6116
X4.9292Y-5.3517
X4.9666Y-4.3045
X4.9863Y-5.8005
X4.9863Y-6.0039
X5.004Y-4.4639
X5.0198Y-5.0564
X5.0237Y-5.4206
X5.0237Y-5.5348
X5.0257Y-3.5683
X5.0257Y-4.2257
X5.0257Y-5.4777
X5.0336Y-5.2179
X5.04Y-4.7991
X5.0454Y-2.395
X5.0454Y-2.5525
X5.0454Y-4.0289
X5.0651Y-1.9226
X5.0651Y-1.9816
X5.0651Y-2.1982
X5.0651Y-2.9068
X5.0651Y-3.0446
X5.0651Y-3.1037
X5.0651Y-3.1824
X5.0651Y-3.3429
X5.069Y-4.21
X5.0787Y-3.999
X5.0975Y-3.4049
X5.1005Y-2.5505
X5.1035Y-4.7041
X5.1044Y-4.836
X5.1159Y-2.8911
X5.117Y-3.9106
X5.1241Y-3.0446
X5.132Y-5.3281
X5.1357Y-3.6976
X5.1359Y-3.6293
X5.1389Y-2.6647
X5.1458Y-2.8019
X5.1576Y-3.7513
X5.1605Y-4.5473
X5.1635Y-2.336
X5.1635Y-4.6588
X5.1635Y-4.7572
X5.1635Y-5.8005
X5.1635Y-5.9974
X5.1871Y-5.5348
X5.1891Y-5.4777
X5.1892Y-4.5743
X5.191Y-5.4206
X5.2029Y-2.4344
X5.2029Y-3.0446
X5.2029Y-3.1037
X5.2029Y-3.1627
X5.2284Y-4.2179
X5.2284Y-4.5427
X5.2284Y-4.6588
X5.2304Y-4.4462
X5.2324Y-4.3419
X5.2343Y-5.2435
X5.2442Y-5.084
X5.2521Y-3.4659
X5.2619Y-1.9226
X5.2619Y-1.9816
X5.2636Y-3.4064
X5.2658Y-4.7671
X5.2698Y-4.8734
X5.2816Y-2.1982
X5.2816Y-3.6155
X5.2836Y-3.4403
X5.2855Y-5.1194
X5.2895Y-4.1568
X5.321Y-3.1037
X5.321Y-3.1627
X5.321Y-5.8005
X5.321Y-5.9974
X5.3269Y-3.9797
X5.3308Y-4.1135
X5.3357Y-3.8133
X5.3367Y-2.5397
X5.3387Y-5.1903
X5.3406Y-3.0446
X5.3416Y-2.6755
X5.3446Y-3.8517
X5.3456Y-2.7739
X5.3466Y-2.834
X5.3485Y-2.8931
X5.3505Y-5.5348
X5.3525Y-5.4777
X5.3544Y-3.9255
X5.3544Y-5.4206
X5.3603Y-4.0683
X5.3997Y-2.4344
X5.416Y-3.3417
X5.441Y-3.4265
X5.443Y-5.3183
X5.4499Y-3.5072
X5.4607Y-3.6411
X5.4705Y-4.4168
X5.4784Y-5.8005
X5.4784Y-5.9974
X5.4794Y-1.7119
X5.4887Y-4.5254
X5.4979Y-3.6283
X5.4981Y-3.0446
X5.5006Y-1.8241
X5.5103Y-4.3247
X5.5139Y-3.1135
X5.5139Y-3.1746
X5.5139Y-3.2356
X5.5139Y-3.2966
X5.5198Y-5.4206
X5.5198Y-5.4777
X5.5198Y-5.5348
X5.5222Y-1.6233
X5.5375Y-2.7494
X5.5375Y-2.9068
X5.5477Y-4.5727
X5.569Y-5.3202
X5.5714Y-4.3247
X5.5808Y-4.0249
X5.5823Y-4.9565
X5.5833Y-1.6233
X5.5887Y-2.6273
X5.5942Y-2.2551
X5.5966Y-3.7336
X5.6025Y-4.7149
X5.6142Y-4.9956
X5.6152Y-2.0113
X5.6153Y-3.9964
X5.6162Y-3.0446
X5.623Y-4.9572
X5.6324Y-4.3266
X5.6349Y-2.2559
X5.6359Y-4.6588
X5.6379Y-3.9601
X5.6443Y-1.6252
X5.6486Y-5.0162
X5.6556Y-1.962
X5.6556Y-5.8005
X5.6556Y-5.9974
X5.6625Y-2.2839
X5.6627Y-2.3233
X5.6714Y-5.3222
X5.6753Y-2.0013
X5.6753Y-3.1037
X5.6753Y-3.1627
X5.6797Y-3.9437
X5.6841Y-3.9046
X5.6851Y-5.5348
X5.6854Y-5.03
X5.6871Y-5.4206
X5.6871Y-5.4777
X5.6934Y-4.3232
X5.694Y-4.1728
X5.695Y-1.962
X5.695Y-4.6588
X5.7016Y-2.348
X5.7053Y-1.6218
X5.7107Y-4.833
X5.7234Y-3.9024
X5.7235Y-5.0456
X5.7255Y-2.1372
X5.7275Y-3.1972
X5.7343Y-2.3261
X5.7422Y-4.6185
X5.7521Y-1.5092
X5.754Y-3.0446
X5.7559Y-1.9172
X5.7639Y-2.2671
X5.7683Y-3.924
X5.7727Y-5.0496
X5.7801Y-4.993
X5.7934Y-4.6588
X5.7934Y-4.7375
X5.7934Y-4.7769
X5.7934Y-4.8163
X5.8077Y-3.934
X5.8082Y-4.6992
X5.8131Y-2.0998
X5.8131Y-5.8005
X5.8131Y-5.9974
X5.8151Y-1.9442
X5.821Y-5.3242
X5.8219Y-2.0259
X5.8288Y-3.9007
X5.8352Y-1.3415
X5.8485Y-5.4206
X5.8505Y-5.4777
X5.8505Y-5.5348
X5.8578Y-2.5864
X5.8648Y-3.9226
X5.8721Y-3.0446
X5.8825Y-1.2844
X5.8879Y-3.4936
X5.8918Y-2.2179
X5.8918Y-2.2769
X5.8918Y-3.6942
X5.8997Y-2.5879
X5.9036Y-3.9147
X5.9115Y-5.4068
X5.9115Y-5.5249
X5.9115Y-5.6431
X5.9115Y-5.7612
X5.9115Y-5.899
X5.9115Y-5.9974
X5.9278Y-1.2864
X5.9335Y-3.8891
X5.9343Y-1.8017
X5.943Y-3.5171
X5.9509Y-3.7336
X5.9706Y-3.0446
X5.9706Y-3.5564
X5.975Y-1.2864
X5.9754Y-1.7101
X5.9784Y-5.2159
X5.9945Y-2.5961
X6.0217Y-5.2021
X6.0242Y-1.2864
X6.0366Y-3.8802
X6.039Y-2.6002
X6.0559Y-1.3592
X6.0641Y-5.2986
X6.065Y-1.8479
X6.069Y-3.5171
X6.071Y-2.4167
X6.0759Y-3.8822
X6.0813Y-1.2844
X6.0858Y-4.2444
X6.0887Y-3.0446
X6.0923Y-1.3742
X6.0927Y-5.3419
X6.0985Y-3.6313
X6.0985Y-3.6706
X6.1074Y-2.4452
X6.1113Y-4.3458
X6.1116Y-4.7771
X6.1157Y-4.8216
X6.1212Y-3.8773
X6.1212Y-5.4275
X6.128Y-3.084
X6.1351Y-2.2877
X6.1354Y-1.5128
X6.1382Y-5.0568
X6.1429Y-2.557
X6.1497Y-5.4649
X6.1526Y-1.9069
X6.1566Y-4.4925
X6.1598Y-1.4235
X6.1605Y-3.8773
X6.1635Y-5.087
X6.1645Y-1.5915
X6.1674Y-2.5879
X6.1714Y-2.6923
X6.1723Y-2.2749
X6.1885Y-1.4504
X6.1979Y-5.3862
X6.1987Y-4.0527
X6.1989Y-4.209
X6.1997Y-4.094
X6.1999Y-5.4285
X6.2058Y-4.584
X6.2137Y-4.269
X6.2201Y-3.9683
X6.2363Y-2.7169
X6.2393Y-2.3163
X6.2462Y-3.5171
X6.2462Y-3.7927
X6.259Y-2.3616
X6.276Y-4.6586
X6.2879Y-1.9572
X6.2917Y-4.946
X6.2964Y-4.7838
X6.3036Y-2.2446
X6.309Y-4.8812
X6.3121Y-3.9442
X6.3387Y-3.8842
X6.384Y-3.9157
X6.4Y-4.3042
X6.4119Y-1.6029
X6.4339Y-4.1979
X6.4454Y-5.5154
X6.4458Y-1.4966
X6.4528Y-3.9484
X6.4531Y-3.8633
X6.4573Y-2.814
X6.4635Y-4.5483
X6.4647Y-1.247
X6.4651Y-1.1619
X6.4754Y-1.8469
X6.4921Y-3.9484
X6.4925Y-3.8633
X6.504Y-1.247
X6.5043Y-4.3692
X6.5044Y-1.1619
X6.5162Y-1.6678
X6.5198Y-4.6903
X6.5336Y-1.9816
X6.5363Y-5.7752
X6.5379Y-5.6896
X6.5482Y-3.0738
X6.5496Y-5.0523
X6.5498Y-2.9882
X6.5615Y-2.3509
X6.5757Y-5.7752
X6.5773Y-5.6896
X6.5876Y-3.0738
X6.5892Y-2.9882
X6.6064Y-4.8655
X6.6107Y-5.3638
X6.6143Y-2.2021
X6.6202Y-3.5761
X6.6226Y-2.6624
X6.6274Y-4.3397
X6.6343Y-4.4179
X6.6393Y-1.6383
X6.6463Y-1.7165
X6.6756Y-5.2314
X6.6776Y-5.2983
X6.6792Y-3.5761
X6.6875Y-2.53
X6.6895Y-2.5969
X6.6934Y-4.2732
X6.7009Y-4.7277
X6.7053Y-1.5719
X6.7166Y-2.023
X6.7288Y-3.9479
X6.7292Y-3.8628
X6.7383Y-3.5761
X6.7407Y-1.2465
X6.7411Y-1.1614
X6.7553Y-4.5857
X6.7672Y-1.8844
X6.7682Y-3.9479
X6.7686Y-3.8628
X6.7801Y-1.2465
X6.7805Y-1.1614
X6.7836Y-4.9403
X6.7954Y-2.2375
X6.7973Y-3.5761
X6.8006Y-5.2688
X6.8124Y-5.7747
X6.8125Y-2.5674
X6.8128Y-5.6896
X6.8243Y-3.0733
X6.8247Y-2.9882
X6.8365Y-5.0926
X6.8485Y-2.3912
X6.8518Y-5.7747
X6.8522Y-5.6896
X6.8564Y-3.5761
X6.8617Y-4.1226
X6.8637Y-3.0733
X6.8641Y-2.9882
X6.8711Y-5.4401
X6.8736Y-1.4213
X6.883Y-2.7387
X6.9049Y-5.3338
X6.9155Y-3.5761
X6.9168Y-2.6324
X6.974Y-3.5766
X7.0132Y-4.692
X7.0251Y-1.9906
X7.0289Y-4.9794
X7.0336Y-3.5761
X7.0408Y-2.2781
X7.0926Y-3.5761
X7.1517Y-3.5761
X7.1835Y-4.5719
X7.1954Y-1.8706
X7.2102Y-3.5766
X7.214Y-5.0316
X7.2259Y-2.3302
X7.2698Y-3.5761
X7.3075Y-4.2176
X7.3194Y-1.5162
X7.3351Y-4.0941
X7.347Y-1.3927
X7.3602Y-3.8618
X7.3606Y-3.7767
X7.3696Y-5.601
X7.3721Y-1.0766
X7.3725Y-1.153
X7.3749Y-4.4637
X7.3815Y-2.8996
X7.3868Y-1.7623
X7.3996Y-3.8618
X7.4Y-3.7767
X7.4076Y-3.6155
X7.4115Y-1.0766
X7.4118Y-4.2826
X7.4119Y-1.153
X7.4237Y-1.5812
X7.4273Y-4.6096
X7.441Y-1.9108
X7.4586Y-5.8608
X7.459Y-5.7757
X7.4705Y-3.1594
X7.4709Y-3.0744
X7.4718Y-5.1379
X7.4838Y-2.4365
X7.4979Y-5.8608
X7.4983Y-5.7757
X7.5098Y-3.1594
X7.5102Y-3.0744
X7.5182Y-5.4504
X7.5301Y-2.749
X7.5348Y-4.253
X7.5359Y-4.3293
X7.5393Y-2.2475
X7.5395Y-4.9482
X7.5468Y-1.5517
X7.5478Y-1.6279
X7.5978Y-5.317
X7.5989Y-4.1866
X7.5998Y-5.384
X7.6005Y-1.9867
X7.6097Y-2.6156
X7.6108Y-1.4852
X7.6117Y-2.6826
X7.616Y-4.6881
X7.6363Y-3.8613
X7.6367Y-3.7762
X7.6482Y-1.0761
X7.6486Y-1.1525
X7.6628Y-4.4991
X7.6747Y-1.7977
X7.6757Y-3.8613
X7.6761Y-3.7762
X7.6876Y-1.0761
X7.688Y-1.1525
X7.7048Y-5.0289
X7.7186Y-2.3261
X7.7228Y-5.3544
X7.7346Y-5.8603
X7.7347Y-2.6531
X7.735Y-5.7752
X7.7466Y-3.159
X7.7469Y-3.0739
X7.7568Y-5.1743
X7.7672Y-4.036
X7.7687Y-2.4729
X7.774Y-5.8603
X7.7744Y-5.7752
X7.7791Y-1.3346
X7.7859Y-3.159
X7.7863Y-3.0739
X7.7933Y-5.5257
X7.8052Y-2.8243
X7.8272Y-5.4194
X7.8391Y-2.718
X7.9207Y-4.6054
X7.9326Y-1.904
X7.9512Y-5.0651
X7.9631Y-2.3637
X8.0885Y-5.1226
X8.1004Y-2.4213
X8.1032Y-4.4863
X8.1152Y-1.7849
X8.2273Y-4.132
X8.2392Y-5.692
X8.2392Y-1.4306
X8.2511Y-2.9906
X8.2611Y-4.0257
X8.273Y-1.3243
X8.28Y-3.7761
X8.2804Y-3.691
X8.2903Y-4.382
X8.2919Y-1.0668
X8.2923Y-0.9817
X8.3022Y-1.6806
X8.3194Y-3.7761
X8.3198Y-3.691
X8.3313Y-1.0668
X8.3316Y-4.1969
X8.3317Y-0.9817
X8.3331Y-5.9519
X8.3335Y-5.8668
X8.3435Y-1.4956
X8.345Y-3.2505
X8.3453Y-5.04
X8.3454Y-3.1654
X8.3464Y-5.2289
X8.3485Y-4.5249
X8.3583Y-2.5276
X8.3603Y-1.8143
X8.3724Y-5.9519
X8.3728Y-5.8668
X8.3844Y-3.2505
X8.3847Y-5.04
X8.3847Y-3.1654
X8.3981Y-5.5429
X8.41Y-2.8415
X8.4241Y-5.04
X8.4292Y-2.3379
X8.4546Y-4.1674
X8.4572Y-4.2427
X8.4665Y-1.466
X8.4691Y-1.5413
X8.4723Y-5.4081
X8.4743Y-5.475
X8.4843Y-2.7067
X8.4862Y-2.7736
X8.5139Y-4.6016
X8.528Y-4.1
X8.54Y-1.3986
X8.5475Y-1.9011
X8.5561Y-3.7756
X8.5565Y-3.6905
X8.568Y-1.0683
X8.5684Y-0.9832
X8.5808Y-5.0851
X8.5826Y-4.4135
X8.5926Y-2.4167
X8.5945Y-1.7121
X8.5955Y-3.7756
X8.5959Y-3.6905
X8.5973Y-5.4455
X8.6074Y-1.0683
X8.6078Y-0.9832
X8.6092Y-5.9514
X8.6093Y-2.7441
X8.6095Y-5.8663
X8.6211Y-3.25
X8.6215Y-3.1649
X8.6338Y-5.2708
X8.6457Y-2.5694
X8.6485Y-5.9514
X8.6489Y-5.8663
X8.6604Y-3.25
X8.6608Y-3.1649
X8.6638Y-2.3356
X8.6678Y-5.6167
X8.6797Y-2.9154
X8.6875Y-3.9504
X8.6994Y-1.249
X8.7017Y-5.5104
X8.7032Y-2.3356
X8.7136Y-2.8091
X8.8257Y-5.1561
X8.8376Y-2.4547
X8.8405Y-4.5198
X8.8524Y-1.8184
X9.0414Y-1.6038
X9.0414Y-1.6727
X9.0414Y-1.8675
X9.0414Y-2.0643
X9.0414Y-2.2633
X9.0454Y-2.4601
X9.055Y-4.3052
X9.058Y-4.3741
X9.06Y-4.7698
X9.06Y-5.1615
X9.061Y-4.9647
X9.0619Y-4.569
X9.1792Y-5.3872
X9.1792Y-5.4265
X9.1792Y-5.4659
X9.1792Y-5.5053
X9.1928Y-4.3082
X9.1928Y-4.505
X9.1928Y-4.6979
X9.1928Y-4.8948
X9.1928Y-5.0906
X9.1928Y-5.2934
X9.2009Y-1.1372
X9.2048Y-1.6068
X9.2048Y-1.8036
X9.2048Y-1.9966
X9.2048Y-2.1934
X9.2048Y-2.3893
X9.2048Y-2.592
X9.2186Y-5.3872
X9.2186Y-5.4265
X9.2186Y-5.4659
X9.2186Y-5.5053
X9.3761Y-1.2061
X9.443Y-4.3498
X9.443Y-4.5525
X9.445Y-4.1431
X9.4469Y-4.7454
X9.4469Y-5.1431
X9.4489Y-4.9403
X9.4529Y-2.2375
X9.4548Y-2.0407
X9.4568Y-1.645
X9.4588Y-1.8498
X9.4607Y-2.4324
T2
X2.7059Y-3.3886
X2.7059Y-3.6886
X2.9059Y-3.3886
X2.9059Y-3.6886
X3.1059Y-3.3886
X3.1059Y-3.6886
X3.4059Y-3.3886
X3.4059Y-3.6886
T3
X3.196Y-2.9295
X3.196Y-3.0295
X3.196Y-3.1295
X3.2009Y-3.9492
X3.2009Y-4.0492
X3.296Y-2.9295
X3.296Y-3.0295
X3.296Y-3.1295
X3.3765Y-4.5742
X3.4765Y-4.5742
X3.5654Y-2.4774
X3.5765Y-4.5742
X3.6361Y-2.4067
X3.7068Y-2.336
X5.1241Y-3.3143
X5.2241Y-3.3143
X6.0471Y-3.7197
X6.0473Y-3.584
X6.1471Y-3.7197
X6.1473Y-3.584
X6.2471Y-3.7197
X6.2473Y-3.584
T4
X2.7509Y-5.582
X2.7509Y-5.7474
X2.7509Y-5.9127
X2.7529Y-4.9994
X2.7529Y-5.1647
X2.7529Y-5.3301
X2.7895Y-3.9482
X2.9674Y-5.582
X2.9674Y-5.7474
X2.9674Y-5.9127
X2.9694Y-4.9994
X2.9694Y-5.1647
X2.9694Y-5.3301
X3.006Y-3.9482
X4.5769Y-5.6824
X4.5769Y-5.899
X4.7422Y-5.6824
X4.7422Y-5.899
X4.9076Y-5.6824
X4.9076Y-5.899
X5.0729Y-5.6824
X5.0729Y-5.899
X5.2383Y-5.6824
X5.2383Y-5.899
X5.4036Y-5.6824
X5.4036Y-5.899
X5.569Y-5.6824
X5.569Y-5.899
X5.7343Y-5.6824
X5.7343Y-5.899
X9.6382Y-4.2442
X9.6382Y-4.4442
X9.6382Y-4.6442
X9.6382Y-4.8442
X9.6382Y-5.0442
X9.6382Y-5.2442
X9.6382Y-5.4442
X9.6382Y-5.6442
X9.6499Y-1.5445
X9.6499Y-1.7413
X9.6499Y-1.9382
X9.6499Y-2.135
X9.6499Y-2.3319
X9.6499Y-2.5287
T0
M30
