%TF.GenerationSoftware,KiCad,Pcbnew,(6.0.1)*%
%TF.CreationDate,2022-05-08T00:04:22+10:00*%
%TF.ProjectId,211006_lmu_r0,32313130-3036-45f6-9c6d-755f72302e6b,rev?*%
%TF.SameCoordinates,Original*%
%TF.FileFunction,Soldermask,Top*%
%TF.FilePolarity,Negative*%
%FSLAX46Y46*%
G04 Gerber Fmt 4.6, Leading zero omitted, Abs format (unit mm)*
G04 Created by KiCad (PCBNEW (6.0.1)) date 2022-05-08 00:04:22*
%MOMM*%
%LPD*%
G01*
G04 APERTURE LIST*
G04 Aperture macros list*
%AMRoundRect*
0 Rectangle with rounded corners*
0 $1 Rounding radius*
0 $2 $3 $4 $5 $6 $7 $8 $9 X,Y pos of 4 corners*
0 Add a 4 corners polygon primitive as box body*
4,1,4,$2,$3,$4,$5,$6,$7,$8,$9,$2,$3,0*
0 Add four circle primitives for the rounded corners*
1,1,$1+$1,$2,$3*
1,1,$1+$1,$4,$5*
1,1,$1+$1,$6,$7*
1,1,$1+$1,$8,$9*
0 Add four rect primitives between the rounded corners*
20,1,$1+$1,$2,$3,$4,$5,0*
20,1,$1+$1,$4,$5,$6,$7,0*
20,1,$1+$1,$6,$7,$8,$9,0*
20,1,$1+$1,$8,$9,$2,$3,0*%
%AMHorizOval*
0 Thick line with rounded ends*
0 $1 width*
0 $2 $3 position (X,Y) of the first rounded end (center of the circle)*
0 $4 $5 position (X,Y) of the second rounded end (center of the circle)*
0 Add line between two ends*
20,1,$1,$2,$3,$4,$5,0*
0 Add two circle primitives to create the rounded ends*
1,1,$1,$2,$3*
1,1,$1,$4,$5*%
%AMRotRect*
0 Rectangle, with rotation*
0 The origin of the aperture is its center*
0 $1 length*
0 $2 width*
0 $3 Rotation angle, in degrees counterclockwise*
0 Add horizontal line*
21,1,$1,$2,0,0,$3*%
G04 Aperture macros list end*
%ADD10C,1.000000*%
%ADD11RoundRect,0.237500X0.250000X0.237500X-0.250000X0.237500X-0.250000X-0.237500X0.250000X-0.237500X0*%
%ADD12RoundRect,0.237500X0.300000X0.237500X-0.300000X0.237500X-0.300000X-0.237500X0.300000X-0.237500X0*%
%ADD13RoundRect,0.250000X-0.325000X-0.450000X0.325000X-0.450000X0.325000X0.450000X-0.325000X0.450000X0*%
%ADD14RoundRect,0.250000X-0.475000X0.337500X-0.475000X-0.337500X0.475000X-0.337500X0.475000X0.337500X0*%
%ADD15RoundRect,0.250000X1.950000X1.000000X-1.950000X1.000000X-1.950000X-1.000000X1.950000X-1.000000X0*%
%ADD16RoundRect,0.237500X0.237500X-0.300000X0.237500X0.300000X-0.237500X0.300000X-0.237500X-0.300000X0*%
%ADD17RoundRect,0.011200X-0.723800X-0.128800X0.723800X-0.128800X0.723800X0.128800X-0.723800X0.128800X0*%
%ADD18RoundRect,0.011200X-0.128800X-0.723800X0.128800X-0.723800X0.128800X0.723800X-0.128800X0.723800X0*%
%ADD19R,3.600000X3.600000*%
%ADD20RoundRect,0.237500X-0.250000X-0.237500X0.250000X-0.237500X0.250000X0.237500X-0.250000X0.237500X0*%
%ADD21RoundRect,0.237500X-0.300000X-0.237500X0.300000X-0.237500X0.300000X0.237500X-0.300000X0.237500X0*%
%ADD22RoundRect,0.250001X-1.399999X1.099999X-1.399999X-1.099999X1.399999X-1.099999X1.399999X1.099999X0*%
%ADD23O,3.300000X2.700000*%
%ADD24RoundRect,0.237500X0.237500X-0.250000X0.237500X0.250000X-0.237500X0.250000X-0.237500X-0.250000X0*%
%ADD25RoundRect,0.237500X-0.237500X0.250000X-0.237500X-0.250000X0.237500X-0.250000X0.237500X0.250000X0*%
%ADD26RoundRect,0.250000X0.475000X-0.337500X0.475000X0.337500X-0.475000X0.337500X-0.475000X-0.337500X0*%
%ADD27RoundRect,0.250000X0.412500X0.650000X-0.412500X0.650000X-0.412500X-0.650000X0.412500X-0.650000X0*%
%ADD28RoundRect,0.250000X-0.350000X-0.450000X0.350000X-0.450000X0.350000X0.450000X-0.350000X0.450000X0*%
%ADD29RoundRect,0.250000X0.337500X0.475000X-0.337500X0.475000X-0.337500X-0.475000X0.337500X-0.475000X0*%
%ADD30RoundRect,0.250000X-1.550000X0.750000X-1.550000X-0.750000X1.550000X-0.750000X1.550000X0.750000X0*%
%ADD31O,3.600000X2.000000*%
%ADD32R,1.168400X1.879600*%
%ADD33RoundRect,0.250000X-0.450000X0.325000X-0.450000X-0.325000X0.450000X-0.325000X0.450000X0.325000X0*%
%ADD34C,3.200000*%
%ADD35R,2.000000X1.500000*%
%ADD36R,2.000000X3.800000*%
%ADD37RoundRect,0.237500X-0.237500X0.300000X-0.237500X-0.300000X0.237500X-0.300000X0.237500X0.300000X0*%
%ADD38RoundRect,0.250000X0.350000X0.450000X-0.350000X0.450000X-0.350000X-0.450000X0.350000X-0.450000X0*%
%ADD39R,2.300000X3.500000*%
%ADD40R,2.400000X0.740000*%
%ADD41RoundRect,0.250000X0.325000X0.450000X-0.325000X0.450000X-0.325000X-0.450000X0.325000X-0.450000X0*%
%ADD42R,0.410000X1.600000*%
%ADD43RoundRect,0.250000X-0.337500X-0.475000X0.337500X-0.475000X0.337500X0.475000X-0.337500X0.475000X0*%
%ADD44RoundRect,0.062500X0.062500X-0.375000X0.062500X0.375000X-0.062500X0.375000X-0.062500X-0.375000X0*%
%ADD45RoundRect,0.062500X0.375000X-0.062500X0.375000X0.062500X-0.375000X0.062500X-0.375000X-0.062500X0*%
%ADD46R,1.600000X1.600000*%
%ADD47R,1.700000X1.700000*%
%ADD48O,1.700000X1.700000*%
%ADD49R,1.800000X1.100000*%
%ADD50R,1.400000X1.400000*%
%ADD51C,1.400000*%
%ADD52RoundRect,0.237500X-0.287500X-0.237500X0.287500X-0.237500X0.287500X0.237500X-0.287500X0.237500X0*%
%ADD53RoundRect,0.250001X-1.099999X-1.399999X1.099999X-1.399999X1.099999X1.399999X-1.099999X1.399999X0*%
%ADD54O,2.700000X3.300000*%
%ADD55RoundRect,0.250000X-0.400000X-0.625000X0.400000X-0.625000X0.400000X0.625000X-0.400000X0.625000X0*%
%ADD56R,1.100000X1.100000*%
%ADD57RoundRect,0.249999X-1.550001X0.790001X-1.550001X-0.790001X1.550001X-0.790001X1.550001X0.790001X0*%
%ADD58O,3.600000X2.080000*%
%ADD59RotRect,1.700000X1.700000X315.000000*%
%ADD60HorizOval,1.700000X0.000000X0.000000X0.000000X0.000000X0*%
%ADD61RoundRect,0.099900X-1.250100X1.250100X-1.250100X-1.250100X1.250100X-1.250100X1.250100X1.250100X0*%
%ADD62RoundRect,0.250000X-0.625000X0.400000X-0.625000X-0.400000X0.625000X-0.400000X0.625000X0.400000X0*%
%ADD63R,1.500000X2.300000*%
%ADD64O,1.500000X2.300000*%
%ADD65RoundRect,0.250000X0.400000X0.625000X-0.400000X0.625000X-0.400000X-0.625000X0.400000X-0.625000X0*%
%ADD66R,1.800000X1.200000*%
%ADD67R,2.100000X1.800000*%
%ADD68RoundRect,0.075000X-0.075000X0.662500X-0.075000X-0.662500X0.075000X-0.662500X0.075000X0.662500X0*%
%ADD69RoundRect,0.075000X-0.662500X0.075000X-0.662500X-0.075000X0.662500X-0.075000X0.662500X0.075000X0*%
%ADD70R,1.600000X0.410000*%
%ADD71R,1.200000X1.800000*%
%ADD72RoundRect,0.250000X-0.650000X0.412500X-0.650000X-0.412500X0.650000X-0.412500X0.650000X0.412500X0*%
G04 APERTURE END LIST*
D10*
%TO.C,TP90*%
X207500746Y-69929168D03*
%TD*%
D11*
%TO.C,R1*%
X93489946Y-124683700D03*
X91664946Y-124683700D03*
%TD*%
D12*
%TO.C,C188*%
X101514946Y-75533700D03*
X99789946Y-75533700D03*
%TD*%
D10*
%TO.C,TP23*%
X238152446Y-28433700D03*
%TD*%
D13*
%TO.C,D22*%
X170527446Y-55533700D03*
X172577446Y-55533700D03*
%TD*%
D10*
%TO.C,TP105*%
X199423192Y-106077450D03*
%TD*%
D14*
%TO.C,C5*%
X80502446Y-115896200D03*
X80502446Y-117971200D03*
%TD*%
D15*
%TO.C,C1*%
X91252446Y-140583700D03*
X82852446Y-140583700D03*
%TD*%
D10*
%TO.C,TP103*%
X199634946Y-114377450D03*
%TD*%
%TO.C,TP116*%
X176573192Y-108469116D03*
%TD*%
D16*
%TO.C,C182*%
X85877446Y-98021200D03*
X85877446Y-96296200D03*
%TD*%
D17*
%TO.C,U4*%
X141245000Y-48781250D03*
X141245000Y-49281250D03*
X141245000Y-49781250D03*
X141245000Y-50281250D03*
X141245000Y-50781250D03*
X141245000Y-51281250D03*
X141245000Y-51781250D03*
X141245000Y-52281250D03*
X141245000Y-52781250D03*
X141245000Y-53281250D03*
X141245000Y-53781250D03*
X141245000Y-54281250D03*
D18*
X142665000Y-55701250D03*
X143165000Y-55701250D03*
X143665000Y-55701250D03*
X144165000Y-55701250D03*
X144665000Y-55701250D03*
X145165000Y-55701250D03*
X145665000Y-55701250D03*
X146165000Y-55701250D03*
X146665000Y-55701250D03*
X147165000Y-55701250D03*
X147665000Y-55701250D03*
X148165000Y-55701250D03*
D17*
X149585000Y-54281250D03*
X149585000Y-53781250D03*
X149585000Y-53281250D03*
X149585000Y-52781250D03*
X149585000Y-52281250D03*
X149585000Y-51781250D03*
X149585000Y-51281250D03*
X149585000Y-50781250D03*
X149585000Y-50281250D03*
X149585000Y-49781250D03*
X149585000Y-49281250D03*
X149585000Y-48781250D03*
D18*
X148165000Y-47361250D03*
X147665000Y-47361250D03*
X147165000Y-47361250D03*
X146665000Y-47361250D03*
X146165000Y-47361250D03*
X145665000Y-47361250D03*
X145165000Y-47361250D03*
X144665000Y-47361250D03*
X144165000Y-47361250D03*
X143665000Y-47361250D03*
X143165000Y-47361250D03*
X142665000Y-47361250D03*
D19*
X145415000Y-51531250D03*
%TD*%
D20*
%TO.C,R214*%
X132509946Y-98318700D03*
X134334946Y-98318700D03*
%TD*%
D10*
%TO.C,TP100*%
X222723192Y-102177450D03*
%TD*%
D21*
%TO.C,C187*%
X103164946Y-75533700D03*
X104889946Y-75533700D03*
%TD*%
D22*
%TO.C,J1*%
X75372789Y-141783700D03*
D23*
X75372789Y-145983700D03*
X75372789Y-150183700D03*
X69872789Y-141783700D03*
X69872789Y-145983700D03*
X69872789Y-150183700D03*
%TD*%
D10*
%TO.C,TP47*%
X228275746Y-42437500D03*
%TD*%
D11*
%TO.C,R125*%
X142952446Y-79083700D03*
X141127446Y-79083700D03*
%TD*%
D16*
%TO.C,C15*%
X130652446Y-130846200D03*
X130652446Y-129121200D03*
%TD*%
D14*
%TO.C,C78*%
X111102446Y-142611173D03*
X111102446Y-144686173D03*
%TD*%
D11*
%TO.C,R219*%
X117217596Y-68454820D03*
X115392596Y-68454820D03*
%TD*%
D22*
%TO.C,J2*%
X75422789Y-126983700D03*
D23*
X75422789Y-131183700D03*
X75422789Y-135383700D03*
X69922789Y-126983700D03*
X69922789Y-131183700D03*
X69922789Y-135383700D03*
%TD*%
D24*
%TO.C,R2*%
X117202446Y-58483700D03*
X117202446Y-56658700D03*
%TD*%
D25*
%TO.C,R142*%
X233490365Y-106062450D03*
X233490365Y-107887450D03*
%TD*%
%TO.C,R166*%
X233490365Y-116072450D03*
X233490365Y-117897450D03*
%TD*%
D26*
%TO.C,C28*%
X150972446Y-87871200D03*
X150972446Y-85796200D03*
%TD*%
D27*
%TO.C,C191*%
X238414946Y-126083700D03*
X235289946Y-126083700D03*
%TD*%
%TO.C,C175*%
X238464946Y-111033700D03*
X235339946Y-111033700D03*
%TD*%
D12*
%TO.C,C180*%
X115656966Y-108612520D03*
X113931966Y-108612520D03*
%TD*%
D28*
%TO.C,R3*%
X79102446Y-147283700D03*
X81102446Y-147283700D03*
%TD*%
D24*
%TO.C,R232*%
X111594466Y-105562520D03*
X111594466Y-103737520D03*
%TD*%
%TO.C,R242*%
X114902446Y-58446200D03*
X114902446Y-56621200D03*
%TD*%
%TO.C,R234*%
X108794466Y-105562520D03*
X108794466Y-103737520D03*
%TD*%
D10*
%TO.C,TP81*%
X207300000Y-64100000D03*
%TD*%
D27*
%TO.C,C127*%
X238727446Y-52483700D03*
X235602446Y-52483700D03*
%TD*%
D10*
%TO.C,TP112*%
X199423192Y-108102450D03*
%TD*%
D11*
%TO.C,R119*%
X142964946Y-83733700D03*
X141139946Y-83733700D03*
%TD*%
D10*
%TO.C,TP46*%
X199725746Y-39487500D03*
%TD*%
%TO.C,TP84*%
X207500746Y-75979166D03*
%TD*%
%TO.C,TP138*%
X185423192Y-138360783D03*
%TD*%
D29*
%TO.C,C2*%
X84964946Y-133683700D03*
X82889946Y-133683700D03*
%TD*%
D21*
%TO.C,C16*%
X127478438Y-129083700D03*
X129203438Y-129083700D03*
%TD*%
D10*
%TO.C,TP56*%
X176875746Y-37795833D03*
%TD*%
%TO.C,TP50*%
X176875746Y-39854166D03*
%TD*%
D30*
%TO.C,J4*%
X245107885Y-39230000D03*
D31*
X245107885Y-44230000D03*
X245107885Y-49230000D03*
X245107885Y-54230000D03*
X245107885Y-59230000D03*
X245107885Y-64230000D03*
%TD*%
D11*
%TO.C,R208*%
X117022446Y-97993700D03*
X115197446Y-97993700D03*
%TD*%
D32*
%TO.C,T7*%
X217975846Y-113930750D03*
X215486646Y-113930750D03*
X210508246Y-113930750D03*
X208019046Y-113930750D03*
X208019046Y-97573150D03*
X210508246Y-97573150D03*
X215486646Y-97573150D03*
X217975846Y-97573150D03*
%TD*%
D33*
%TO.C,D44*%
X107652446Y-53033700D03*
X107652446Y-55083700D03*
%TD*%
D34*
%TO.C,H3*%
X247152446Y-27333700D03*
%TD*%
D10*
%TO.C,TP123*%
X176573192Y-110527450D03*
%TD*%
D16*
%TO.C,C41*%
X232192919Y-42475000D03*
X232192919Y-40750000D03*
%TD*%
D10*
%TO.C,TP40*%
X199725746Y-33412500D03*
%TD*%
D25*
%TO.C,R248*%
X103152446Y-77021200D03*
X103152446Y-78846200D03*
%TD*%
D20*
%TO.C,R217*%
X132509946Y-102518700D03*
X134334946Y-102518700D03*
%TD*%
D10*
%TO.C,TP39*%
X199725746Y-37462500D03*
%TD*%
D13*
%TO.C,D39*%
X215927446Y-125583700D03*
X217977446Y-125583700D03*
%TD*%
D10*
%TO.C,TP106*%
X199423192Y-102027450D03*
%TD*%
D11*
%TO.C,R210*%
X117022446Y-100793700D03*
X115197446Y-100793700D03*
%TD*%
D25*
%TO.C,R237*%
X113652446Y-121050020D03*
X113652446Y-122875020D03*
%TD*%
D10*
%TO.C,TP156*%
X207198192Y-138544118D03*
%TD*%
%TO.C,TP4*%
X89152446Y-123333700D03*
%TD*%
D35*
%TO.C,Q1*%
X141402446Y-86483700D03*
X141402446Y-88783700D03*
D36*
X147702446Y-88783700D03*
D35*
X141402446Y-91083700D03*
%TD*%
D24*
%TO.C,R243*%
X105202446Y-58521200D03*
X105202446Y-56696200D03*
%TD*%
D13*
%TO.C,D24*%
X193977446Y-56983700D03*
X196027446Y-56983700D03*
%TD*%
D37*
%TO.C,C7*%
X82777446Y-146496200D03*
X82777446Y-148221200D03*
%TD*%
D38*
%TO.C,R4*%
X81102446Y-149233700D03*
X79102446Y-149233700D03*
%TD*%
D39*
%TO.C,D2*%
X93152446Y-128033700D03*
X93152446Y-133433700D03*
%TD*%
D10*
%TO.C,TP35*%
X223025746Y-37679167D03*
%TD*%
%TO.C,TP146*%
X227973192Y-126102450D03*
%TD*%
D20*
%TO.C,R225*%
X132489946Y-66058220D03*
X134314946Y-66058220D03*
%TD*%
D10*
%TO.C,TP51*%
X176875746Y-35737500D03*
%TD*%
D11*
%TO.C,R222*%
X117217596Y-72654820D03*
X115392596Y-72654820D03*
%TD*%
D40*
%TO.C,J11*%
X117477446Y-89673700D03*
X113577446Y-89673700D03*
X117477446Y-88403700D03*
X113577446Y-88403700D03*
X117477446Y-87133700D03*
X113577446Y-87133700D03*
X117477446Y-85863700D03*
X113577446Y-85863700D03*
X117477446Y-84593700D03*
X113577446Y-84593700D03*
%TD*%
D16*
%TO.C,C126*%
X231886639Y-116064950D03*
X231886639Y-114339950D03*
%TD*%
D41*
%TO.C,D6*%
X112327446Y-136348673D03*
X110277446Y-136348673D03*
%TD*%
D32*
%TO.C,T4*%
X166684100Y-57883700D03*
X169173300Y-57883700D03*
X174151700Y-57883700D03*
X176640900Y-57883700D03*
X176640900Y-74241300D03*
X174151700Y-74241300D03*
X169173300Y-74241300D03*
X166684100Y-74241300D03*
%TD*%
D10*
%TO.C,TP45*%
X199725746Y-35437500D03*
%TD*%
D11*
%TO.C,R123*%
X142952446Y-80633700D03*
X141127446Y-80633700D03*
%TD*%
D10*
%TO.C,TP145*%
X185423192Y-136377450D03*
%TD*%
D42*
%TO.C,U8*%
X114159466Y-110628920D03*
X113524466Y-110628920D03*
X112889466Y-110628920D03*
X112254466Y-110628920D03*
X111619466Y-110628920D03*
X110984466Y-110628920D03*
X110349466Y-110628920D03*
X109714466Y-110628920D03*
X109079466Y-110628920D03*
X108444466Y-110628920D03*
X108444466Y-115937520D03*
X109079466Y-115937520D03*
X109714466Y-115937520D03*
X110349466Y-115937520D03*
X110984466Y-115937520D03*
X111619466Y-115937520D03*
X112254466Y-115937520D03*
X112889466Y-115937520D03*
X113524466Y-115937520D03*
X114159466Y-115937520D03*
%TD*%
D10*
%TO.C,TP113*%
X227973192Y-111052450D03*
%TD*%
D12*
%TO.C,C181*%
X115731966Y-117862520D03*
X114006966Y-117862520D03*
%TD*%
D13*
%TO.C,D37*%
X193627446Y-125633700D03*
X195677446Y-125633700D03*
%TD*%
D10*
%TO.C,TP135*%
X227973192Y-121152450D03*
%TD*%
D43*
%TO.C,C6*%
X71914946Y-106533700D03*
X73989946Y-106533700D03*
%TD*%
D16*
%TO.C,C114*%
X231890365Y-111089950D03*
X231890365Y-109364950D03*
%TD*%
D44*
%TO.C,IC1*%
X127090938Y-134052720D03*
X127590938Y-134052720D03*
X128090938Y-134052720D03*
X128590938Y-134052720D03*
D45*
X129278438Y-133365220D03*
X129278438Y-132865220D03*
X129278438Y-132365220D03*
X129278438Y-131865220D03*
D44*
X128590938Y-131177720D03*
X128090938Y-131177720D03*
X127590938Y-131177720D03*
X127090938Y-131177720D03*
D45*
X126403438Y-131865220D03*
X126403438Y-132365220D03*
X126403438Y-132865220D03*
X126403438Y-133365220D03*
D46*
X127840938Y-132615220D03*
%TD*%
D10*
%TO.C,TP7*%
X80652446Y-110683700D03*
%TD*%
%TO.C,TP155*%
X207198192Y-142577450D03*
%TD*%
%TO.C,TP72*%
X185725746Y-69745833D03*
%TD*%
D11*
%TO.C,R211*%
X117022446Y-102193700D03*
X115197446Y-102193700D03*
%TD*%
D10*
%TO.C,TP158*%
X94027446Y-102358700D03*
%TD*%
D32*
%TO.C,T5*%
X190109100Y-60058700D03*
X192598300Y-60058700D03*
X197576700Y-60058700D03*
X200065900Y-60058700D03*
X200065900Y-76416300D03*
X197576700Y-76416300D03*
X192598300Y-76416300D03*
X190109100Y-76416300D03*
%TD*%
D10*
%TO.C,TP24*%
X139452446Y-86433700D03*
%TD*%
D12*
%TO.C,C103*%
X147571196Y-112121200D03*
X145846196Y-112121200D03*
%TD*%
D32*
%TO.C,T10*%
X166381546Y-126498650D03*
X168870746Y-126498650D03*
X173849146Y-126498650D03*
X176338346Y-126498650D03*
X176338346Y-142856250D03*
X173849146Y-142856250D03*
X168870746Y-142856250D03*
X166381546Y-142856250D03*
%TD*%
D13*
%TO.C,D35*%
X170327446Y-124283700D03*
X172377446Y-124283700D03*
%TD*%
D47*
%TO.C,J13*%
X81177446Y-74408700D03*
D48*
X83717446Y-74408700D03*
X81177446Y-76948700D03*
X83717446Y-76948700D03*
X81177446Y-79488700D03*
X83717446Y-79488700D03*
%TD*%
D33*
%TO.C,D42*%
X112502446Y-53027450D03*
X112502446Y-55077450D03*
%TD*%
D27*
%TO.C,C115*%
X238727446Y-47433700D03*
X235602446Y-47433700D03*
%TD*%
D37*
%TO.C,C185*%
X106602446Y-90771200D03*
X106602446Y-92496200D03*
%TD*%
D11*
%TO.C,R209*%
X117022446Y-99393700D03*
X115197446Y-99393700D03*
%TD*%
D49*
%TO.C,SW1*%
X87827446Y-96308700D03*
X94027446Y-96308700D03*
X94027446Y-100008700D03*
X87827446Y-100008700D03*
%TD*%
D25*
%TO.C,R42*%
X233792919Y-37447500D03*
X233792919Y-39272500D03*
%TD*%
D10*
%TO.C,TP57*%
X176875746Y-41912500D03*
%TD*%
D25*
%TO.C,R154*%
X233490365Y-111067450D03*
X233490365Y-112892450D03*
%TD*%
D24*
%TO.C,R245*%
X110102446Y-58471200D03*
X110102446Y-56646200D03*
%TD*%
D10*
%TO.C,TP25*%
X149977446Y-90258700D03*
%TD*%
D24*
%TO.C,R244*%
X112502446Y-58464950D03*
X112502446Y-56639950D03*
%TD*%
D37*
%TO.C,C179*%
X129517596Y-65895720D03*
X129517596Y-67620720D03*
%TD*%
D11*
%TO.C,R124*%
X138952446Y-80633700D03*
X137127446Y-80633700D03*
%TD*%
D20*
%TO.C,R251*%
X106559946Y-136368673D03*
X108384946Y-136368673D03*
%TD*%
D10*
%TO.C,TP3*%
X86902446Y-133833700D03*
%TD*%
D16*
%TO.C,C53*%
X232189193Y-47450000D03*
X232189193Y-45725000D03*
%TD*%
D20*
%TO.C,R226*%
X132639946Y-67958220D03*
X134464946Y-67958220D03*
%TD*%
D11*
%TO.C,R207*%
X117022446Y-96593700D03*
X115197446Y-96593700D03*
%TD*%
D16*
%TO.C,C77*%
X232192919Y-57475000D03*
X232192919Y-55750000D03*
%TD*%
D10*
%TO.C,TP147*%
X206997446Y-132714950D03*
%TD*%
D32*
%TO.C,T9*%
X171563346Y-118306250D03*
X169074146Y-118306250D03*
X164095746Y-118306250D03*
X161606546Y-118306250D03*
X161606546Y-101948650D03*
X164095746Y-101948650D03*
X169074146Y-101948650D03*
X171563346Y-101948650D03*
%TD*%
D27*
%TO.C,C139*%
X238764946Y-57483700D03*
X235639946Y-57483700D03*
%TD*%
D50*
%TO.C,K1*%
X86509946Y-86071200D03*
D51*
X78889946Y-86071200D03*
X73809946Y-86071200D03*
X68729946Y-86071200D03*
X68729946Y-93691200D03*
X73809946Y-93691200D03*
X78889946Y-93691200D03*
X86509946Y-93691200D03*
%TD*%
D20*
%TO.C,R229*%
X132739946Y-73483700D03*
X134564946Y-73483700D03*
%TD*%
D33*
%TO.C,D40*%
X114902446Y-53008700D03*
X114902446Y-55058700D03*
%TD*%
D24*
%TO.C,R247*%
X85877446Y-101821200D03*
X85877446Y-99996200D03*
%TD*%
D11*
%TO.C,R120*%
X138964946Y-83733700D03*
X137139946Y-83733700D03*
%TD*%
D52*
%TO.C,FB1*%
X98802446Y-79096200D03*
X100552446Y-79096200D03*
%TD*%
D53*
%TO.C,J3*%
X116252446Y-144333700D03*
D54*
X120452446Y-144333700D03*
X124652446Y-144333700D03*
X128852446Y-144333700D03*
X133052446Y-144333700D03*
X137252446Y-144333700D03*
X141452446Y-144333700D03*
X145652446Y-144333700D03*
X116252446Y-149833700D03*
X120452446Y-149833700D03*
X124652446Y-149833700D03*
X128852446Y-149833700D03*
X133052446Y-149833700D03*
X137252446Y-149833700D03*
X141452446Y-149833700D03*
X145652446Y-149833700D03*
%TD*%
D32*
%TO.C,T3*%
X171865900Y-49691300D03*
X169376700Y-49691300D03*
X164398300Y-49691300D03*
X161909100Y-49691300D03*
X161909100Y-33333700D03*
X164398300Y-33333700D03*
X169376700Y-33333700D03*
X171865900Y-33333700D03*
%TD*%
D10*
%TO.C,TP139*%
X185423192Y-142327449D03*
%TD*%
%TO.C,TP149*%
X207198192Y-140560784D03*
%TD*%
D55*
%TO.C,R27*%
X148950000Y-39250000D03*
X152050000Y-39250000D03*
%TD*%
D10*
%TO.C,TP150*%
X207198192Y-144594116D03*
%TD*%
D24*
%TO.C,R230*%
X114394466Y-105562520D03*
X114394466Y-103737520D03*
%TD*%
D27*
%TO.C,C163*%
X238414946Y-106083700D03*
X235289946Y-106083700D03*
%TD*%
D11*
%TO.C,R220*%
X117217596Y-69854820D03*
X115392596Y-69854820D03*
%TD*%
D10*
%TO.C,TP36*%
X228275746Y-40737500D03*
%TD*%
D56*
%TO.C,D14*%
X146175746Y-41587500D03*
X148975746Y-41587500D03*
%TD*%
D55*
%TO.C,R127*%
X148700000Y-107750000D03*
X151800000Y-107750000D03*
%TD*%
D25*
%TO.C,R240*%
X109152446Y-121050020D03*
X109152446Y-122875020D03*
%TD*%
D17*
%TO.C,U5*%
X140942446Y-117396200D03*
X140942446Y-117896200D03*
X140942446Y-118396200D03*
X140942446Y-118896200D03*
X140942446Y-119396200D03*
X140942446Y-119896200D03*
X140942446Y-120396200D03*
X140942446Y-120896200D03*
X140942446Y-121396200D03*
X140942446Y-121896200D03*
X140942446Y-122396200D03*
X140942446Y-122896200D03*
D18*
X142362446Y-124316200D03*
X142862446Y-124316200D03*
X143362446Y-124316200D03*
X143862446Y-124316200D03*
X144362446Y-124316200D03*
X144862446Y-124316200D03*
X145362446Y-124316200D03*
X145862446Y-124316200D03*
X146362446Y-124316200D03*
X146862446Y-124316200D03*
X147362446Y-124316200D03*
X147862446Y-124316200D03*
D17*
X149282446Y-122896200D03*
X149282446Y-122396200D03*
X149282446Y-121896200D03*
X149282446Y-121396200D03*
X149282446Y-120896200D03*
X149282446Y-120396200D03*
X149282446Y-119896200D03*
X149282446Y-119396200D03*
X149282446Y-118896200D03*
X149282446Y-118396200D03*
X149282446Y-117896200D03*
X149282446Y-117396200D03*
D18*
X147862446Y-115976200D03*
X147362446Y-115976200D03*
X146862446Y-115976200D03*
X146362446Y-115976200D03*
X145862446Y-115976200D03*
X145362446Y-115976200D03*
X144862446Y-115976200D03*
X144362446Y-115976200D03*
X143862446Y-115976200D03*
X143362446Y-115976200D03*
X142862446Y-115976200D03*
X142362446Y-115976200D03*
D19*
X145112446Y-120146200D03*
%TD*%
D20*
%TO.C,R227*%
X132689946Y-70458220D03*
X134514946Y-70458220D03*
%TD*%
%TO.C,R224*%
X132489946Y-64508220D03*
X134314946Y-64508220D03*
%TD*%
D24*
%TO.C,R253*%
X102552446Y-58546200D03*
X102552446Y-56721200D03*
%TD*%
D11*
%TO.C,R206*%
X117022446Y-95193700D03*
X115197446Y-95193700D03*
%TD*%
D16*
%TO.C,C138*%
X231890365Y-121089950D03*
X231890365Y-119364950D03*
%TD*%
D32*
%TO.C,T8*%
X194613346Y-116106250D03*
X192124146Y-116106250D03*
X187145746Y-116106250D03*
X184656546Y-116106250D03*
X184656546Y-99748650D03*
X187145746Y-99748650D03*
X192124146Y-99748650D03*
X194613346Y-99748650D03*
%TD*%
D34*
%TO.C,H1*%
X71152446Y-80333700D03*
%TD*%
D25*
%TO.C,R241*%
X107652446Y-121050020D03*
X107652446Y-122875020D03*
%TD*%
%TO.C,R102*%
X233792919Y-62472500D03*
X233792919Y-64297500D03*
%TD*%
D10*
%TO.C,TP92*%
X222997446Y-112201950D03*
%TD*%
D41*
%TO.C,D20*%
X167977446Y-51883700D03*
X165927446Y-51883700D03*
%TD*%
D12*
%TO.C,C184*%
X97064946Y-89533700D03*
X95339946Y-89533700D03*
%TD*%
D10*
%TO.C,TP30*%
X106552446Y-134148673D03*
%TD*%
%TO.C,TP102*%
X227973192Y-109352450D03*
%TD*%
D41*
%TO.C,D18*%
X191027446Y-50483700D03*
X188977446Y-50483700D03*
%TD*%
D34*
%TO.C,H2*%
X247152446Y-151333700D03*
%TD*%
D57*
%TO.C,J10*%
X244810331Y-107803700D03*
D58*
X244810331Y-112883700D03*
X244810331Y-117963700D03*
X244810331Y-123043700D03*
X244810331Y-128123700D03*
X244810331Y-133203700D03*
X244810331Y-138283700D03*
X244810331Y-143363700D03*
%TD*%
D11*
%TO.C,R223*%
X117217596Y-74054820D03*
X115392596Y-74054820D03*
%TD*%
D59*
%TO.C,J12*%
X94152446Y-59333700D03*
D60*
X92356395Y-61129751D03*
X90560344Y-62925802D03*
%TD*%
D25*
%TO.C,R202*%
X233490365Y-131087450D03*
X233490365Y-132912450D03*
%TD*%
D10*
%TO.C,TP157*%
X227973192Y-131102450D03*
%TD*%
D61*
%TO.C,L1*%
X86812446Y-130968700D03*
X86812446Y-123348700D03*
X80592446Y-123348700D03*
X80592446Y-130968700D03*
%TD*%
D10*
%TO.C,TP62*%
X161875746Y-71554166D03*
%TD*%
D21*
%TO.C,C186*%
X106702446Y-81196200D03*
X108427446Y-81196200D03*
%TD*%
D10*
%TO.C,TP67*%
X161875746Y-69537500D03*
%TD*%
%TO.C,TP37*%
X199937500Y-45762500D03*
%TD*%
D20*
%TO.C,R213*%
X132509946Y-96918700D03*
X134334946Y-96918700D03*
%TD*%
D32*
%TO.C,T1*%
X218278400Y-45315800D03*
X215789200Y-45315800D03*
X210810800Y-45315800D03*
X208321600Y-45315800D03*
X208321600Y-28958200D03*
X210810800Y-28958200D03*
X215789200Y-28958200D03*
X218278400Y-28958200D03*
%TD*%
D16*
%TO.C,C162*%
X231890365Y-131099950D03*
X231890365Y-129374950D03*
%TD*%
D10*
%TO.C,TP117*%
X176573192Y-104352450D03*
%TD*%
D20*
%TO.C,R212*%
X132509946Y-95518700D03*
X134334946Y-95518700D03*
%TD*%
D10*
%TO.C,TP48*%
X176887500Y-47962500D03*
%TD*%
%TO.C,TP101*%
X222723192Y-106294117D03*
%TD*%
D41*
%TO.C,D33*%
X167677446Y-120483700D03*
X165627446Y-120483700D03*
%TD*%
D10*
%TO.C,TP34*%
X223025746Y-33562500D03*
%TD*%
%TO.C,TP144*%
X185423192Y-140344116D03*
%TD*%
D32*
%TO.C,T6*%
X212321600Y-62371200D03*
X214810800Y-62371200D03*
X219789200Y-62371200D03*
X222278400Y-62371200D03*
X222278400Y-78728800D03*
X219789200Y-78728800D03*
X214810800Y-78728800D03*
X212321600Y-78728800D03*
%TD*%
%TO.C,T11*%
X189806546Y-128673650D03*
X192295746Y-128673650D03*
X197274146Y-128673650D03*
X199763346Y-128673650D03*
X199763346Y-145031250D03*
X197274146Y-145031250D03*
X192295746Y-145031250D03*
X189806546Y-145031250D03*
%TD*%
D10*
%TO.C,TP80*%
X228275746Y-57487500D03*
%TD*%
D25*
%TO.C,R54*%
X233792919Y-42452500D03*
X233792919Y-44277500D03*
%TD*%
D10*
%TO.C,TP22*%
X131052446Y-113083700D03*
%TD*%
D32*
%TO.C,T12*%
X212019046Y-130986150D03*
X214508246Y-130986150D03*
X219486646Y-130986150D03*
X221975846Y-130986150D03*
X221975846Y-147343750D03*
X219486646Y-147343750D03*
X214508246Y-147343750D03*
X212019046Y-147343750D03*
%TD*%
D62*
%TO.C,R26*%
X236475746Y-30687500D03*
X236475746Y-33787500D03*
%TD*%
D41*
%TO.C,D31*%
X190727446Y-119083700D03*
X188677446Y-119083700D03*
%TD*%
D10*
%TO.C,TP21*%
X128452446Y-120433700D03*
%TD*%
D37*
%TO.C,C178*%
X120267596Y-65792320D03*
X120267596Y-67517320D03*
%TD*%
D10*
%TO.C,TP28*%
X223025746Y-35620833D03*
%TD*%
D11*
%TO.C,R121*%
X142952446Y-82183700D03*
X141127446Y-82183700D03*
%TD*%
D29*
%TO.C,C3*%
X85789946Y-120308700D03*
X83714946Y-120308700D03*
%TD*%
D47*
%TO.C,J7*%
X130152446Y-84183700D03*
D48*
X132692446Y-84183700D03*
%TD*%
D10*
%TO.C,TP136*%
X184784946Y-130402450D03*
%TD*%
D20*
%TO.C,R215*%
X132509946Y-99718700D03*
X134334946Y-99718700D03*
%TD*%
D25*
%TO.C,R239*%
X110652446Y-121050020D03*
X110652446Y-122875020D03*
%TD*%
D10*
%TO.C,TP125*%
X161359946Y-128227450D03*
%TD*%
D13*
%TO.C,D26*%
X216177446Y-59383700D03*
X218227446Y-59383700D03*
%TD*%
D20*
%TO.C,R216*%
X132509946Y-101118700D03*
X134334946Y-101118700D03*
%TD*%
D33*
%TO.C,D7*%
X102552446Y-53108700D03*
X102552446Y-55158700D03*
%TD*%
D47*
%TO.C,J5*%
X158676946Y-94480100D03*
D48*
X156136946Y-94480100D03*
X153596946Y-94480100D03*
%TD*%
D63*
%TO.C,U1*%
X85762446Y-116183700D03*
D64*
X88302446Y-116183700D03*
X90842446Y-116183700D03*
%TD*%
D11*
%TO.C,R126*%
X138952446Y-79083700D03*
X137127446Y-79083700D03*
%TD*%
D25*
%TO.C,R190*%
X233490365Y-126082450D03*
X233490365Y-127907450D03*
%TD*%
D65*
%TO.C,R25*%
X156152446Y-85833700D03*
X153052446Y-85833700D03*
%TD*%
D10*
%TO.C,TP94*%
X222723192Y-104235783D03*
%TD*%
%TO.C,TP127*%
X161573192Y-136135784D03*
%TD*%
D26*
%TO.C,C183*%
X97052446Y-79083700D03*
X97052446Y-77008700D03*
%TD*%
D20*
%TO.C,R228*%
X132739946Y-71983700D03*
X134564946Y-71983700D03*
%TD*%
D10*
%TO.C,TP124*%
X227973192Y-116077450D03*
%TD*%
%TO.C,TP29*%
X223025746Y-31504167D03*
%TD*%
D24*
%TO.C,R233*%
X110194466Y-105562520D03*
X110194466Y-103737520D03*
%TD*%
D27*
%TO.C,C151*%
X238777446Y-62483700D03*
X235652446Y-62483700D03*
%TD*%
D33*
%TO.C,D4*%
X117202446Y-53046200D03*
X117202446Y-55096200D03*
%TD*%
D24*
%TO.C,R246*%
X107652446Y-58471200D03*
X107652446Y-56646200D03*
%TD*%
D47*
%TO.C,J6*%
X158682446Y-91033700D03*
D48*
X156142446Y-91033700D03*
X153602446Y-91033700D03*
%TD*%
D25*
%TO.C,R78*%
X233792919Y-52462500D03*
X233792919Y-54287500D03*
%TD*%
%TO.C,R236*%
X115152446Y-121050020D03*
X115152446Y-122875020D03*
%TD*%
D10*
%TO.C,TP61*%
X161875746Y-67520834D03*
%TD*%
D41*
%TO.C,D29*%
X214127446Y-116983700D03*
X212077446Y-116983700D03*
%TD*%
D27*
%TO.C,C192*%
X238514946Y-131083700D03*
X235389946Y-131083700D03*
%TD*%
D41*
%TO.C,D3*%
X93702446Y-122933700D03*
X91652446Y-122933700D03*
%TD*%
D10*
%TO.C,TP5*%
X76652446Y-122083700D03*
%TD*%
%TO.C,TP33*%
X107000000Y-151498673D03*
%TD*%
%TO.C,TP79*%
X185725746Y-67762500D03*
%TD*%
%TO.C,TP59*%
X161662500Y-59612500D03*
%TD*%
D27*
%TO.C,C102*%
X238764946Y-42433700D03*
X235639946Y-42433700D03*
%TD*%
D56*
%TO.C,D27*%
X145858696Y-110121200D03*
X148658696Y-110121200D03*
%TD*%
D10*
%TO.C,TP78*%
X185725746Y-71729166D03*
%TD*%
D12*
%TO.C,C30*%
X147888246Y-43587500D03*
X146163246Y-43587500D03*
%TD*%
D66*
%TO.C,PS1*%
X78002446Y-118393700D03*
X78002446Y-115853700D03*
X78002446Y-110773700D03*
X67802446Y-110773700D03*
X67802446Y-118393700D03*
%TD*%
D10*
%TO.C,TP68*%
X161875746Y-65504168D03*
%TD*%
D29*
%TO.C,C29*%
X156179946Y-88183700D03*
X154104946Y-88183700D03*
%TD*%
D24*
%TO.C,R235*%
X107394466Y-105562520D03*
X107394466Y-103737520D03*
%TD*%
D29*
%TO.C,C66*%
X101289946Y-151333700D03*
X99214946Y-151333700D03*
%TD*%
D33*
%TO.C,D41*%
X105202446Y-53083700D03*
X105202446Y-55133700D03*
%TD*%
D67*
%TO.C,Y1*%
X101077446Y-71883700D03*
X103977446Y-71883700D03*
X103977446Y-69583700D03*
X101077446Y-69583700D03*
%TD*%
D10*
%TO.C,TP58*%
X228275746Y-47462500D03*
%TD*%
%TO.C,TP73*%
X185725746Y-73712499D03*
%TD*%
D22*
%TO.C,J8*%
X76352446Y-100283700D03*
D23*
X70852446Y-100283700D03*
%TD*%
D10*
%TO.C,TP70*%
X185087500Y-61787500D03*
%TD*%
%TO.C,TP69*%
X228275746Y-52537500D03*
%TD*%
%TO.C,TP6*%
X68652446Y-106833700D03*
%TD*%
D68*
%TO.C,U9*%
X105027446Y-81471200D03*
X104527446Y-81471200D03*
X104027446Y-81471200D03*
X103527446Y-81471200D03*
X103027446Y-81471200D03*
X102527446Y-81471200D03*
X102027446Y-81471200D03*
X101527446Y-81471200D03*
X101027446Y-81471200D03*
X100527446Y-81471200D03*
X100027446Y-81471200D03*
X99527446Y-81471200D03*
D69*
X98114946Y-82883700D03*
X98114946Y-83383700D03*
X98114946Y-83883700D03*
X98114946Y-84383700D03*
X98114946Y-84883700D03*
X98114946Y-85383700D03*
X98114946Y-85883700D03*
X98114946Y-86383700D03*
X98114946Y-86883700D03*
X98114946Y-87383700D03*
X98114946Y-87883700D03*
X98114946Y-88383700D03*
D68*
X99527446Y-89796200D03*
X100027446Y-89796200D03*
X100527446Y-89796200D03*
X101027446Y-89796200D03*
X101527446Y-89796200D03*
X102027446Y-89796200D03*
X102527446Y-89796200D03*
X103027446Y-89796200D03*
X103527446Y-89796200D03*
X104027446Y-89796200D03*
X104527446Y-89796200D03*
X105027446Y-89796200D03*
D69*
X106439946Y-88383700D03*
X106439946Y-87883700D03*
X106439946Y-87383700D03*
X106439946Y-86883700D03*
X106439946Y-86383700D03*
X106439946Y-85883700D03*
X106439946Y-85383700D03*
X106439946Y-84883700D03*
X106439946Y-84383700D03*
X106439946Y-83883700D03*
X106439946Y-83383700D03*
X106439946Y-82883700D03*
%TD*%
D32*
%TO.C,T2*%
X194915900Y-47491300D03*
X192426700Y-47491300D03*
X187448300Y-47491300D03*
X184959100Y-47491300D03*
X184959100Y-31133700D03*
X187448300Y-31133700D03*
X192426700Y-31133700D03*
X194915900Y-31133700D03*
%TD*%
D33*
%TO.C,D43*%
X110102446Y-53033700D03*
X110102446Y-55083700D03*
%TD*%
D24*
%TO.C,R231*%
X112994466Y-105562520D03*
X112994466Y-103737520D03*
%TD*%
D10*
%TO.C,TP134*%
X161573192Y-134119118D03*
%TD*%
D47*
%TO.C,J9*%
X81302446Y-100308700D03*
D48*
X81302446Y-102848700D03*
%TD*%
D37*
%TO.C,C177*%
X129322446Y-93856200D03*
X129322446Y-95581200D03*
%TD*%
D25*
%TO.C,R66*%
X233792919Y-47457500D03*
X233792919Y-49282500D03*
%TD*%
D10*
%TO.C,TP89*%
X207500746Y-73962500D03*
%TD*%
D11*
%TO.C,R221*%
X117217596Y-71254820D03*
X115392596Y-71254820D03*
%TD*%
D10*
%TO.C,TP128*%
X161573192Y-140169116D03*
%TD*%
D25*
%TO.C,R178*%
X233490365Y-121077450D03*
X233490365Y-122902450D03*
%TD*%
D70*
%TO.C,U7*%
X122283996Y-67289820D03*
X122283996Y-67924820D03*
X122283996Y-68559820D03*
X122283996Y-69194820D03*
X122283996Y-69829820D03*
X122283996Y-70464820D03*
X122283996Y-71099820D03*
X122283996Y-71734820D03*
X122283996Y-72369820D03*
X122283996Y-73004820D03*
X127592596Y-73004820D03*
X127592596Y-72369820D03*
X127592596Y-71734820D03*
X127592596Y-71099820D03*
X127592596Y-70464820D03*
X127592596Y-69829820D03*
X127592596Y-69194820D03*
X127592596Y-68559820D03*
X127592596Y-67924820D03*
X127592596Y-67289820D03*
%TD*%
D10*
%TO.C,TP95*%
X222723192Y-100119117D03*
%TD*%
%TO.C,TP111*%
X199423192Y-104052450D03*
%TD*%
D11*
%TO.C,R218*%
X117217596Y-67054820D03*
X115392596Y-67054820D03*
%TD*%
D71*
%TO.C,PS2*%
X98937446Y-148923673D03*
X101477446Y-148923673D03*
X106557446Y-148923673D03*
X106557446Y-138723673D03*
X98937446Y-138723673D03*
%TD*%
D10*
%TO.C,TP114*%
X176584946Y-116577450D03*
%TD*%
D25*
%TO.C,R90*%
X233792919Y-57467500D03*
X233792919Y-59292500D03*
%TD*%
D27*
%TO.C,C190*%
X238414946Y-121083700D03*
X235289946Y-121083700D03*
%TD*%
D10*
%TO.C,TP133*%
X161573192Y-138152450D03*
%TD*%
D70*
%TO.C,U6*%
X122088846Y-95428700D03*
X122088846Y-96063700D03*
X122088846Y-96698700D03*
X122088846Y-97333700D03*
X122088846Y-97968700D03*
X122088846Y-98603700D03*
X122088846Y-99238700D03*
X122088846Y-99873700D03*
X122088846Y-100508700D03*
X122088846Y-101143700D03*
X127397446Y-101143700D03*
X127397446Y-100508700D03*
X127397446Y-99873700D03*
X127397446Y-99238700D03*
X127397446Y-98603700D03*
X127397446Y-97968700D03*
X127397446Y-97333700D03*
X127397446Y-96698700D03*
X127397446Y-96063700D03*
X127397446Y-95428700D03*
%TD*%
D10*
%TO.C,TP122*%
X176573192Y-106410783D03*
%TD*%
%TO.C,TP26*%
X223300000Y-43587000D03*
%TD*%
%TO.C,TP91*%
X228275746Y-62487500D03*
%TD*%
D16*
%TO.C,C65*%
X232192919Y-52475000D03*
X232192919Y-50750000D03*
%TD*%
D26*
%TO.C,C54*%
X140912446Y-114933700D03*
X140912446Y-112858700D03*
%TD*%
D16*
%TO.C,C150*%
X231890365Y-126089950D03*
X231890365Y-124364950D03*
%TD*%
D72*
%TO.C,C90*%
X233752446Y-30721200D03*
X233752446Y-33846200D03*
%TD*%
D27*
%TO.C,C189*%
X238414946Y-116083700D03*
X235289946Y-116083700D03*
%TD*%
D16*
%TO.C,C89*%
X232192919Y-62485000D03*
X232192919Y-60760000D03*
%TD*%
D37*
%TO.C,C176*%
X120072446Y-93931200D03*
X120072446Y-95656200D03*
%TD*%
D16*
%TO.C,C14*%
X132102446Y-130846200D03*
X132102446Y-129121200D03*
%TD*%
D25*
%TO.C,R238*%
X112152446Y-121050020D03*
X112152446Y-122875020D03*
%TD*%
D26*
%TO.C,C42*%
X141215000Y-46318750D03*
X141215000Y-44243750D03*
%TD*%
D10*
%TO.C,TP83*%
X207500746Y-71945834D03*
%TD*%
D11*
%TO.C,R122*%
X138952446Y-82183700D03*
X137127446Y-82183700D03*
%TD*%
D41*
%TO.C,D16*%
X214427446Y-48283700D03*
X212377446Y-48283700D03*
%TD*%
M02*
