%TF.GenerationSoftware,KiCad,Pcbnew,(6.0.1)*%
%TF.CreationDate,2022-05-07T21:19:08+10:00*%
%TF.ProjectId,211006_lmu_r0,32313130-3036-45f6-9c6d-755f72302e6b,rev?*%
%TF.SameCoordinates,Original*%
%TF.FileFunction,Paste,Bot*%
%TF.FilePolarity,Positive*%
%FSLAX46Y46*%
G04 Gerber Fmt 4.6, Leading zero omitted, Abs format (unit mm)*
G04 Created by KiCad (PCBNEW (6.0.1)) date 2022-05-07 21:19:08*
%MOMM*%
%LPD*%
G01*
G04 APERTURE LIST*
G04 Aperture macros list*
%AMRoundRect*
0 Rectangle with rounded corners*
0 $1 Rounding radius*
0 $2 $3 $4 $5 $6 $7 $8 $9 X,Y pos of 4 corners*
0 Add a 4 corners polygon primitive as box body*
4,1,4,$2,$3,$4,$5,$6,$7,$8,$9,$2,$3,0*
0 Add four circle primitives for the rounded corners*
1,1,$1+$1,$2,$3*
1,1,$1+$1,$4,$5*
1,1,$1+$1,$6,$7*
1,1,$1+$1,$8,$9*
0 Add four rect primitives between the rounded corners*
20,1,$1+$1,$2,$3,$4,$5,0*
20,1,$1+$1,$4,$5,$6,$7,0*
20,1,$1+$1,$6,$7,$8,$9,0*
20,1,$1+$1,$8,$9,$2,$3,0*%
%AMFreePoly0*
4,1,7,0.350000,-0.950000,-0.350000,-0.950000,-0.350000,0.375000,-1.620000,0.375000,-1.620000,4.475000,0.350000,4.475000,0.350000,-0.950000,0.350000,-0.950000,$1*%
G04 Aperture macros list end*
%ADD10C,0.010000*%
%ADD11RoundRect,0.025600X0.924400X0.134400X-0.924400X0.134400X-0.924400X-0.134400X0.924400X-0.134400X0*%
%ADD12RoundRect,0.237500X0.300000X0.237500X-0.300000X0.237500X-0.300000X-0.237500X0.300000X-0.237500X0*%
%ADD13RoundRect,0.250000X-0.625000X0.400000X-0.625000X-0.400000X0.625000X-0.400000X0.625000X0.400000X0*%
%ADD14RoundRect,0.237500X0.250000X0.237500X-0.250000X0.237500X-0.250000X-0.237500X0.250000X-0.237500X0*%
%ADD15RoundRect,0.237500X0.237500X-0.300000X0.237500X0.300000X-0.237500X0.300000X-0.237500X-0.300000X0*%
%ADD16RoundRect,0.237500X0.237500X-0.250000X0.237500X0.250000X-0.237500X0.250000X-0.237500X-0.250000X0*%
%ADD17RoundRect,0.250000X0.325000X0.450000X-0.325000X0.450000X-0.325000X-0.450000X0.325000X-0.450000X0*%
%ADD18R,4.860000X3.360000*%
%ADD19R,1.400000X1.390000*%
%ADD20RoundRect,0.250000X-0.412500X-0.650000X0.412500X-0.650000X0.412500X0.650000X-0.412500X0.650000X0*%
%ADD21RoundRect,0.237500X-0.300000X-0.237500X0.300000X-0.237500X0.300000X0.237500X-0.300000X0.237500X0*%
%ADD22RoundRect,0.250000X0.400000X0.625000X-0.400000X0.625000X-0.400000X-0.625000X0.400000X-0.625000X0*%
%ADD23RoundRect,0.250000X0.625000X-0.400000X0.625000X0.400000X-0.625000X0.400000X-0.625000X-0.400000X0*%
%ADD24RoundRect,0.250000X-0.400000X-0.625000X0.400000X-0.625000X0.400000X0.625000X-0.400000X0.625000X0*%
%ADD25R,0.700000X1.150000*%
%ADD26FreePoly0,0.000000*%
%ADD27R,0.700000X1.900000*%
%ADD28RoundRect,0.150000X-0.150000X0.587500X-0.150000X-0.587500X0.150000X-0.587500X0.150000X0.587500X0*%
%ADD29RoundRect,0.250000X0.412500X0.650000X-0.412500X0.650000X-0.412500X-0.650000X0.412500X-0.650000X0*%
%ADD30RoundRect,0.237500X-0.237500X0.300000X-0.237500X-0.300000X0.237500X-0.300000X0.237500X0.300000X0*%
%ADD31RoundRect,0.237500X-0.250000X-0.237500X0.250000X-0.237500X0.250000X0.237500X-0.250000X0.237500X0*%
%ADD32RoundRect,0.042000X-0.258000X0.858000X-0.258000X-0.858000X0.258000X-0.858000X0.258000X0.858000X0*%
%ADD33RoundRect,0.237500X-0.237500X0.250000X-0.237500X-0.250000X0.237500X-0.250000X0.237500X0.250000X0*%
%ADD34FreePoly0,180.000000*%
%ADD35RoundRect,0.150000X0.150000X-0.587500X0.150000X0.587500X-0.150000X0.587500X-0.150000X-0.587500X0*%
%ADD36RoundRect,0.250000X0.337500X0.475000X-0.337500X0.475000X-0.337500X-0.475000X0.337500X-0.475000X0*%
%ADD37RoundRect,0.250000X0.450000X-0.350000X0.450000X0.350000X-0.450000X0.350000X-0.450000X-0.350000X0*%
%ADD38RoundRect,0.050000X-0.450000X0.525000X-0.450000X-0.525000X0.450000X-0.525000X0.450000X0.525000X0*%
%ADD39R,3.500000X2.300000*%
%ADD40RoundRect,0.250001X-0.799999X-2.474999X0.799999X-2.474999X0.799999X2.474999X-0.799999X2.474999X0*%
%ADD41RoundRect,0.150000X-0.587500X-0.150000X0.587500X-0.150000X0.587500X0.150000X-0.587500X0.150000X0*%
G04 APERTURE END LIST*
D10*
%TO.C,T17*%
X191955000Y-77950000D02*
X193055000Y-77950000D01*
X193055000Y-77950000D02*
X193055000Y-76950000D01*
X193055000Y-76950000D02*
X191955000Y-76950000D01*
X191955000Y-76950000D02*
X191955000Y-77950000D01*
G36*
X193055000Y-77950000D02*
G01*
X191955000Y-77950000D01*
X191955000Y-76950000D01*
X193055000Y-76950000D01*
X193055000Y-77950000D01*
G37*
X193055000Y-77950000D02*
X191955000Y-77950000D01*
X191955000Y-76950000D01*
X193055000Y-76950000D01*
X193055000Y-77950000D01*
X194495000Y-76150000D02*
X195595000Y-76150000D01*
X195595000Y-76150000D02*
X195595000Y-75150000D01*
X195595000Y-75150000D02*
X194495000Y-75150000D01*
X194495000Y-75150000D02*
X194495000Y-76150000D01*
G36*
X195595000Y-76150000D02*
G01*
X194495000Y-76150000D01*
X194495000Y-75150000D01*
X195595000Y-75150000D01*
X195595000Y-76150000D01*
G37*
X195595000Y-76150000D02*
X194495000Y-76150000D01*
X194495000Y-75150000D01*
X195595000Y-75150000D01*
X195595000Y-76150000D01*
X194495000Y-77950000D02*
X195595000Y-77950000D01*
X195595000Y-77950000D02*
X195595000Y-76950000D01*
X195595000Y-76950000D02*
X194495000Y-76950000D01*
X194495000Y-76950000D02*
X194495000Y-77950000D01*
G36*
X195595000Y-77950000D02*
G01*
X194495000Y-77950000D01*
X194495000Y-76950000D01*
X195595000Y-76950000D01*
X195595000Y-77950000D01*
G37*
X195595000Y-77950000D02*
X194495000Y-77950000D01*
X194495000Y-76950000D01*
X195595000Y-76950000D01*
X195595000Y-77950000D01*
X191955000Y-76150000D02*
X193055000Y-76150000D01*
X193055000Y-76150000D02*
X193055000Y-75150000D01*
X193055000Y-75150000D02*
X191955000Y-75150000D01*
X191955000Y-75150000D02*
X191955000Y-76150000D01*
G36*
X193055000Y-76150000D02*
G01*
X191955000Y-76150000D01*
X191955000Y-75150000D01*
X193055000Y-75150000D01*
X193055000Y-76150000D01*
G37*
X193055000Y-76150000D02*
X191955000Y-76150000D01*
X191955000Y-75150000D01*
X193055000Y-75150000D01*
X193055000Y-76150000D01*
%TO.C,T22*%
X170767446Y-142589950D02*
X171867446Y-142589950D01*
X171867446Y-142589950D02*
X171867446Y-141589950D01*
X171867446Y-141589950D02*
X170767446Y-141589950D01*
X170767446Y-141589950D02*
X170767446Y-142589950D01*
G36*
X171867446Y-142589950D02*
G01*
X170767446Y-142589950D01*
X170767446Y-141589950D01*
X171867446Y-141589950D01*
X171867446Y-142589950D01*
G37*
X171867446Y-142589950D02*
X170767446Y-142589950D01*
X170767446Y-141589950D01*
X171867446Y-141589950D01*
X171867446Y-142589950D01*
X168227446Y-144389950D02*
X169327446Y-144389950D01*
X169327446Y-144389950D02*
X169327446Y-143389950D01*
X169327446Y-143389950D02*
X168227446Y-143389950D01*
X168227446Y-143389950D02*
X168227446Y-144389950D01*
G36*
X169327446Y-144389950D02*
G01*
X168227446Y-144389950D01*
X168227446Y-143389950D01*
X169327446Y-143389950D01*
X169327446Y-144389950D01*
G37*
X169327446Y-144389950D02*
X168227446Y-144389950D01*
X168227446Y-143389950D01*
X169327446Y-143389950D01*
X169327446Y-144389950D01*
X170767446Y-144389950D02*
X171867446Y-144389950D01*
X171867446Y-144389950D02*
X171867446Y-143389950D01*
X171867446Y-143389950D02*
X170767446Y-143389950D01*
X170767446Y-143389950D02*
X170767446Y-144389950D01*
G36*
X171867446Y-144389950D02*
G01*
X170767446Y-144389950D01*
X170767446Y-143389950D01*
X171867446Y-143389950D01*
X171867446Y-144389950D01*
G37*
X171867446Y-144389950D02*
X170767446Y-144389950D01*
X170767446Y-143389950D01*
X171867446Y-143389950D01*
X171867446Y-144389950D01*
X168227446Y-142589950D02*
X169327446Y-142589950D01*
X169327446Y-142589950D02*
X169327446Y-141589950D01*
X169327446Y-141589950D02*
X168227446Y-141589950D01*
X168227446Y-141589950D02*
X168227446Y-142589950D01*
G36*
X169327446Y-142589950D02*
G01*
X168227446Y-142589950D01*
X168227446Y-141589950D01*
X169327446Y-141589950D01*
X169327446Y-142589950D01*
G37*
X169327446Y-142589950D02*
X168227446Y-142589950D01*
X168227446Y-141589950D01*
X169327446Y-141589950D01*
X169327446Y-142589950D01*
%TO.C,T23*%
X194192446Y-144764950D02*
X195292446Y-144764950D01*
X195292446Y-144764950D02*
X195292446Y-143764950D01*
X195292446Y-143764950D02*
X194192446Y-143764950D01*
X194192446Y-143764950D02*
X194192446Y-144764950D01*
G36*
X195292446Y-144764950D02*
G01*
X194192446Y-144764950D01*
X194192446Y-143764950D01*
X195292446Y-143764950D01*
X195292446Y-144764950D01*
G37*
X195292446Y-144764950D02*
X194192446Y-144764950D01*
X194192446Y-143764950D01*
X195292446Y-143764950D01*
X195292446Y-144764950D01*
X194192446Y-146564950D02*
X195292446Y-146564950D01*
X195292446Y-146564950D02*
X195292446Y-145564950D01*
X195292446Y-145564950D02*
X194192446Y-145564950D01*
X194192446Y-145564950D02*
X194192446Y-146564950D01*
G36*
X195292446Y-146564950D02*
G01*
X194192446Y-146564950D01*
X194192446Y-145564950D01*
X195292446Y-145564950D01*
X195292446Y-146564950D01*
G37*
X195292446Y-146564950D02*
X194192446Y-146564950D01*
X194192446Y-145564950D01*
X195292446Y-145564950D01*
X195292446Y-146564950D01*
X191652446Y-144764950D02*
X192752446Y-144764950D01*
X192752446Y-144764950D02*
X192752446Y-143764950D01*
X192752446Y-143764950D02*
X191652446Y-143764950D01*
X191652446Y-143764950D02*
X191652446Y-144764950D01*
G36*
X192752446Y-144764950D02*
G01*
X191652446Y-144764950D01*
X191652446Y-143764950D01*
X192752446Y-143764950D01*
X192752446Y-144764950D01*
G37*
X192752446Y-144764950D02*
X191652446Y-144764950D01*
X191652446Y-143764950D01*
X192752446Y-143764950D01*
X192752446Y-144764950D01*
X191652446Y-146564950D02*
X192752446Y-146564950D01*
X192752446Y-146564950D02*
X192752446Y-145564950D01*
X192752446Y-145564950D02*
X191652446Y-145564950D01*
X191652446Y-145564950D02*
X191652446Y-146564950D01*
G36*
X192752446Y-146564950D02*
G01*
X191652446Y-146564950D01*
X191652446Y-145564950D01*
X192752446Y-145564950D01*
X192752446Y-146564950D01*
G37*
X192752446Y-146564950D02*
X191652446Y-146564950D01*
X191652446Y-145564950D01*
X192752446Y-145564950D01*
X192752446Y-146564950D01*
%TO.C,T21*%
X167177446Y-102214950D02*
X166077446Y-102214950D01*
X166077446Y-102214950D02*
X166077446Y-103214950D01*
X166077446Y-103214950D02*
X167177446Y-103214950D01*
X167177446Y-103214950D02*
X167177446Y-102214950D01*
G36*
X167177446Y-103214950D02*
G01*
X166077446Y-103214950D01*
X166077446Y-102214950D01*
X167177446Y-102214950D01*
X167177446Y-103214950D01*
G37*
X167177446Y-103214950D02*
X166077446Y-103214950D01*
X166077446Y-102214950D01*
X167177446Y-102214950D01*
X167177446Y-103214950D01*
X169717446Y-100414950D02*
X168617446Y-100414950D01*
X168617446Y-100414950D02*
X168617446Y-101414950D01*
X168617446Y-101414950D02*
X169717446Y-101414950D01*
X169717446Y-101414950D02*
X169717446Y-100414950D01*
G36*
X169717446Y-101414950D02*
G01*
X168617446Y-101414950D01*
X168617446Y-100414950D01*
X169717446Y-100414950D01*
X169717446Y-101414950D01*
G37*
X169717446Y-101414950D02*
X168617446Y-101414950D01*
X168617446Y-100414950D01*
X169717446Y-100414950D01*
X169717446Y-101414950D01*
X167177446Y-100414950D02*
X166077446Y-100414950D01*
X166077446Y-100414950D02*
X166077446Y-101414950D01*
X166077446Y-101414950D02*
X167177446Y-101414950D01*
X167177446Y-101414950D02*
X167177446Y-100414950D01*
G36*
X167177446Y-101414950D02*
G01*
X166077446Y-101414950D01*
X166077446Y-100414950D01*
X167177446Y-100414950D01*
X167177446Y-101414950D01*
G37*
X167177446Y-101414950D02*
X166077446Y-101414950D01*
X166077446Y-100414950D01*
X167177446Y-100414950D01*
X167177446Y-101414950D01*
X169717446Y-102214950D02*
X168617446Y-102214950D01*
X168617446Y-102214950D02*
X168617446Y-103214950D01*
X168617446Y-103214950D02*
X169717446Y-103214950D01*
X169717446Y-103214950D02*
X169717446Y-102214950D01*
G36*
X169717446Y-103214950D02*
G01*
X168617446Y-103214950D01*
X168617446Y-102214950D01*
X169717446Y-102214950D01*
X169717446Y-103214950D01*
G37*
X169717446Y-103214950D02*
X168617446Y-103214950D01*
X168617446Y-102214950D01*
X169717446Y-102214950D01*
X169717446Y-103214950D01*
%TO.C,T19*%
X216129946Y-96039450D02*
X215029946Y-96039450D01*
X215029946Y-96039450D02*
X215029946Y-97039450D01*
X215029946Y-97039450D02*
X216129946Y-97039450D01*
X216129946Y-97039450D02*
X216129946Y-96039450D01*
G36*
X216129946Y-97039450D02*
G01*
X215029946Y-97039450D01*
X215029946Y-96039450D01*
X216129946Y-96039450D01*
X216129946Y-97039450D01*
G37*
X216129946Y-97039450D02*
X215029946Y-97039450D01*
X215029946Y-96039450D01*
X216129946Y-96039450D01*
X216129946Y-97039450D01*
X216129946Y-97839450D02*
X215029946Y-97839450D01*
X215029946Y-97839450D02*
X215029946Y-98839450D01*
X215029946Y-98839450D02*
X216129946Y-98839450D01*
X216129946Y-98839450D02*
X216129946Y-97839450D01*
G36*
X216129946Y-98839450D02*
G01*
X215029946Y-98839450D01*
X215029946Y-97839450D01*
X216129946Y-97839450D01*
X216129946Y-98839450D01*
G37*
X216129946Y-98839450D02*
X215029946Y-98839450D01*
X215029946Y-97839450D01*
X216129946Y-97839450D01*
X216129946Y-98839450D01*
X213589946Y-97839450D02*
X212489946Y-97839450D01*
X212489946Y-97839450D02*
X212489946Y-98839450D01*
X212489946Y-98839450D02*
X213589946Y-98839450D01*
X213589946Y-98839450D02*
X213589946Y-97839450D01*
G36*
X213589946Y-98839450D02*
G01*
X212489946Y-98839450D01*
X212489946Y-97839450D01*
X213589946Y-97839450D01*
X213589946Y-98839450D01*
G37*
X213589946Y-98839450D02*
X212489946Y-98839450D01*
X212489946Y-97839450D01*
X213589946Y-97839450D01*
X213589946Y-98839450D01*
X213589946Y-96039450D02*
X212489946Y-96039450D01*
X212489946Y-96039450D02*
X212489946Y-97039450D01*
X212489946Y-97039450D02*
X213589946Y-97039450D01*
X213589946Y-97039450D02*
X213589946Y-96039450D01*
G36*
X213589946Y-97039450D02*
G01*
X212489946Y-97039450D01*
X212489946Y-96039450D01*
X213589946Y-96039450D01*
X213589946Y-97039450D01*
G37*
X213589946Y-97039450D02*
X212489946Y-97039450D01*
X212489946Y-96039450D01*
X213589946Y-96039450D01*
X213589946Y-97039450D01*
%TO.C,T24*%
X216404946Y-147077450D02*
X217504946Y-147077450D01*
X217504946Y-147077450D02*
X217504946Y-146077450D01*
X217504946Y-146077450D02*
X216404946Y-146077450D01*
X216404946Y-146077450D02*
X216404946Y-147077450D01*
G36*
X217504946Y-147077450D02*
G01*
X216404946Y-147077450D01*
X216404946Y-146077450D01*
X217504946Y-146077450D01*
X217504946Y-147077450D01*
G37*
X217504946Y-147077450D02*
X216404946Y-147077450D01*
X216404946Y-146077450D01*
X217504946Y-146077450D01*
X217504946Y-147077450D01*
X213864946Y-148877450D02*
X214964946Y-148877450D01*
X214964946Y-148877450D02*
X214964946Y-147877450D01*
X214964946Y-147877450D02*
X213864946Y-147877450D01*
X213864946Y-147877450D02*
X213864946Y-148877450D01*
G36*
X214964946Y-148877450D02*
G01*
X213864946Y-148877450D01*
X213864946Y-147877450D01*
X214964946Y-147877450D01*
X214964946Y-148877450D01*
G37*
X214964946Y-148877450D02*
X213864946Y-148877450D01*
X213864946Y-147877450D01*
X214964946Y-147877450D01*
X214964946Y-148877450D01*
X213864946Y-147077450D02*
X214964946Y-147077450D01*
X214964946Y-147077450D02*
X214964946Y-146077450D01*
X214964946Y-146077450D02*
X213864946Y-146077450D01*
X213864946Y-146077450D02*
X213864946Y-147077450D01*
G36*
X214964946Y-147077450D02*
G01*
X213864946Y-147077450D01*
X213864946Y-146077450D01*
X214964946Y-146077450D01*
X214964946Y-147077450D01*
G37*
X214964946Y-147077450D02*
X213864946Y-147077450D01*
X213864946Y-146077450D01*
X214964946Y-146077450D01*
X214964946Y-147077450D01*
X216404946Y-148877450D02*
X217504946Y-148877450D01*
X217504946Y-148877450D02*
X217504946Y-147877450D01*
X217504946Y-147877450D02*
X216404946Y-147877450D01*
X216404946Y-147877450D02*
X216404946Y-148877450D01*
G36*
X217504946Y-148877450D02*
G01*
X216404946Y-148877450D01*
X216404946Y-147877450D01*
X217504946Y-147877450D01*
X217504946Y-148877450D01*
G37*
X217504946Y-148877450D02*
X216404946Y-148877450D01*
X216404946Y-147877450D01*
X217504946Y-147877450D01*
X217504946Y-148877450D01*
%TO.C,T15*%
X167480000Y-33600000D02*
X166380000Y-33600000D01*
X166380000Y-33600000D02*
X166380000Y-34600000D01*
X166380000Y-34600000D02*
X167480000Y-34600000D01*
X167480000Y-34600000D02*
X167480000Y-33600000D01*
G36*
X167480000Y-34600000D02*
G01*
X166380000Y-34600000D01*
X166380000Y-33600000D01*
X167480000Y-33600000D01*
X167480000Y-34600000D01*
G37*
X167480000Y-34600000D02*
X166380000Y-34600000D01*
X166380000Y-33600000D01*
X167480000Y-33600000D01*
X167480000Y-34600000D01*
X167480000Y-31800000D02*
X166380000Y-31800000D01*
X166380000Y-31800000D02*
X166380000Y-32800000D01*
X166380000Y-32800000D02*
X167480000Y-32800000D01*
X167480000Y-32800000D02*
X167480000Y-31800000D01*
G36*
X167480000Y-32800000D02*
G01*
X166380000Y-32800000D01*
X166380000Y-31800000D01*
X167480000Y-31800000D01*
X167480000Y-32800000D01*
G37*
X167480000Y-32800000D02*
X166380000Y-32800000D01*
X166380000Y-31800000D01*
X167480000Y-31800000D01*
X167480000Y-32800000D01*
X170020000Y-33600000D02*
X168920000Y-33600000D01*
X168920000Y-33600000D02*
X168920000Y-34600000D01*
X168920000Y-34600000D02*
X170020000Y-34600000D01*
X170020000Y-34600000D02*
X170020000Y-33600000D01*
G36*
X170020000Y-34600000D02*
G01*
X168920000Y-34600000D01*
X168920000Y-33600000D01*
X170020000Y-33600000D01*
X170020000Y-34600000D01*
G37*
X170020000Y-34600000D02*
X168920000Y-34600000D01*
X168920000Y-33600000D01*
X170020000Y-33600000D01*
X170020000Y-34600000D01*
X170020000Y-31800000D02*
X168920000Y-31800000D01*
X168920000Y-31800000D02*
X168920000Y-32800000D01*
X168920000Y-32800000D02*
X170020000Y-32800000D01*
X170020000Y-32800000D02*
X170020000Y-31800000D01*
G36*
X170020000Y-32800000D02*
G01*
X168920000Y-32800000D01*
X168920000Y-31800000D01*
X170020000Y-31800000D01*
X170020000Y-32800000D01*
G37*
X170020000Y-32800000D02*
X168920000Y-32800000D01*
X168920000Y-31800000D01*
X170020000Y-31800000D01*
X170020000Y-32800000D01*
%TO.C,T13*%
X216432500Y-27424500D02*
X215332500Y-27424500D01*
X215332500Y-27424500D02*
X215332500Y-28424500D01*
X215332500Y-28424500D02*
X216432500Y-28424500D01*
X216432500Y-28424500D02*
X216432500Y-27424500D01*
G36*
X216432500Y-28424500D02*
G01*
X215332500Y-28424500D01*
X215332500Y-27424500D01*
X216432500Y-27424500D01*
X216432500Y-28424500D01*
G37*
X216432500Y-28424500D02*
X215332500Y-28424500D01*
X215332500Y-27424500D01*
X216432500Y-27424500D01*
X216432500Y-28424500D01*
X216432500Y-29224500D02*
X215332500Y-29224500D01*
X215332500Y-29224500D02*
X215332500Y-30224500D01*
X215332500Y-30224500D02*
X216432500Y-30224500D01*
X216432500Y-30224500D02*
X216432500Y-29224500D01*
G36*
X216432500Y-30224500D02*
G01*
X215332500Y-30224500D01*
X215332500Y-29224500D01*
X216432500Y-29224500D01*
X216432500Y-30224500D01*
G37*
X216432500Y-30224500D02*
X215332500Y-30224500D01*
X215332500Y-29224500D01*
X216432500Y-29224500D01*
X216432500Y-30224500D01*
X213892500Y-29224500D02*
X212792500Y-29224500D01*
X212792500Y-29224500D02*
X212792500Y-30224500D01*
X212792500Y-30224500D02*
X213892500Y-30224500D01*
X213892500Y-30224500D02*
X213892500Y-29224500D01*
G36*
X213892500Y-30224500D02*
G01*
X212792500Y-30224500D01*
X212792500Y-29224500D01*
X213892500Y-29224500D01*
X213892500Y-30224500D01*
G37*
X213892500Y-30224500D02*
X212792500Y-30224500D01*
X212792500Y-29224500D01*
X213892500Y-29224500D01*
X213892500Y-30224500D01*
X213892500Y-27424500D02*
X212792500Y-27424500D01*
X212792500Y-27424500D02*
X212792500Y-28424500D01*
X212792500Y-28424500D02*
X213892500Y-28424500D01*
X213892500Y-28424500D02*
X213892500Y-27424500D01*
G36*
X213892500Y-28424500D02*
G01*
X212792500Y-28424500D01*
X212792500Y-27424500D01*
X213892500Y-27424500D01*
X213892500Y-28424500D01*
G37*
X213892500Y-28424500D02*
X212792500Y-28424500D01*
X212792500Y-27424500D01*
X213892500Y-27424500D01*
X213892500Y-28424500D01*
%TO.C,T18*%
X216707500Y-80262500D02*
X217807500Y-80262500D01*
X217807500Y-80262500D02*
X217807500Y-79262500D01*
X217807500Y-79262500D02*
X216707500Y-79262500D01*
X216707500Y-79262500D02*
X216707500Y-80262500D01*
G36*
X217807500Y-80262500D02*
G01*
X216707500Y-80262500D01*
X216707500Y-79262500D01*
X217807500Y-79262500D01*
X217807500Y-80262500D01*
G37*
X217807500Y-80262500D02*
X216707500Y-80262500D01*
X216707500Y-79262500D01*
X217807500Y-79262500D01*
X217807500Y-80262500D01*
X216707500Y-78462500D02*
X217807500Y-78462500D01*
X217807500Y-78462500D02*
X217807500Y-77462500D01*
X217807500Y-77462500D02*
X216707500Y-77462500D01*
X216707500Y-77462500D02*
X216707500Y-78462500D01*
G36*
X217807500Y-78462500D02*
G01*
X216707500Y-78462500D01*
X216707500Y-77462500D01*
X217807500Y-77462500D01*
X217807500Y-78462500D01*
G37*
X217807500Y-78462500D02*
X216707500Y-78462500D01*
X216707500Y-77462500D01*
X217807500Y-77462500D01*
X217807500Y-78462500D01*
X214167500Y-80262500D02*
X215267500Y-80262500D01*
X215267500Y-80262500D02*
X215267500Y-79262500D01*
X215267500Y-79262500D02*
X214167500Y-79262500D01*
X214167500Y-79262500D02*
X214167500Y-80262500D01*
G36*
X215267500Y-80262500D02*
G01*
X214167500Y-80262500D01*
X214167500Y-79262500D01*
X215267500Y-79262500D01*
X215267500Y-80262500D01*
G37*
X215267500Y-80262500D02*
X214167500Y-80262500D01*
X214167500Y-79262500D01*
X215267500Y-79262500D01*
X215267500Y-80262500D01*
X214167500Y-78462500D02*
X215267500Y-78462500D01*
X215267500Y-78462500D02*
X215267500Y-77462500D01*
X215267500Y-77462500D02*
X214167500Y-77462500D01*
X214167500Y-77462500D02*
X214167500Y-78462500D01*
G36*
X215267500Y-78462500D02*
G01*
X214167500Y-78462500D01*
X214167500Y-77462500D01*
X215267500Y-77462500D01*
X215267500Y-78462500D01*
G37*
X215267500Y-78462500D02*
X214167500Y-78462500D01*
X214167500Y-77462500D01*
X215267500Y-77462500D01*
X215267500Y-78462500D01*
%TO.C,T16*%
X168530000Y-73975000D02*
X169630000Y-73975000D01*
X169630000Y-73975000D02*
X169630000Y-72975000D01*
X169630000Y-72975000D02*
X168530000Y-72975000D01*
X168530000Y-72975000D02*
X168530000Y-73975000D01*
G36*
X169630000Y-73975000D02*
G01*
X168530000Y-73975000D01*
X168530000Y-72975000D01*
X169630000Y-72975000D01*
X169630000Y-73975000D01*
G37*
X169630000Y-73975000D02*
X168530000Y-73975000D01*
X168530000Y-72975000D01*
X169630000Y-72975000D01*
X169630000Y-73975000D01*
X171070000Y-73975000D02*
X172170000Y-73975000D01*
X172170000Y-73975000D02*
X172170000Y-72975000D01*
X172170000Y-72975000D02*
X171070000Y-72975000D01*
X171070000Y-72975000D02*
X171070000Y-73975000D01*
G36*
X172170000Y-73975000D02*
G01*
X171070000Y-73975000D01*
X171070000Y-72975000D01*
X172170000Y-72975000D01*
X172170000Y-73975000D01*
G37*
X172170000Y-73975000D02*
X171070000Y-73975000D01*
X171070000Y-72975000D01*
X172170000Y-72975000D01*
X172170000Y-73975000D01*
X171070000Y-75775000D02*
X172170000Y-75775000D01*
X172170000Y-75775000D02*
X172170000Y-74775000D01*
X172170000Y-74775000D02*
X171070000Y-74775000D01*
X171070000Y-74775000D02*
X171070000Y-75775000D01*
G36*
X172170000Y-75775000D02*
G01*
X171070000Y-75775000D01*
X171070000Y-74775000D01*
X172170000Y-74775000D01*
X172170000Y-75775000D01*
G37*
X172170000Y-75775000D02*
X171070000Y-75775000D01*
X171070000Y-74775000D01*
X172170000Y-74775000D01*
X172170000Y-75775000D01*
X168530000Y-75775000D02*
X169630000Y-75775000D01*
X169630000Y-75775000D02*
X169630000Y-74775000D01*
X169630000Y-74775000D02*
X168530000Y-74775000D01*
X168530000Y-74775000D02*
X168530000Y-75775000D01*
G36*
X169630000Y-75775000D02*
G01*
X168530000Y-75775000D01*
X168530000Y-74775000D01*
X169630000Y-74775000D01*
X169630000Y-75775000D01*
G37*
X169630000Y-75775000D02*
X168530000Y-75775000D01*
X168530000Y-74775000D01*
X169630000Y-74775000D01*
X169630000Y-75775000D01*
%TO.C,T14*%
X190530000Y-31400000D02*
X189430000Y-31400000D01*
X189430000Y-31400000D02*
X189430000Y-32400000D01*
X189430000Y-32400000D02*
X190530000Y-32400000D01*
X190530000Y-32400000D02*
X190530000Y-31400000D01*
G36*
X190530000Y-32400000D02*
G01*
X189430000Y-32400000D01*
X189430000Y-31400000D01*
X190530000Y-31400000D01*
X190530000Y-32400000D01*
G37*
X190530000Y-32400000D02*
X189430000Y-32400000D01*
X189430000Y-31400000D01*
X190530000Y-31400000D01*
X190530000Y-32400000D01*
X190530000Y-29600000D02*
X189430000Y-29600000D01*
X189430000Y-29600000D02*
X189430000Y-30600000D01*
X189430000Y-30600000D02*
X190530000Y-30600000D01*
X190530000Y-30600000D02*
X190530000Y-29600000D01*
G36*
X190530000Y-30600000D02*
G01*
X189430000Y-30600000D01*
X189430000Y-29600000D01*
X190530000Y-29600000D01*
X190530000Y-30600000D01*
G37*
X190530000Y-30600000D02*
X189430000Y-30600000D01*
X189430000Y-29600000D01*
X190530000Y-29600000D01*
X190530000Y-30600000D01*
X193070000Y-31400000D02*
X191970000Y-31400000D01*
X191970000Y-31400000D02*
X191970000Y-32400000D01*
X191970000Y-32400000D02*
X193070000Y-32400000D01*
X193070000Y-32400000D02*
X193070000Y-31400000D01*
G36*
X193070000Y-32400000D02*
G01*
X191970000Y-32400000D01*
X191970000Y-31400000D01*
X193070000Y-31400000D01*
X193070000Y-32400000D01*
G37*
X193070000Y-32400000D02*
X191970000Y-32400000D01*
X191970000Y-31400000D01*
X193070000Y-31400000D01*
X193070000Y-32400000D01*
X193070000Y-29600000D02*
X191970000Y-29600000D01*
X191970000Y-29600000D02*
X191970000Y-30600000D01*
X191970000Y-30600000D02*
X193070000Y-30600000D01*
X193070000Y-30600000D02*
X193070000Y-29600000D01*
G36*
X193070000Y-30600000D02*
G01*
X191970000Y-30600000D01*
X191970000Y-29600000D01*
X193070000Y-29600000D01*
X193070000Y-30600000D01*
G37*
X193070000Y-30600000D02*
X191970000Y-30600000D01*
X191970000Y-29600000D01*
X193070000Y-29600000D01*
X193070000Y-30600000D01*
%TO.C,T20*%
X190227446Y-98214950D02*
X189127446Y-98214950D01*
X189127446Y-98214950D02*
X189127446Y-99214950D01*
X189127446Y-99214950D02*
X190227446Y-99214950D01*
X190227446Y-99214950D02*
X190227446Y-98214950D01*
G36*
X190227446Y-99214950D02*
G01*
X189127446Y-99214950D01*
X189127446Y-98214950D01*
X190227446Y-98214950D01*
X190227446Y-99214950D01*
G37*
X190227446Y-99214950D02*
X189127446Y-99214950D01*
X189127446Y-98214950D01*
X190227446Y-98214950D01*
X190227446Y-99214950D01*
X192767446Y-98214950D02*
X191667446Y-98214950D01*
X191667446Y-98214950D02*
X191667446Y-99214950D01*
X191667446Y-99214950D02*
X192767446Y-99214950D01*
X192767446Y-99214950D02*
X192767446Y-98214950D01*
G36*
X192767446Y-99214950D02*
G01*
X191667446Y-99214950D01*
X191667446Y-98214950D01*
X192767446Y-98214950D01*
X192767446Y-99214950D01*
G37*
X192767446Y-99214950D02*
X191667446Y-99214950D01*
X191667446Y-98214950D01*
X192767446Y-98214950D01*
X192767446Y-99214950D01*
X192767446Y-100014950D02*
X191667446Y-100014950D01*
X191667446Y-100014950D02*
X191667446Y-101014950D01*
X191667446Y-101014950D02*
X192767446Y-101014950D01*
X192767446Y-101014950D02*
X192767446Y-100014950D01*
G36*
X192767446Y-101014950D02*
G01*
X191667446Y-101014950D01*
X191667446Y-100014950D01*
X192767446Y-100014950D01*
X192767446Y-101014950D01*
G37*
X192767446Y-101014950D02*
X191667446Y-101014950D01*
X191667446Y-100014950D01*
X192767446Y-100014950D01*
X192767446Y-101014950D01*
X190227446Y-100014950D02*
X189127446Y-100014950D01*
X189127446Y-100014950D02*
X189127446Y-101014950D01*
X189127446Y-101014950D02*
X190227446Y-101014950D01*
X190227446Y-101014950D02*
X190227446Y-100014950D01*
G36*
X190227446Y-101014950D02*
G01*
X189127446Y-101014950D01*
X189127446Y-100014950D01*
X190227446Y-100014950D01*
X190227446Y-101014950D01*
G37*
X190227446Y-101014950D02*
X189127446Y-101014950D01*
X189127446Y-100014950D01*
X190227446Y-100014950D01*
X190227446Y-101014950D01*
%TD*%
D11*
%TO.C,U3*%
X143027446Y-87533700D03*
X136017446Y-87533700D03*
X143027446Y-87033700D03*
X143027446Y-86533700D03*
X143027446Y-86033700D03*
X143027446Y-85533700D03*
X143027446Y-85033700D03*
X143027446Y-84533700D03*
X143027446Y-84033700D03*
X143027446Y-83533700D03*
X143027446Y-83033700D03*
X143027446Y-82533700D03*
X143027446Y-82033700D03*
X136017446Y-87033700D03*
X136017446Y-86533700D03*
X136017446Y-86033700D03*
X136017446Y-85533700D03*
X136017446Y-85033700D03*
X136017446Y-84533700D03*
X136017446Y-84033700D03*
X136017446Y-83533700D03*
X136017446Y-83033700D03*
X136017446Y-82533700D03*
X136017446Y-82033700D03*
X143027446Y-88033700D03*
X143027446Y-88533700D03*
X143027446Y-89033700D03*
X143027446Y-89533700D03*
X143027446Y-90033700D03*
X143027446Y-90533700D03*
X143027446Y-91033700D03*
X143027446Y-91533700D03*
X143027446Y-92033700D03*
X143027446Y-92533700D03*
X143027446Y-93033700D03*
X143027446Y-93533700D03*
X136017446Y-88033700D03*
X136017446Y-88533700D03*
X136017446Y-89033700D03*
X136017446Y-89533700D03*
X136017446Y-90033700D03*
X136017446Y-90533700D03*
X136017446Y-91033700D03*
X136017446Y-91533700D03*
X136017446Y-92033700D03*
X136017446Y-92533700D03*
X136017446Y-93033700D03*
X136017446Y-93533700D03*
%TD*%
D12*
%TO.C,C156*%
X187647446Y-144102450D03*
X185922446Y-144102450D03*
%TD*%
D13*
%TO.C,R36*%
X224250000Y-30037000D03*
X224250000Y-33137000D03*
%TD*%
D14*
%TO.C,R7*%
X118077446Y-137683700D03*
X116252446Y-137683700D03*
%TD*%
D15*
%TO.C,C72*%
X178775000Y-74237500D03*
X178775000Y-72512500D03*
%TD*%
D16*
%TO.C,R115*%
X141512446Y-112758700D03*
X141512446Y-110933700D03*
%TD*%
D17*
%TO.C,F10*%
X238052392Y-118018700D03*
X236002392Y-118018700D03*
%TD*%
D12*
%TO.C,C27*%
X132214946Y-89483700D03*
X130489946Y-89483700D03*
%TD*%
D18*
%TO.C,D19*%
X177763500Y-41812500D03*
D19*
X173781500Y-42732500D03*
X173781500Y-40892500D03*
%TD*%
D14*
%TO.C,R19*%
X143277446Y-137683700D03*
X141452446Y-137683700D03*
%TD*%
D15*
%TO.C,C130*%
X175434946Y-106439950D03*
X175434946Y-104714950D03*
%TD*%
D16*
%TO.C,R94*%
X215187500Y-73975000D03*
X215187500Y-72150000D03*
%TD*%
D20*
%TO.C,C97*%
X221325000Y-69700000D03*
X224450000Y-69700000D03*
%TD*%
D21*
%TO.C,C47*%
X197075000Y-32062500D03*
X198800000Y-32062500D03*
%TD*%
D22*
%TO.C,R173*%
X167509946Y-137977450D03*
X164409946Y-137977450D03*
%TD*%
D12*
%TO.C,C23*%
X143177446Y-140583700D03*
X141452446Y-140583700D03*
%TD*%
D23*
%TO.C,R75*%
X173062500Y-69512500D03*
X173062500Y-66412500D03*
%TD*%
D24*
%TO.C,R137*%
X216847446Y-102451950D03*
X219947446Y-102451950D03*
%TD*%
D20*
%TO.C,C129*%
X173472446Y-116627450D03*
X176597446Y-116627450D03*
%TD*%
D25*
%TO.C,T17*%
X191870000Y-73625000D03*
X193140000Y-73625000D03*
X194410000Y-73625000D03*
X195680000Y-73625000D03*
D26*
X195680000Y-79400000D03*
D27*
X194410000Y-79400000D03*
D26*
X193140000Y-79400000D03*
D27*
X191870000Y-79400000D03*
%TD*%
D20*
%TO.C,C104*%
X219884946Y-109751950D03*
X223009946Y-109751950D03*
%TD*%
D12*
%TO.C,C71*%
X164525000Y-73312500D03*
X162800000Y-73312500D03*
%TD*%
D28*
%TO.C,Q5*%
X191612500Y-43275000D03*
X193512500Y-43275000D03*
X192562500Y-45150000D03*
%TD*%
D29*
%TO.C,C70*%
X164775000Y-57062500D03*
X161650000Y-57062500D03*
%TD*%
D13*
%TO.C,R91*%
X215750000Y-59400000D03*
X215750000Y-62500000D03*
%TD*%
D12*
%TO.C,C21*%
X134777446Y-140583700D03*
X133052446Y-140583700D03*
%TD*%
D29*
%TO.C,C64*%
X162862500Y-47362500D03*
X159737500Y-47362500D03*
%TD*%
D30*
%TO.C,C60*%
X159775000Y-33337500D03*
X159775000Y-35062500D03*
%TD*%
D23*
%TO.C,R175*%
X172759946Y-138127450D03*
X172759946Y-135027450D03*
%TD*%
D31*
%TO.C,R141*%
X208997446Y-100364450D03*
X210822446Y-100364450D03*
%TD*%
D14*
%TO.C,R171*%
X166784946Y-140089950D03*
X164959946Y-140089950D03*
%TD*%
D13*
%TO.C,R252*%
X128202446Y-92483700D03*
X128202446Y-95583700D03*
%TD*%
D29*
%TO.C,C152*%
X187897446Y-132852450D03*
X184772446Y-132852450D03*
%TD*%
%TO.C,C61*%
X162862500Y-42362500D03*
X159737500Y-42362500D03*
%TD*%
D21*
%TO.C,C108*%
X220134946Y-98501950D03*
X221859946Y-98501950D03*
%TD*%
D31*
%TO.C,R159*%
X171159946Y-104714950D03*
X172984946Y-104714950D03*
%TD*%
D32*
%TO.C,U2*%
X97047446Y-108053700D03*
X98317446Y-108053700D03*
X99587446Y-108053700D03*
X100857446Y-108053700D03*
X100857446Y-118713700D03*
X99587446Y-118713700D03*
X98317446Y-118713700D03*
X97047446Y-118713700D03*
%TD*%
D16*
%TO.C,R129*%
X142312446Y-122758700D03*
X142312446Y-120933700D03*
%TD*%
D18*
%TO.C,D15*%
X224176000Y-37437000D03*
D19*
X220194000Y-38357000D03*
X220194000Y-36517000D03*
%TD*%
D20*
%TO.C,C100*%
X221325000Y-64700000D03*
X224450000Y-64700000D03*
%TD*%
D13*
%TO.C,R67*%
X170112500Y-54912500D03*
X170112500Y-58012500D03*
%TD*%
D22*
%TO.C,R197*%
X213147446Y-142464950D03*
X210047446Y-142464950D03*
%TD*%
D16*
%TO.C,R114*%
X143062446Y-108758700D03*
X143062446Y-106933700D03*
%TD*%
D14*
%TO.C,R57*%
X167075000Y-45412500D03*
X165250000Y-45412500D03*
%TD*%
D22*
%TO.C,R73*%
X167812500Y-69362500D03*
X164712500Y-69362500D03*
%TD*%
D25*
%TO.C,T22*%
X168142446Y-140064950D03*
X169412446Y-140064950D03*
X170682446Y-140064950D03*
X171952446Y-140064950D03*
D26*
X171952446Y-145839950D03*
D27*
X170682446Y-145839950D03*
D26*
X169412446Y-145839950D03*
D27*
X168142446Y-145839950D03*
%TD*%
D31*
%TO.C,R81*%
X194900000Y-64337500D03*
X196725000Y-64337500D03*
%TD*%
D21*
%TO.C,C174*%
X138727446Y-95633700D03*
X140452446Y-95633700D03*
%TD*%
D29*
%TO.C,C137*%
X162559946Y-115977450D03*
X159434946Y-115977450D03*
%TD*%
%TO.C,C110*%
X208972446Y-106601950D03*
X205847446Y-106601950D03*
%TD*%
D16*
%TO.C,R140*%
X213609946Y-104126950D03*
X213609946Y-102301950D03*
%TD*%
D17*
%TO.C,F7*%
X238349946Y-64285000D03*
X236299946Y-64285000D03*
%TD*%
D31*
%TO.C,R22*%
X130439946Y-86483700D03*
X132264946Y-86483700D03*
%TD*%
D14*
%TO.C,R21*%
X147477446Y-137683700D03*
X145652446Y-137683700D03*
%TD*%
D30*
%TO.C,C69*%
X162812500Y-69750000D03*
X162812500Y-71475000D03*
%TD*%
D33*
%TO.C,R146*%
X191747446Y-104502450D03*
X191747446Y-106327450D03*
%TD*%
D25*
%TO.C,T23*%
X191567446Y-142239950D03*
X192837446Y-142239950D03*
X194107446Y-142239950D03*
X195377446Y-142239950D03*
D26*
X195377446Y-148014950D03*
D27*
X194107446Y-148014950D03*
D26*
X192837446Y-148014950D03*
D27*
X191567446Y-148014950D03*
%TD*%
D20*
%TO.C,C85*%
X199112500Y-67387500D03*
X202237500Y-67387500D03*
%TD*%
D14*
%TO.C,R83*%
X190512500Y-73650000D03*
X188687500Y-73650000D03*
%TD*%
D17*
%TO.C,F6*%
X238349946Y-59285000D03*
X236299946Y-59285000D03*
%TD*%
D23*
%TO.C,R198*%
X224109946Y-143577450D03*
X224109946Y-140477450D03*
%TD*%
D14*
%TO.C,R201*%
X220997446Y-144552450D03*
X219172446Y-144552450D03*
%TD*%
D12*
%TO.C,C144*%
X164222446Y-141927450D03*
X162497446Y-141927450D03*
%TD*%
D24*
%TO.C,R149*%
X193484946Y-104627450D03*
X196584946Y-104627450D03*
%TD*%
D29*
%TO.C,C52*%
X185912500Y-45162500D03*
X182787500Y-45162500D03*
%TD*%
D15*
%TO.C,C118*%
X198484946Y-104239950D03*
X198484946Y-102514950D03*
%TD*%
D16*
%TO.C,R194*%
X214884946Y-142589950D03*
X214884946Y-140764950D03*
%TD*%
D29*
%TO.C,C167*%
X210109946Y-130164950D03*
X206984946Y-130164950D03*
%TD*%
D15*
%TO.C,C169*%
X224109946Y-147339950D03*
X224109946Y-145614950D03*
%TD*%
D25*
%TO.C,T21*%
X169802446Y-104739950D03*
X168532446Y-104739950D03*
X167262446Y-104739950D03*
X165992446Y-104739950D03*
D34*
X165992446Y-98964950D03*
D27*
X167262446Y-98964950D03*
D34*
X168532446Y-98964950D03*
D27*
X169802446Y-98964950D03*
%TD*%
D20*
%TO.C,C116*%
X196522446Y-111927450D03*
X199647446Y-111927450D03*
%TD*%
D29*
%TO.C,C113*%
X208972446Y-111601950D03*
X205847446Y-111601950D03*
%TD*%
D33*
%TO.C,R5*%
X72702446Y-143571200D03*
X72702446Y-145396200D03*
%TD*%
D31*
%TO.C,R181*%
X194597446Y-132952450D03*
X196422446Y-132952450D03*
%TD*%
D12*
%TO.C,C8*%
X84714946Y-145583700D03*
X82989946Y-145583700D03*
%TD*%
D23*
%TO.C,R174*%
X178472446Y-139089950D03*
X178472446Y-135989950D03*
%TD*%
%TO.C,R98*%
X224412500Y-74962500D03*
X224412500Y-71862500D03*
%TD*%
D22*
%TO.C,R185*%
X190934946Y-140152450D03*
X187834946Y-140152450D03*
%TD*%
D29*
%TO.C,C80*%
X188200000Y-61737500D03*
X185075000Y-61737500D03*
%TD*%
D15*
%TO.C,C50*%
X190575000Y-41125000D03*
X190575000Y-39400000D03*
%TD*%
D35*
%TO.C,Q17*%
X215625000Y-66587500D03*
X213725000Y-66587500D03*
X214675000Y-64712500D03*
%TD*%
D12*
%TO.C,C25*%
X132214946Y-87983700D03*
X130489946Y-87983700D03*
%TD*%
D15*
%TO.C,C45*%
X198787500Y-35625000D03*
X198787500Y-33900000D03*
%TD*%
D25*
%TO.C,T19*%
X216214946Y-100364450D03*
X214944946Y-100364450D03*
X213674946Y-100364450D03*
X212404946Y-100364450D03*
D34*
X212404946Y-94589450D03*
D27*
X213674946Y-94589450D03*
D34*
X214944946Y-94589450D03*
D27*
X216214946Y-94589450D03*
%TD*%
D20*
%TO.C,C58*%
X173775000Y-50512500D03*
X176900000Y-50512500D03*
%TD*%
D14*
%TO.C,R157*%
X166772446Y-114027450D03*
X164947446Y-114027450D03*
%TD*%
D16*
%TO.C,R182*%
X192672446Y-140277450D03*
X192672446Y-138452450D03*
%TD*%
D20*
%TO.C,C56*%
X173775000Y-48012500D03*
X176900000Y-48012500D03*
%TD*%
D14*
%TO.C,R133*%
X213184946Y-109651950D03*
X211359946Y-109651950D03*
%TD*%
D16*
%TO.C,R107*%
X141802500Y-44193750D03*
X141802500Y-42368750D03*
%TD*%
D36*
%TO.C,C4*%
X90864946Y-119108700D03*
X88789946Y-119108700D03*
%TD*%
D23*
%TO.C,R155*%
X168134946Y-121277450D03*
X168134946Y-118177450D03*
%TD*%
D29*
%TO.C,C136*%
X162559946Y-113477450D03*
X159434946Y-113477450D03*
%TD*%
D20*
%TO.C,C173*%
X221022446Y-133314950D03*
X224147446Y-133314950D03*
%TD*%
D25*
%TO.C,T24*%
X213779946Y-144552450D03*
X215049946Y-144552450D03*
X216319946Y-144552450D03*
X217589946Y-144552450D03*
D26*
X217589946Y-150327450D03*
D27*
X216319946Y-150327450D03*
D26*
X215049946Y-150327450D03*
D27*
X213779946Y-150327450D03*
%TD*%
D17*
%TO.C,F9*%
X238052392Y-112938700D03*
X236002392Y-112938700D03*
%TD*%
D16*
%TO.C,R70*%
X169550000Y-69487500D03*
X169550000Y-67662500D03*
%TD*%
D35*
%TO.C,Q14*%
X193412500Y-64275000D03*
X191512500Y-64275000D03*
X192462500Y-62400000D03*
%TD*%
D23*
%TO.C,R143*%
X191184946Y-119077450D03*
X191184946Y-115977450D03*
%TD*%
D12*
%TO.C,C24*%
X147377446Y-140583700D03*
X145652446Y-140583700D03*
%TD*%
D23*
%TO.C,R199*%
X218397446Y-142614950D03*
X218397446Y-139514950D03*
%TD*%
D16*
%TO.C,R130*%
X143862446Y-122758700D03*
X143862446Y-120933700D03*
%TD*%
%TO.C,R103*%
X144952500Y-44193750D03*
X144952500Y-42368750D03*
%TD*%
D21*
%TO.C,C132*%
X173722446Y-102877450D03*
X175447446Y-102877450D03*
%TD*%
D29*
%TO.C,C49*%
X185912500Y-40162500D03*
X182787500Y-40162500D03*
%TD*%
D25*
%TO.C,T15*%
X170105000Y-36125000D03*
X168835000Y-36125000D03*
X167565000Y-36125000D03*
X166295000Y-36125000D03*
D34*
X166295000Y-30350000D03*
D27*
X167565000Y-30350000D03*
D34*
X168835000Y-30350000D03*
D27*
X170105000Y-30350000D03*
%TD*%
D13*
%TO.C,R151*%
X188234946Y-104477450D03*
X188234946Y-107577450D03*
%TD*%
D31*
%TO.C,R6*%
X116252446Y-139133700D03*
X118077446Y-139133700D03*
%TD*%
%TO.C,R153*%
X185634946Y-102539950D03*
X187459946Y-102539950D03*
%TD*%
D16*
%TO.C,R203*%
X78877446Y-89846200D03*
X78877446Y-88021200D03*
%TD*%
D12*
%TO.C,C168*%
X209859946Y-146414950D03*
X208134946Y-146414950D03*
%TD*%
D13*
%TO.C,R48*%
X200887500Y-32212500D03*
X200887500Y-35312500D03*
%TD*%
D31*
%TO.C,R147*%
X194209946Y-102514950D03*
X196034946Y-102514950D03*
%TD*%
D23*
%TO.C,R172*%
X160409946Y-141777450D03*
X160409946Y-138677450D03*
%TD*%
D29*
%TO.C,C82*%
X188200000Y-59237500D03*
X185075000Y-59237500D03*
%TD*%
D33*
%TO.C,R180*%
X195734946Y-129289950D03*
X195734946Y-131114950D03*
%TD*%
D16*
%TO.C,R110*%
X140202500Y-40118750D03*
X140202500Y-38293750D03*
%TD*%
D20*
%TO.C,C148*%
X175384946Y-131327450D03*
X178509946Y-131327450D03*
%TD*%
D14*
%TO.C,R183*%
X190209946Y-142264950D03*
X188384946Y-142264950D03*
%TD*%
D21*
%TO.C,C35*%
X220437500Y-29887000D03*
X222162500Y-29887000D03*
%TD*%
D29*
%TO.C,C164*%
X210109946Y-135164950D03*
X206984946Y-135164950D03*
%TD*%
D14*
%TO.C,R101*%
X221300000Y-75937500D03*
X219475000Y-75937500D03*
%TD*%
D18*
%TO.C,D21*%
X160786500Y-65762500D03*
D19*
X164768500Y-64842500D03*
X164768500Y-66682500D03*
%TD*%
D33*
%TO.C,R76*%
X171050000Y-67687500D03*
X171050000Y-69512500D03*
%TD*%
D16*
%TO.C,R113*%
X143062446Y-112758700D03*
X143062446Y-110933700D03*
%TD*%
D20*
%TO.C,C170*%
X221022446Y-138314950D03*
X224147446Y-138314950D03*
%TD*%
D33*
%TO.C,R28*%
X146165000Y-51418750D03*
X146165000Y-53243750D03*
%TD*%
D17*
%TO.C,F2*%
X238349946Y-39285000D03*
X236299946Y-39285000D03*
%TD*%
D35*
%TO.C,Q35*%
X215322446Y-135202450D03*
X213422446Y-135202450D03*
X214372446Y-133327450D03*
%TD*%
D21*
%TO.C,C120*%
X196772446Y-100677450D03*
X198497446Y-100677450D03*
%TD*%
D33*
%TO.C,R100*%
X216687500Y-72175000D03*
X216687500Y-74000000D03*
%TD*%
D13*
%TO.C,R50*%
X182825000Y-34900000D03*
X182825000Y-38000000D03*
%TD*%
D20*
%TO.C,C55*%
X173775000Y-45512500D03*
X176900000Y-45512500D03*
%TD*%
D23*
%TO.C,R74*%
X178775000Y-70475000D03*
X178775000Y-67375000D03*
%TD*%
D37*
%TO.C,R24*%
X127552446Y-87783700D03*
X127552446Y-85783700D03*
%TD*%
D28*
%TO.C,Q23*%
X191309946Y-111889950D03*
X193209946Y-111889950D03*
X192259946Y-113764950D03*
%TD*%
D31*
%TO.C,R35*%
X217875000Y-31724500D03*
X219700000Y-31724500D03*
%TD*%
D37*
%TO.C,R23*%
X127552446Y-84033700D03*
X127552446Y-82033700D03*
%TD*%
D29*
%TO.C,C37*%
X209275000Y-37987000D03*
X206150000Y-37987000D03*
%TD*%
D20*
%TO.C,C75*%
X175687500Y-62712500D03*
X178812500Y-62712500D03*
%TD*%
D28*
%TO.C,Q2*%
X214975000Y-41099500D03*
X216875000Y-41099500D03*
X215925000Y-42974500D03*
%TD*%
D38*
%TO.C,L2*%
X84662446Y-147468700D03*
X88342446Y-147468700D03*
X88342446Y-149198700D03*
X84662446Y-149198700D03*
%TD*%
D20*
%TO.C,C32*%
X220187500Y-43637000D03*
X223312500Y-43637000D03*
%TD*%
D23*
%TO.C,R184*%
X183834946Y-143952450D03*
X183834946Y-140852450D03*
%TD*%
D13*
%TO.C,R162*%
X159472446Y-105714950D03*
X159472446Y-108814950D03*
%TD*%
D22*
%TO.C,R97*%
X213450000Y-73850000D03*
X210350000Y-73850000D03*
%TD*%
D23*
%TO.C,R187*%
X196184946Y-140302450D03*
X196184946Y-137202450D03*
%TD*%
D20*
%TO.C,C105*%
X219884946Y-112251950D03*
X223009946Y-112251950D03*
%TD*%
D13*
%TO.C,R179*%
X193234946Y-125702450D03*
X193234946Y-128802450D03*
%TD*%
D29*
%TO.C,C79*%
X188200000Y-64237500D03*
X185075000Y-64237500D03*
%TD*%
D16*
%TO.C,R108*%
X141802500Y-40118750D03*
X141802500Y-38293750D03*
%TD*%
D29*
%TO.C,C40*%
X209275000Y-42987000D03*
X206150000Y-42987000D03*
%TD*%
D25*
%TO.C,T13*%
X216517500Y-31749500D03*
X215247500Y-31749500D03*
X213977500Y-31749500D03*
X212707500Y-31749500D03*
D34*
X212707500Y-25974500D03*
D27*
X213977500Y-25974500D03*
D34*
X215247500Y-25974500D03*
D27*
X216517500Y-25974500D03*
%TD*%
D29*
%TO.C,C51*%
X185912500Y-42662500D03*
X182787500Y-42662500D03*
%TD*%
D16*
%TO.C,R164*%
X167197446Y-108502450D03*
X167197446Y-106677450D03*
%TD*%
D31*
%TO.C,R169*%
X171172446Y-130777450D03*
X172997446Y-130777450D03*
%TD*%
D16*
%TO.C,R170*%
X169247446Y-138102450D03*
X169247446Y-136277450D03*
%TD*%
D18*
%TO.C,D25*%
X206424000Y-70250000D03*
D19*
X210406000Y-69330000D03*
X210406000Y-71170000D03*
%TD*%
D29*
%TO.C,C124*%
X185609946Y-111277450D03*
X182484946Y-111277450D03*
%TD*%
%TO.C,C112*%
X208972446Y-109101950D03*
X205847446Y-109101950D03*
%TD*%
D39*
%TO.C,D1*%
X86477446Y-134333700D03*
X81077446Y-134333700D03*
%TD*%
D33*
%TO.C,R176*%
X170747446Y-136302450D03*
X170747446Y-138127450D03*
%TD*%
D16*
%TO.C,R56*%
X165937500Y-49075000D03*
X165937500Y-47250000D03*
%TD*%
D30*
%TO.C,C93*%
X208450000Y-74237500D03*
X208450000Y-75962500D03*
%TD*%
D16*
%TO.C,R111*%
X144612446Y-112771200D03*
X144612446Y-110946200D03*
%TD*%
D14*
%TO.C,R195*%
X212422446Y-144577450D03*
X210597446Y-144577450D03*
%TD*%
D12*
%TO.C,C9*%
X84664946Y-151033700D03*
X82939946Y-151033700D03*
%TD*%
D29*
%TO.C,C140*%
X164472446Y-130677450D03*
X161347446Y-130677450D03*
%TD*%
D12*
%TO.C,C17*%
X117977446Y-140583700D03*
X116252446Y-140583700D03*
%TD*%
D30*
%TO.C,C154*%
X185934946Y-140539950D03*
X185934946Y-142264950D03*
%TD*%
%TO.C,C159*%
X194147446Y-135039950D03*
X194147446Y-136764950D03*
%TD*%
D15*
%TO.C,C13*%
X94802446Y-108046200D03*
X94802446Y-106321200D03*
%TD*%
D17*
%TO.C,F8*%
X238052392Y-107858700D03*
X236002392Y-107858700D03*
%TD*%
D29*
%TO.C,C39*%
X209275000Y-40487000D03*
X206150000Y-40487000D03*
%TD*%
%TO.C,C94*%
X210412500Y-61550000D03*
X207287500Y-61550000D03*
%TD*%
D13*
%TO.C,R148*%
X200584946Y-100827450D03*
X200584946Y-103927450D03*
%TD*%
D15*
%TO.C,C33*%
X222150000Y-33449500D03*
X222150000Y-31724500D03*
%TD*%
D33*
%TO.C,R80*%
X196037500Y-60675000D03*
X196037500Y-62500000D03*
%TD*%
D31*
%TO.C,R10*%
X124652446Y-139133700D03*
X126477446Y-139133700D03*
%TD*%
D33*
%TO.C,R168*%
X172309946Y-127114950D03*
X172309946Y-128939950D03*
%TD*%
D13*
%TO.C,R138*%
X205884946Y-101339450D03*
X205884946Y-104439450D03*
%TD*%
D31*
%TO.C,R165*%
X162584946Y-104739950D03*
X164409946Y-104739950D03*
%TD*%
D20*
%TO.C,C158*%
X198809946Y-136002450D03*
X201934946Y-136002450D03*
%TD*%
D13*
%TO.C,R191*%
X215447446Y-128014950D03*
X215447446Y-131114950D03*
%TD*%
D20*
%TO.C,C160*%
X198809946Y-133502450D03*
X201934946Y-133502450D03*
%TD*%
D16*
%TO.C,R144*%
X188684946Y-115489950D03*
X188684946Y-113664950D03*
%TD*%
D33*
%TO.C,R68*%
X172612500Y-58500000D03*
X172612500Y-60325000D03*
%TD*%
D18*
%TO.C,D28*%
X223873446Y-106051950D03*
D19*
X219891446Y-106971950D03*
X219891446Y-105131950D03*
%TD*%
D21*
%TO.C,C10*%
X88339946Y-145633700D03*
X90064946Y-145633700D03*
%TD*%
D14*
%TO.C,R77*%
X175662500Y-71450000D03*
X173837500Y-71450000D03*
%TD*%
D20*
%TO.C,C107*%
X219884946Y-114751950D03*
X223009946Y-114751950D03*
%TD*%
D14*
%TO.C,R189*%
X198784946Y-142239950D03*
X196959946Y-142239950D03*
%TD*%
D29*
%TO.C,C155*%
X187897446Y-127852450D03*
X184772446Y-127852450D03*
%TD*%
D31*
%TO.C,R65*%
X162887500Y-36125000D03*
X164712500Y-36125000D03*
%TD*%
D33*
%TO.C,R250*%
X86289946Y-76946200D03*
X86289946Y-78771200D03*
%TD*%
D13*
%TO.C,R39*%
X211900000Y-33687000D03*
X211900000Y-36787000D03*
%TD*%
D31*
%TO.C,R14*%
X133052446Y-139133700D03*
X134877446Y-139133700D03*
%TD*%
D20*
%TO.C,C44*%
X196825000Y-45812500D03*
X199950000Y-45812500D03*
%TD*%
D31*
%TO.C,R53*%
X185937500Y-33925000D03*
X187762500Y-33925000D03*
%TD*%
D18*
%TO.C,D36*%
X183908946Y-136552450D03*
D19*
X187890946Y-135632450D03*
X187890946Y-137472450D03*
%TD*%
D15*
%TO.C,C84*%
X202200000Y-76412500D03*
X202200000Y-74687500D03*
%TD*%
D14*
%TO.C,R71*%
X167087500Y-71475000D03*
X165262500Y-71475000D03*
%TD*%
D15*
%TO.C,C123*%
X190272446Y-109739950D03*
X190272446Y-108014950D03*
%TD*%
D12*
%TO.C,C22*%
X138977446Y-140583700D03*
X137252446Y-140583700D03*
%TD*%
D17*
%TO.C,F12*%
X238052392Y-128178700D03*
X236002392Y-128178700D03*
%TD*%
D12*
%TO.C,C26*%
X132214946Y-90933700D03*
X130489946Y-90933700D03*
%TD*%
D16*
%TO.C,R109*%
X140302446Y-44196200D03*
X140302446Y-42371200D03*
%TD*%
D14*
%TO.C,R15*%
X134877446Y-137683700D03*
X133052446Y-137683700D03*
%TD*%
D23*
%TO.C,R55*%
X168437500Y-52662500D03*
X168437500Y-49562500D03*
%TD*%
D16*
%TO.C,R249*%
X78589946Y-78771200D03*
X78589946Y-76946200D03*
%TD*%
D24*
%TO.C,R61*%
X170737500Y-38212500D03*
X173837500Y-38212500D03*
%TD*%
D14*
%TO.C,R33*%
X213487500Y-41037000D03*
X211662500Y-41037000D03*
%TD*%
D29*
%TO.C,C92*%
X210412500Y-64050000D03*
X207287500Y-64050000D03*
%TD*%
D30*
%TO.C,C109*%
X205884946Y-97576950D03*
X205884946Y-99301950D03*
%TD*%
D33*
%TO.C,R34*%
X215412500Y-33712000D03*
X215412500Y-35537000D03*
%TD*%
D20*
%TO.C,C119*%
X196522446Y-116927450D03*
X199647446Y-116927450D03*
%TD*%
D30*
%TO.C,C12*%
X94802446Y-118721200D03*
X94802446Y-120446200D03*
%TD*%
D33*
%TO.C,R205*%
X82302446Y-84671200D03*
X82302446Y-86496200D03*
%TD*%
D16*
%TO.C,R30*%
X144165000Y-54143750D03*
X144165000Y-52318750D03*
%TD*%
D12*
%TO.C,C19*%
X126377446Y-140583700D03*
X124652446Y-140583700D03*
%TD*%
D15*
%TO.C,C106*%
X221847446Y-102064450D03*
X221847446Y-100339450D03*
%TD*%
D13*
%TO.C,R163*%
X165184946Y-106677450D03*
X165184946Y-109777450D03*
%TD*%
D29*
%TO.C,C165*%
X210109946Y-132664950D03*
X206984946Y-132664950D03*
%TD*%
D30*
%TO.C,C142*%
X162509946Y-138364950D03*
X162509946Y-140089950D03*
%TD*%
D33*
%TO.C,R200*%
X216384946Y-140789950D03*
X216384946Y-142614950D03*
%TD*%
D31*
%TO.C,R69*%
X171475000Y-62162500D03*
X173300000Y-62162500D03*
%TD*%
D33*
%TO.C,R46*%
X192050000Y-35887500D03*
X192050000Y-37712500D03*
%TD*%
D18*
%TO.C,D23*%
X184211500Y-67937500D03*
D19*
X188193500Y-67017500D03*
X188193500Y-68857500D03*
%TD*%
D29*
%TO.C,C153*%
X187897446Y-130352450D03*
X184772446Y-130352450D03*
%TD*%
D31*
%TO.C,R16*%
X137252446Y-139133700D03*
X139077446Y-139133700D03*
%TD*%
D16*
%TO.C,R40*%
X213912500Y-35512000D03*
X213912500Y-33687000D03*
%TD*%
D23*
%TO.C,R196*%
X206047446Y-146264950D03*
X206047446Y-143164950D03*
%TD*%
D14*
%TO.C,R9*%
X122277446Y-137683700D03*
X120452446Y-137683700D03*
%TD*%
D13*
%TO.C,R160*%
X177534946Y-103027450D03*
X177534946Y-106127450D03*
%TD*%
D33*
%TO.C,R88*%
X194475000Y-69862500D03*
X194475000Y-71687500D03*
%TD*%
D31*
%TO.C,R135*%
X217572446Y-100339450D03*
X219397446Y-100339450D03*
%TD*%
D40*
%TO.C,F1*%
X79577446Y-139933700D03*
X86527446Y-139933700D03*
%TD*%
D13*
%TO.C,R51*%
X188537500Y-35862500D03*
X188537500Y-38962500D03*
%TD*%
D18*
%TO.C,D38*%
X206121446Y-138864950D03*
D19*
X210103446Y-137944950D03*
X210103446Y-139784950D03*
%TD*%
D33*
%TO.C,R128*%
X145862446Y-120033700D03*
X145862446Y-121858700D03*
%TD*%
D23*
%TO.C,R99*%
X218700000Y-74000000D03*
X218700000Y-70900000D03*
%TD*%
D15*
%TO.C,C101*%
X147852446Y-88896200D03*
X147852446Y-87171200D03*
%TD*%
D25*
%TO.C,T18*%
X214082500Y-75937500D03*
X215352500Y-75937500D03*
X216622500Y-75937500D03*
X217892500Y-75937500D03*
D26*
X217892500Y-81712500D03*
D27*
X216622500Y-81712500D03*
D26*
X215352500Y-81712500D03*
D27*
X214082500Y-81712500D03*
%TD*%
D31*
%TO.C,R18*%
X141452446Y-139133700D03*
X143277446Y-139133700D03*
%TD*%
D28*
%TO.C,Q20*%
X214672446Y-109714450D03*
X216572446Y-109714450D03*
X215622446Y-111589450D03*
%TD*%
D13*
%TO.C,R136*%
X223947446Y-98651950D03*
X223947446Y-101751950D03*
%TD*%
D28*
%TO.C,Q8*%
X168562500Y-45475000D03*
X170462500Y-45475000D03*
X169512500Y-47350000D03*
%TD*%
D29*
%TO.C,C122*%
X185609946Y-108777450D03*
X182484946Y-108777450D03*
%TD*%
D18*
%TO.C,D17*%
X200813500Y-39612500D03*
D19*
X196831500Y-40532500D03*
X196831500Y-38692500D03*
%TD*%
D20*
%TO.C,C128*%
X173472446Y-114127450D03*
X176597446Y-114127450D03*
%TD*%
D17*
%TO.C,F4*%
X238349946Y-49285000D03*
X236299946Y-49285000D03*
%TD*%
D30*
%TO.C,C171*%
X216359946Y-137352450D03*
X216359946Y-139077450D03*
%TD*%
D14*
%TO.C,R17*%
X139077446Y-137683700D03*
X137252446Y-137683700D03*
%TD*%
D13*
%TO.C,R60*%
X177837500Y-34412500D03*
X177837500Y-37512500D03*
%TD*%
D30*
%TO.C,C81*%
X186237500Y-71925000D03*
X186237500Y-73650000D03*
%TD*%
%TO.C,C121*%
X182522446Y-99752450D03*
X182522446Y-101477450D03*
%TD*%
D16*
%TO.C,R105*%
X143352500Y-44193750D03*
X143352500Y-42368750D03*
%TD*%
D20*
%TO.C,C99*%
X221325000Y-67200000D03*
X224450000Y-67200000D03*
%TD*%
D23*
%TO.C,R86*%
X202200000Y-72650000D03*
X202200000Y-69550000D03*
%TD*%
D24*
%TO.C,R37*%
X217150000Y-33837000D03*
X220250000Y-33837000D03*
%TD*%
D31*
%TO.C,R59*%
X171462500Y-36100000D03*
X173287500Y-36100000D03*
%TD*%
D12*
%TO.C,C95*%
X210162500Y-77800000D03*
X208437500Y-77800000D03*
%TD*%
D31*
%TO.C,R41*%
X209300000Y-31749500D03*
X211125000Y-31749500D03*
%TD*%
D25*
%TO.C,T16*%
X168445000Y-71450000D03*
X169715000Y-71450000D03*
X170985000Y-71450000D03*
X172255000Y-71450000D03*
D26*
X172255000Y-77225000D03*
D27*
X170985000Y-77225000D03*
D26*
X169715000Y-77225000D03*
D27*
X168445000Y-77225000D03*
%TD*%
D33*
%TO.C,R192*%
X217947446Y-131602450D03*
X217947446Y-133427450D03*
%TD*%
D18*
%TO.C,D34*%
X160483946Y-134377450D03*
D19*
X164465946Y-133457450D03*
X164465946Y-135297450D03*
%TD*%
D23*
%TO.C,R87*%
X196487500Y-71687500D03*
X196487500Y-68587500D03*
%TD*%
D15*
%TO.C,C145*%
X178472446Y-142852450D03*
X178472446Y-141127450D03*
%TD*%
D13*
%TO.C,R150*%
X182522446Y-103514950D03*
X182522446Y-106614950D03*
%TD*%
D35*
%TO.C,Q11*%
X169987500Y-62100000D03*
X168087500Y-62100000D03*
X169037500Y-60225000D03*
%TD*%
D30*
%TO.C,C98*%
X216662500Y-68737500D03*
X216662500Y-70462500D03*
%TD*%
D16*
%TO.C,R29*%
X142615000Y-54143750D03*
X142615000Y-52318750D03*
%TD*%
D30*
%TO.C,C74*%
X171025000Y-64250000D03*
X171025000Y-65975000D03*
%TD*%
D23*
%TO.C,R72*%
X160712500Y-73162500D03*
X160712500Y-70062500D03*
%TD*%
%TO.C,R43*%
X191487500Y-50462500D03*
X191487500Y-47362500D03*
%TD*%
D31*
%TO.C,R93*%
X217112500Y-66650000D03*
X218937500Y-66650000D03*
%TD*%
D30*
%TO.C,C147*%
X170722446Y-132864950D03*
X170722446Y-134589950D03*
%TD*%
D20*
%TO.C,C46*%
X196825000Y-48312500D03*
X199950000Y-48312500D03*
%TD*%
D13*
%TO.C,R79*%
X193537500Y-57087500D03*
X193537500Y-60187500D03*
%TD*%
D33*
%TO.C,R134*%
X215109946Y-102326950D03*
X215109946Y-104151950D03*
%TD*%
D29*
%TO.C,C91*%
X210412500Y-66550000D03*
X207287500Y-66550000D03*
%TD*%
D13*
%TO.C,R62*%
X159775000Y-37100000D03*
X159775000Y-40200000D03*
%TD*%
D20*
%TO.C,C76*%
X175687500Y-60212500D03*
X178812500Y-60212500D03*
%TD*%
D13*
%TO.C,R139*%
X211597446Y-102301950D03*
X211597446Y-105401950D03*
%TD*%
D16*
%TO.C,R44*%
X188987500Y-46875000D03*
X188987500Y-45050000D03*
%TD*%
D29*
%TO.C,C67*%
X164775000Y-62062500D03*
X161650000Y-62062500D03*
%TD*%
D12*
%TO.C,C18*%
X122177446Y-140583700D03*
X120452446Y-140583700D03*
%TD*%
D28*
%TO.C,Q26*%
X168259946Y-114089950D03*
X170159946Y-114089950D03*
X169209946Y-115964950D03*
%TD*%
D30*
%TO.C,C48*%
X182825000Y-31137500D03*
X182825000Y-32862500D03*
%TD*%
D15*
%TO.C,C62*%
X167525000Y-43325000D03*
X167525000Y-41600000D03*
%TD*%
D33*
%TO.C,R58*%
X169000000Y-38087500D03*
X169000000Y-39912500D03*
%TD*%
D15*
%TO.C,C57*%
X175737500Y-37825000D03*
X175737500Y-36100000D03*
%TD*%
%TO.C,C157*%
X201897446Y-145027450D03*
X201897446Y-143302450D03*
%TD*%
D14*
%TO.C,R11*%
X126477446Y-137683700D03*
X124652446Y-137683700D03*
%TD*%
D33*
%TO.C,R92*%
X218250000Y-62987500D03*
X218250000Y-64812500D03*
%TD*%
D28*
%TO.C,Q38*%
X82302446Y-91846200D03*
X84202446Y-91846200D03*
X83252446Y-93721200D03*
%TD*%
D16*
%TO.C,R118*%
X139962446Y-108758700D03*
X139962446Y-106933700D03*
%TD*%
D20*
%TO.C,C31*%
X220187500Y-41137000D03*
X223312500Y-41137000D03*
%TD*%
%TO.C,C161*%
X198809946Y-131002450D03*
X201934946Y-131002450D03*
%TD*%
D12*
%TO.C,C20*%
X130577446Y-140583700D03*
X128852446Y-140583700D03*
%TD*%
D16*
%TO.C,R116*%
X141512446Y-108758700D03*
X141512446Y-106933700D03*
%TD*%
D22*
%TO.C,R85*%
X191237500Y-71537500D03*
X188137500Y-71537500D03*
%TD*%
D16*
%TO.C,R64*%
X167500000Y-39887500D03*
X167500000Y-38062500D03*
%TD*%
D18*
%TO.C,D30*%
X200510946Y-108227450D03*
D19*
X196528946Y-109147450D03*
X196528946Y-107307450D03*
%TD*%
D20*
%TO.C,C131*%
X173472446Y-119127450D03*
X176597446Y-119127450D03*
%TD*%
D16*
%TO.C,R104*%
X144952500Y-40118750D03*
X144952500Y-38293750D03*
%TD*%
D29*
%TO.C,C125*%
X185609946Y-113777450D03*
X182484946Y-113777450D03*
%TD*%
D23*
%TO.C,R186*%
X201897446Y-141264950D03*
X201897446Y-138164950D03*
%TD*%
D35*
%TO.C,Q32*%
X193109946Y-132889950D03*
X191209946Y-132889950D03*
X192159946Y-131014950D03*
%TD*%
D14*
%TO.C,R13*%
X130677446Y-137683700D03*
X128852446Y-137683700D03*
%TD*%
D17*
%TO.C,F3*%
X238349946Y-44285000D03*
X236299946Y-44285000D03*
%TD*%
D35*
%TO.C,Q29*%
X169684946Y-130714950D03*
X167784946Y-130714950D03*
X168734946Y-128839950D03*
%TD*%
D20*
%TO.C,C43*%
X196825000Y-43312500D03*
X199950000Y-43312500D03*
%TD*%
D25*
%TO.C,T14*%
X193155000Y-33925000D03*
X191885000Y-33925000D03*
X190615000Y-33925000D03*
X189345000Y-33925000D03*
D34*
X189345000Y-28150000D03*
D27*
X190615000Y-28150000D03*
D34*
X191885000Y-28150000D03*
D27*
X193155000Y-28150000D03*
%TD*%
D16*
%TO.C,R112*%
X144612446Y-108771200D03*
X144612446Y-106946200D03*
%TD*%
D14*
%TO.C,R45*%
X190125000Y-43212500D03*
X188300000Y-43212500D03*
%TD*%
D23*
%TO.C,R84*%
X184137500Y-75337500D03*
X184137500Y-72237500D03*
%TD*%
D20*
%TO.C,C87*%
X199112500Y-64887500D03*
X202237500Y-64887500D03*
%TD*%
D15*
%TO.C,C135*%
X167222446Y-111939950D03*
X167222446Y-110214950D03*
%TD*%
D20*
%TO.C,C117*%
X196522446Y-114427450D03*
X199647446Y-114427450D03*
%TD*%
D24*
%TO.C,R49*%
X193787500Y-36012500D03*
X196887500Y-36012500D03*
%TD*%
D16*
%TO.C,R156*%
X165634946Y-117689950D03*
X165634946Y-115864950D03*
%TD*%
D30*
%TO.C,C166*%
X208147446Y-142852450D03*
X208147446Y-144577450D03*
%TD*%
D20*
%TO.C,C34*%
X220187500Y-46137000D03*
X223312500Y-46137000D03*
%TD*%
D15*
%TO.C,C38*%
X213937500Y-38949500D03*
X213937500Y-37224500D03*
%TD*%
D30*
%TO.C,C36*%
X206187500Y-28962000D03*
X206187500Y-30687000D03*
%TD*%
D31*
%TO.C,R47*%
X194512500Y-33900000D03*
X196337500Y-33900000D03*
%TD*%
D16*
%TO.C,R52*%
X190550000Y-37687500D03*
X190550000Y-35862500D03*
%TD*%
D33*
%TO.C,R158*%
X168697446Y-106702450D03*
X168697446Y-108527450D03*
%TD*%
D24*
%TO.C,R161*%
X170434946Y-106827450D03*
X173534946Y-106827450D03*
%TD*%
D20*
%TO.C,C146*%
X175384946Y-133827450D03*
X178509946Y-133827450D03*
%TD*%
%TO.C,C73*%
X175687500Y-65212500D03*
X178812500Y-65212500D03*
%TD*%
D16*
%TO.C,R32*%
X212350000Y-44699500D03*
X212350000Y-42874500D03*
%TD*%
D14*
%TO.C,R95*%
X212725000Y-75962500D03*
X210900000Y-75962500D03*
%TD*%
D17*
%TO.C,F11*%
X238052392Y-123098700D03*
X236002392Y-123098700D03*
%TD*%
D23*
%TO.C,R31*%
X214850000Y-48287000D03*
X214850000Y-45187000D03*
%TD*%
D29*
%TO.C,C143*%
X164472446Y-125677450D03*
X161347446Y-125677450D03*
%TD*%
D25*
%TO.C,T20*%
X192852446Y-102539950D03*
X191582446Y-102539950D03*
X190312446Y-102539950D03*
X189042446Y-102539950D03*
D34*
X189042446Y-96764950D03*
D27*
X190312446Y-96764950D03*
D34*
X191582446Y-96764950D03*
D27*
X192852446Y-96764950D03*
%TD*%
D20*
%TO.C,C149*%
X175384946Y-128827450D03*
X178509946Y-128827450D03*
%TD*%
D17*
%TO.C,F13*%
X238052392Y-133258700D03*
X236002392Y-133258700D03*
%TD*%
D13*
%TO.C,R167*%
X169809946Y-123527450D03*
X169809946Y-126627450D03*
%TD*%
D33*
%TO.C,R204*%
X82302446Y-88121200D03*
X82302446Y-89946200D03*
%TD*%
D16*
%TO.C,R117*%
X139962446Y-112758700D03*
X139962446Y-110933700D03*
%TD*%
D23*
%TO.C,R96*%
X206350000Y-77650000D03*
X206350000Y-74550000D03*
%TD*%
D16*
%TO.C,R132*%
X212047446Y-113314450D03*
X212047446Y-111489450D03*
%TD*%
D12*
%TO.C,C83*%
X187950000Y-75487500D03*
X186225000Y-75487500D03*
%TD*%
D15*
%TO.C,C111*%
X213634946Y-107564450D03*
X213634946Y-105839450D03*
%TD*%
D29*
%TO.C,C134*%
X162559946Y-110977450D03*
X159434946Y-110977450D03*
%TD*%
D20*
%TO.C,C88*%
X199112500Y-62387500D03*
X202237500Y-62387500D03*
%TD*%
D14*
%TO.C,R145*%
X189822446Y-111827450D03*
X187997446Y-111827450D03*
%TD*%
%TO.C,R89*%
X199087500Y-73625000D03*
X197262500Y-73625000D03*
%TD*%
D16*
%TO.C,R82*%
X192975000Y-71662500D03*
X192975000Y-69837500D03*
%TD*%
%TO.C,R152*%
X190247446Y-106302450D03*
X190247446Y-104477450D03*
%TD*%
D29*
%TO.C,C63*%
X162862500Y-44862500D03*
X159737500Y-44862500D03*
%TD*%
D21*
%TO.C,C11*%
X88339946Y-151033700D03*
X90064946Y-151033700D03*
%TD*%
D41*
%TO.C,D5*%
X92714946Y-149283700D03*
X92714946Y-147383700D03*
X94589946Y-148333700D03*
%TD*%
D17*
%TO.C,F5*%
X238349946Y-54285000D03*
X236299946Y-54285000D03*
%TD*%
D33*
%TO.C,R188*%
X194172446Y-138477450D03*
X194172446Y-140302450D03*
%TD*%
D13*
%TO.C,R63*%
X165487500Y-38062500D03*
X165487500Y-41162500D03*
%TD*%
D14*
%TO.C,R177*%
X175359946Y-140064950D03*
X173534946Y-140064950D03*
%TD*%
D29*
%TO.C,C68*%
X164775000Y-59562500D03*
X161650000Y-59562500D03*
%TD*%
D13*
%TO.C,R38*%
X206187500Y-32724500D03*
X206187500Y-35824500D03*
%TD*%
D23*
%TO.C,R131*%
X214547446Y-116901950D03*
X214547446Y-113801950D03*
%TD*%
D31*
%TO.C,R193*%
X216809946Y-135264950D03*
X218634946Y-135264950D03*
%TD*%
D20*
%TO.C,C172*%
X221022446Y-135814950D03*
X224147446Y-135814950D03*
%TD*%
D30*
%TO.C,C86*%
X194450000Y-66425000D03*
X194450000Y-68150000D03*
%TD*%
D31*
%TO.C,R20*%
X145652446Y-139133700D03*
X147477446Y-139133700D03*
%TD*%
D15*
%TO.C,C96*%
X224412500Y-78725000D03*
X224412500Y-77000000D03*
%TD*%
D18*
%TO.C,D32*%
X177460946Y-110427450D03*
D19*
X173478946Y-111347450D03*
X173478946Y-109507450D03*
%TD*%
D17*
%TO.C,F14*%
X238052392Y-138338700D03*
X236002392Y-138338700D03*
%TD*%
D30*
%TO.C,C133*%
X159472446Y-101952450D03*
X159472446Y-103677450D03*
%TD*%
D29*
%TO.C,C141*%
X164472446Y-128177450D03*
X161347446Y-128177450D03*
%TD*%
D21*
%TO.C,C59*%
X174025000Y-34262500D03*
X175750000Y-34262500D03*
%TD*%
D31*
%TO.C,R8*%
X120452446Y-139133700D03*
X122277446Y-139133700D03*
%TD*%
D16*
%TO.C,R106*%
X143352500Y-40118750D03*
X143352500Y-38293750D03*
%TD*%
D31*
%TO.C,R12*%
X128852446Y-139133700D03*
X130677446Y-139133700D03*
%TD*%
M02*
