%TF.GenerationSoftware,KiCad,Pcbnew,(6.0.1)*%
%TF.CreationDate,2022-05-07T21:19:08+10:00*%
%TF.ProjectId,211006_lmu_r0,32313130-3036-45f6-9c6d-755f72302e6b,rev?*%
%TF.SameCoordinates,Original*%
%TF.FileFunction,Soldermask,Bot*%
%TF.FilePolarity,Negative*%
%FSLAX46Y46*%
G04 Gerber Fmt 4.6, Leading zero omitted, Abs format (unit mm)*
G04 Created by KiCad (PCBNEW (6.0.1)) date 2022-05-07 21:19:08*
%MOMM*%
%LPD*%
G01*
G04 APERTURE LIST*
G04 Aperture macros list*
%AMRoundRect*
0 Rectangle with rounded corners*
0 $1 Rounding radius*
0 $2 $3 $4 $5 $6 $7 $8 $9 X,Y pos of 4 corners*
0 Add a 4 corners polygon primitive as box body*
4,1,4,$2,$3,$4,$5,$6,$7,$8,$9,$2,$3,0*
0 Add four circle primitives for the rounded corners*
1,1,$1+$1,$2,$3*
1,1,$1+$1,$4,$5*
1,1,$1+$1,$6,$7*
1,1,$1+$1,$8,$9*
0 Add four rect primitives between the rounded corners*
20,1,$1+$1,$2,$3,$4,$5,0*
20,1,$1+$1,$4,$5,$6,$7,0*
20,1,$1+$1,$6,$7,$8,$9,0*
20,1,$1+$1,$8,$9,$2,$3,0*%
%AMHorizOval*
0 Thick line with rounded ends*
0 $1 width*
0 $2 $3 position (X,Y) of the first rounded end (center of the circle)*
0 $4 $5 position (X,Y) of the second rounded end (center of the circle)*
0 Add line between two ends*
20,1,$1,$2,$3,$4,$5,0*
0 Add two circle primitives to create the rounded ends*
1,1,$1,$2,$3*
1,1,$1,$4,$5*%
%AMRotRect*
0 Rectangle, with rotation*
0 The origin of the aperture is its center*
0 $1 length*
0 $2 width*
0 $3 Rotation angle, in degrees counterclockwise*
0 Add horizontal line*
21,1,$1,$2,0,0,$3*%
G04 Aperture macros list end*
%ADD10C,0.010000*%
%ADD11RoundRect,0.025600X0.924400X0.134400X-0.924400X0.134400X-0.924400X-0.134400X0.924400X-0.134400X0*%
%ADD12RoundRect,0.250001X-1.399999X1.099999X-1.399999X-1.099999X1.399999X-1.099999X1.399999X1.099999X0*%
%ADD13O,3.300000X2.700000*%
%ADD14RoundRect,0.250000X-1.550000X0.750000X-1.550000X-0.750000X1.550000X-0.750000X1.550000X0.750000X0*%
%ADD15O,3.600000X2.000000*%
%ADD16C,3.200000*%
%ADD17R,1.700000X1.700000*%
%ADD18O,1.700000X1.700000*%
%ADD19R,1.400000X1.400000*%
%ADD20C,1.400000*%
%ADD21RoundRect,0.250001X-1.099999X-1.399999X1.099999X-1.399999X1.099999X1.399999X-1.099999X1.399999X0*%
%ADD22O,2.700000X3.300000*%
%ADD23RoundRect,0.249999X-1.550001X0.790001X-1.550001X-0.790001X1.550001X-0.790001X1.550001X0.790001X0*%
%ADD24O,3.600000X2.080000*%
%ADD25RotRect,1.700000X1.700000X315.000000*%
%ADD26HorizOval,1.700000X0.000000X0.000000X0.000000X0.000000X0*%
%ADD27R,1.500000X2.300000*%
%ADD28O,1.500000X2.300000*%
%ADD29RoundRect,0.237500X0.300000X0.237500X-0.300000X0.237500X-0.300000X-0.237500X0.300000X-0.237500X0*%
%ADD30RoundRect,0.250000X-0.625000X0.400000X-0.625000X-0.400000X0.625000X-0.400000X0.625000X0.400000X0*%
%ADD31RoundRect,0.237500X0.250000X0.237500X-0.250000X0.237500X-0.250000X-0.237500X0.250000X-0.237500X0*%
%ADD32RoundRect,0.237500X0.237500X-0.300000X0.237500X0.300000X-0.237500X0.300000X-0.237500X-0.300000X0*%
%ADD33RoundRect,0.237500X0.237500X-0.250000X0.237500X0.250000X-0.237500X0.250000X-0.237500X-0.250000X0*%
%ADD34RoundRect,0.250000X0.325000X0.450000X-0.325000X0.450000X-0.325000X-0.450000X0.325000X-0.450000X0*%
%ADD35C,1.000000*%
%ADD36R,4.860000X3.360000*%
%ADD37R,1.400000X1.390000*%
%ADD38RoundRect,0.250000X-0.412500X-0.650000X0.412500X-0.650000X0.412500X0.650000X-0.412500X0.650000X0*%
%ADD39RoundRect,0.237500X-0.300000X-0.237500X0.300000X-0.237500X0.300000X0.237500X-0.300000X0.237500X0*%
%ADD40RoundRect,0.250000X0.400000X0.625000X-0.400000X0.625000X-0.400000X-0.625000X0.400000X-0.625000X0*%
%ADD41RoundRect,0.250000X0.625000X-0.400000X0.625000X0.400000X-0.625000X0.400000X-0.625000X-0.400000X0*%
%ADD42RoundRect,0.250000X-0.400000X-0.625000X0.400000X-0.625000X0.400000X0.625000X-0.400000X0.625000X0*%
%ADD43RoundRect,0.150000X-0.150000X0.587500X-0.150000X-0.587500X0.150000X-0.587500X0.150000X0.587500X0*%
%ADD44RoundRect,0.250000X0.412500X0.650000X-0.412500X0.650000X-0.412500X-0.650000X0.412500X-0.650000X0*%
%ADD45RoundRect,0.237500X-0.237500X0.300000X-0.237500X-0.300000X0.237500X-0.300000X0.237500X0.300000X0*%
%ADD46RoundRect,0.237500X-0.250000X-0.237500X0.250000X-0.237500X0.250000X0.237500X-0.250000X0.237500X0*%
%ADD47RoundRect,0.042000X-0.258000X0.858000X-0.258000X-0.858000X0.258000X-0.858000X0.258000X0.858000X0*%
%ADD48RoundRect,0.237500X-0.237500X0.250000X-0.237500X-0.250000X0.237500X-0.250000X0.237500X0.250000X0*%
%ADD49RoundRect,0.150000X0.150000X-0.587500X0.150000X0.587500X-0.150000X0.587500X-0.150000X-0.587500X0*%
%ADD50RoundRect,0.250000X0.337500X0.475000X-0.337500X0.475000X-0.337500X-0.475000X0.337500X-0.475000X0*%
%ADD51RoundRect,0.250000X0.450000X-0.350000X0.450000X0.350000X-0.450000X0.350000X-0.450000X-0.350000X0*%
%ADD52RoundRect,0.050000X-0.450000X0.525000X-0.450000X-0.525000X0.450000X-0.525000X0.450000X0.525000X0*%
%ADD53R,3.500000X2.300000*%
%ADD54RoundRect,0.250001X-0.799999X-2.474999X0.799999X-2.474999X0.799999X2.474999X-0.799999X2.474999X0*%
%ADD55RoundRect,0.150000X-0.587500X-0.150000X0.587500X-0.150000X0.587500X0.150000X-0.587500X0.150000X0*%
G04 APERTURE END LIST*
%TO.C,T17*%
G36*
X193552500Y-80412500D02*
G01*
X192727500Y-80412500D01*
X192727500Y-79087500D01*
X192282500Y-79087500D01*
X192282500Y-80412500D01*
X191457500Y-80412500D01*
X191457500Y-74862500D01*
X193552500Y-74862500D01*
X193552500Y-80412500D01*
G37*
G36*
X196092500Y-80412500D02*
G01*
X195267500Y-80412500D01*
X195267500Y-79087500D01*
X194822500Y-79087500D01*
X194822500Y-80412500D01*
X193997500Y-80412500D01*
X193997500Y-74862500D01*
X196092500Y-74862500D01*
X196092500Y-80412500D01*
G37*
D10*
X192727500Y-74262500D02*
X193552500Y-74262500D01*
X193552500Y-74262500D02*
X193552500Y-72987500D01*
X193552500Y-72987500D02*
X192727500Y-72987500D01*
X192727500Y-72987500D02*
X192727500Y-74262500D01*
G36*
X193552500Y-74262500D02*
G01*
X192727500Y-74262500D01*
X192727500Y-72987500D01*
X193552500Y-72987500D01*
X193552500Y-74262500D01*
G37*
X193552500Y-74262500D02*
X192727500Y-74262500D01*
X192727500Y-72987500D01*
X193552500Y-72987500D01*
X193552500Y-74262500D01*
X191457500Y-74262500D02*
X192282500Y-74262500D01*
X192282500Y-74262500D02*
X192282500Y-72987500D01*
X192282500Y-72987500D02*
X191457500Y-72987500D01*
X191457500Y-72987500D02*
X191457500Y-74262500D01*
G36*
X192282500Y-74262500D02*
G01*
X191457500Y-74262500D01*
X191457500Y-72987500D01*
X192282500Y-72987500D01*
X192282500Y-74262500D01*
G37*
X192282500Y-74262500D02*
X191457500Y-74262500D01*
X191457500Y-72987500D01*
X192282500Y-72987500D01*
X192282500Y-74262500D01*
X195267500Y-74262500D02*
X196092500Y-74262500D01*
X196092500Y-74262500D02*
X196092500Y-72987500D01*
X196092500Y-72987500D02*
X195267500Y-72987500D01*
X195267500Y-72987500D02*
X195267500Y-74262500D01*
G36*
X196092500Y-74262500D02*
G01*
X195267500Y-74262500D01*
X195267500Y-72987500D01*
X196092500Y-72987500D01*
X196092500Y-74262500D01*
G37*
X196092500Y-74262500D02*
X195267500Y-74262500D01*
X195267500Y-72987500D01*
X196092500Y-72987500D01*
X196092500Y-74262500D01*
X193997500Y-74262500D02*
X194822500Y-74262500D01*
X194822500Y-74262500D02*
X194822500Y-72987500D01*
X194822500Y-72987500D02*
X193997500Y-72987500D01*
X193997500Y-72987500D02*
X193997500Y-74262500D01*
G36*
X194822500Y-74262500D02*
G01*
X193997500Y-74262500D01*
X193997500Y-72987500D01*
X194822500Y-72987500D01*
X194822500Y-74262500D01*
G37*
X194822500Y-74262500D02*
X193997500Y-74262500D01*
X193997500Y-72987500D01*
X194822500Y-72987500D01*
X194822500Y-74262500D01*
%TO.C,T22*%
X170269946Y-140702450D02*
X171094946Y-140702450D01*
X171094946Y-140702450D02*
X171094946Y-139427450D01*
X171094946Y-139427450D02*
X170269946Y-139427450D01*
X170269946Y-139427450D02*
X170269946Y-140702450D01*
G36*
X171094946Y-140702450D02*
G01*
X170269946Y-140702450D01*
X170269946Y-139427450D01*
X171094946Y-139427450D01*
X171094946Y-140702450D01*
G37*
X171094946Y-140702450D02*
X170269946Y-140702450D01*
X170269946Y-139427450D01*
X171094946Y-139427450D01*
X171094946Y-140702450D01*
G36*
X169824946Y-146852450D02*
G01*
X168999946Y-146852450D01*
X168999946Y-145527450D01*
X168554946Y-145527450D01*
X168554946Y-146852450D01*
X167729946Y-146852450D01*
X167729946Y-141302450D01*
X169824946Y-141302450D01*
X169824946Y-146852450D01*
G37*
G36*
X172364946Y-146852450D02*
G01*
X171539946Y-146852450D01*
X171539946Y-145527450D01*
X171094946Y-145527450D01*
X171094946Y-146852450D01*
X170269946Y-146852450D01*
X170269946Y-141302450D01*
X172364946Y-141302450D01*
X172364946Y-146852450D01*
G37*
X171539946Y-140702450D02*
X172364946Y-140702450D01*
X172364946Y-140702450D02*
X172364946Y-139427450D01*
X172364946Y-139427450D02*
X171539946Y-139427450D01*
X171539946Y-139427450D02*
X171539946Y-140702450D01*
G36*
X172364946Y-140702450D02*
G01*
X171539946Y-140702450D01*
X171539946Y-139427450D01*
X172364946Y-139427450D01*
X172364946Y-140702450D01*
G37*
X172364946Y-140702450D02*
X171539946Y-140702450D01*
X171539946Y-139427450D01*
X172364946Y-139427450D01*
X172364946Y-140702450D01*
X168999946Y-140702450D02*
X169824946Y-140702450D01*
X169824946Y-140702450D02*
X169824946Y-139427450D01*
X169824946Y-139427450D02*
X168999946Y-139427450D01*
X168999946Y-139427450D02*
X168999946Y-140702450D01*
G36*
X169824946Y-140702450D02*
G01*
X168999946Y-140702450D01*
X168999946Y-139427450D01*
X169824946Y-139427450D01*
X169824946Y-140702450D01*
G37*
X169824946Y-140702450D02*
X168999946Y-140702450D01*
X168999946Y-139427450D01*
X169824946Y-139427450D01*
X169824946Y-140702450D01*
X167729946Y-140702450D02*
X168554946Y-140702450D01*
X168554946Y-140702450D02*
X168554946Y-139427450D01*
X168554946Y-139427450D02*
X167729946Y-139427450D01*
X167729946Y-139427450D02*
X167729946Y-140702450D01*
G36*
X168554946Y-140702450D02*
G01*
X167729946Y-140702450D01*
X167729946Y-139427450D01*
X168554946Y-139427450D01*
X168554946Y-140702450D01*
G37*
X168554946Y-140702450D02*
X167729946Y-140702450D01*
X167729946Y-139427450D01*
X168554946Y-139427450D01*
X168554946Y-140702450D01*
%TO.C,T23*%
X192424946Y-142877450D02*
X193249946Y-142877450D01*
X193249946Y-142877450D02*
X193249946Y-141602450D01*
X193249946Y-141602450D02*
X192424946Y-141602450D01*
X192424946Y-141602450D02*
X192424946Y-142877450D01*
G36*
X193249946Y-142877450D02*
G01*
X192424946Y-142877450D01*
X192424946Y-141602450D01*
X193249946Y-141602450D01*
X193249946Y-142877450D01*
G37*
X193249946Y-142877450D02*
X192424946Y-142877450D01*
X192424946Y-141602450D01*
X193249946Y-141602450D01*
X193249946Y-142877450D01*
X193694946Y-142877450D02*
X194519946Y-142877450D01*
X194519946Y-142877450D02*
X194519946Y-141602450D01*
X194519946Y-141602450D02*
X193694946Y-141602450D01*
X193694946Y-141602450D02*
X193694946Y-142877450D01*
G36*
X194519946Y-142877450D02*
G01*
X193694946Y-142877450D01*
X193694946Y-141602450D01*
X194519946Y-141602450D01*
X194519946Y-142877450D01*
G37*
X194519946Y-142877450D02*
X193694946Y-142877450D01*
X193694946Y-141602450D01*
X194519946Y-141602450D01*
X194519946Y-142877450D01*
X191154946Y-142877450D02*
X191979946Y-142877450D01*
X191979946Y-142877450D02*
X191979946Y-141602450D01*
X191979946Y-141602450D02*
X191154946Y-141602450D01*
X191154946Y-141602450D02*
X191154946Y-142877450D01*
G36*
X191979946Y-142877450D02*
G01*
X191154946Y-142877450D01*
X191154946Y-141602450D01*
X191979946Y-141602450D01*
X191979946Y-142877450D01*
G37*
X191979946Y-142877450D02*
X191154946Y-142877450D01*
X191154946Y-141602450D01*
X191979946Y-141602450D01*
X191979946Y-142877450D01*
G36*
X195789946Y-149027450D02*
G01*
X194964946Y-149027450D01*
X194964946Y-147702450D01*
X194519946Y-147702450D01*
X194519946Y-149027450D01*
X193694946Y-149027450D01*
X193694946Y-143477450D01*
X195789946Y-143477450D01*
X195789946Y-149027450D01*
G37*
G36*
X193249946Y-149027450D02*
G01*
X192424946Y-149027450D01*
X192424946Y-147702450D01*
X191979946Y-147702450D01*
X191979946Y-149027450D01*
X191154946Y-149027450D01*
X191154946Y-143477450D01*
X193249946Y-143477450D01*
X193249946Y-149027450D01*
G37*
X194964946Y-142877450D02*
X195789946Y-142877450D01*
X195789946Y-142877450D02*
X195789946Y-141602450D01*
X195789946Y-141602450D02*
X194964946Y-141602450D01*
X194964946Y-141602450D02*
X194964946Y-142877450D01*
G36*
X195789946Y-142877450D02*
G01*
X194964946Y-142877450D01*
X194964946Y-141602450D01*
X195789946Y-141602450D01*
X195789946Y-142877450D01*
G37*
X195789946Y-142877450D02*
X194964946Y-142877450D01*
X194964946Y-141602450D01*
X195789946Y-141602450D01*
X195789946Y-142877450D01*
%TO.C,T21*%
G36*
X166404946Y-99277450D02*
G01*
X166849946Y-99277450D01*
X166849946Y-97952450D01*
X167674946Y-97952450D01*
X167674946Y-103502450D01*
X165579946Y-103502450D01*
X165579946Y-97952450D01*
X166404946Y-97952450D01*
X166404946Y-99277450D01*
G37*
X166404946Y-104102450D02*
X165579946Y-104102450D01*
X165579946Y-104102450D02*
X165579946Y-105377450D01*
X165579946Y-105377450D02*
X166404946Y-105377450D01*
X166404946Y-105377450D02*
X166404946Y-104102450D01*
G36*
X166404946Y-105377450D02*
G01*
X165579946Y-105377450D01*
X165579946Y-104102450D01*
X166404946Y-104102450D01*
X166404946Y-105377450D01*
G37*
X166404946Y-105377450D02*
X165579946Y-105377450D01*
X165579946Y-104102450D01*
X166404946Y-104102450D01*
X166404946Y-105377450D01*
X168944946Y-104102450D02*
X168119946Y-104102450D01*
X168119946Y-104102450D02*
X168119946Y-105377450D01*
X168119946Y-105377450D02*
X168944946Y-105377450D01*
X168944946Y-105377450D02*
X168944946Y-104102450D01*
G36*
X168944946Y-105377450D02*
G01*
X168119946Y-105377450D01*
X168119946Y-104102450D01*
X168944946Y-104102450D01*
X168944946Y-105377450D01*
G37*
X168944946Y-105377450D02*
X168119946Y-105377450D01*
X168119946Y-104102450D01*
X168944946Y-104102450D01*
X168944946Y-105377450D01*
X167674946Y-104102450D02*
X166849946Y-104102450D01*
X166849946Y-104102450D02*
X166849946Y-105377450D01*
X166849946Y-105377450D02*
X167674946Y-105377450D01*
X167674946Y-105377450D02*
X167674946Y-104102450D01*
G36*
X167674946Y-105377450D02*
G01*
X166849946Y-105377450D01*
X166849946Y-104102450D01*
X167674946Y-104102450D01*
X167674946Y-105377450D01*
G37*
X167674946Y-105377450D02*
X166849946Y-105377450D01*
X166849946Y-104102450D01*
X167674946Y-104102450D01*
X167674946Y-105377450D01*
X170214946Y-104102450D02*
X169389946Y-104102450D01*
X169389946Y-104102450D02*
X169389946Y-105377450D01*
X169389946Y-105377450D02*
X170214946Y-105377450D01*
X170214946Y-105377450D02*
X170214946Y-104102450D01*
G36*
X170214946Y-105377450D02*
G01*
X169389946Y-105377450D01*
X169389946Y-104102450D01*
X170214946Y-104102450D01*
X170214946Y-105377450D01*
G37*
X170214946Y-105377450D02*
X169389946Y-105377450D01*
X169389946Y-104102450D01*
X170214946Y-104102450D01*
X170214946Y-105377450D01*
G36*
X168944946Y-99277450D02*
G01*
X169389946Y-99277450D01*
X169389946Y-97952450D01*
X170214946Y-97952450D01*
X170214946Y-103502450D01*
X168119946Y-103502450D01*
X168119946Y-97952450D01*
X168944946Y-97952450D01*
X168944946Y-99277450D01*
G37*
%TO.C,T19*%
X212817446Y-99726950D02*
X211992446Y-99726950D01*
X211992446Y-99726950D02*
X211992446Y-101001950D01*
X211992446Y-101001950D02*
X212817446Y-101001950D01*
X212817446Y-101001950D02*
X212817446Y-99726950D01*
G36*
X212817446Y-101001950D02*
G01*
X211992446Y-101001950D01*
X211992446Y-99726950D01*
X212817446Y-99726950D01*
X212817446Y-101001950D01*
G37*
X212817446Y-101001950D02*
X211992446Y-101001950D01*
X211992446Y-99726950D01*
X212817446Y-99726950D01*
X212817446Y-101001950D01*
X215357446Y-99726950D02*
X214532446Y-99726950D01*
X214532446Y-99726950D02*
X214532446Y-101001950D01*
X214532446Y-101001950D02*
X215357446Y-101001950D01*
X215357446Y-101001950D02*
X215357446Y-99726950D01*
G36*
X215357446Y-101001950D02*
G01*
X214532446Y-101001950D01*
X214532446Y-99726950D01*
X215357446Y-99726950D01*
X215357446Y-101001950D01*
G37*
X215357446Y-101001950D02*
X214532446Y-101001950D01*
X214532446Y-99726950D01*
X215357446Y-99726950D01*
X215357446Y-101001950D01*
X216627446Y-99726950D02*
X215802446Y-99726950D01*
X215802446Y-99726950D02*
X215802446Y-101001950D01*
X215802446Y-101001950D02*
X216627446Y-101001950D01*
X216627446Y-101001950D02*
X216627446Y-99726950D01*
G36*
X216627446Y-101001950D02*
G01*
X215802446Y-101001950D01*
X215802446Y-99726950D01*
X216627446Y-99726950D01*
X216627446Y-101001950D01*
G37*
X216627446Y-101001950D02*
X215802446Y-101001950D01*
X215802446Y-99726950D01*
X216627446Y-99726950D01*
X216627446Y-101001950D01*
G36*
X212817446Y-94901950D02*
G01*
X213262446Y-94901950D01*
X213262446Y-93576950D01*
X214087446Y-93576950D01*
X214087446Y-99126950D01*
X211992446Y-99126950D01*
X211992446Y-93576950D01*
X212817446Y-93576950D01*
X212817446Y-94901950D01*
G37*
X214087446Y-99726950D02*
X213262446Y-99726950D01*
X213262446Y-99726950D02*
X213262446Y-101001950D01*
X213262446Y-101001950D02*
X214087446Y-101001950D01*
X214087446Y-101001950D02*
X214087446Y-99726950D01*
G36*
X214087446Y-101001950D02*
G01*
X213262446Y-101001950D01*
X213262446Y-99726950D01*
X214087446Y-99726950D01*
X214087446Y-101001950D01*
G37*
X214087446Y-101001950D02*
X213262446Y-101001950D01*
X213262446Y-99726950D01*
X214087446Y-99726950D01*
X214087446Y-101001950D01*
G36*
X215357446Y-94901950D02*
G01*
X215802446Y-94901950D01*
X215802446Y-93576950D01*
X216627446Y-93576950D01*
X216627446Y-99126950D01*
X214532446Y-99126950D01*
X214532446Y-93576950D01*
X215357446Y-93576950D01*
X215357446Y-94901950D01*
G37*
%TO.C,T24*%
X214637446Y-145189950D02*
X215462446Y-145189950D01*
X215462446Y-145189950D02*
X215462446Y-143914950D01*
X215462446Y-143914950D02*
X214637446Y-143914950D01*
X214637446Y-143914950D02*
X214637446Y-145189950D01*
G36*
X215462446Y-145189950D02*
G01*
X214637446Y-145189950D01*
X214637446Y-143914950D01*
X215462446Y-143914950D01*
X215462446Y-145189950D01*
G37*
X215462446Y-145189950D02*
X214637446Y-145189950D01*
X214637446Y-143914950D01*
X215462446Y-143914950D01*
X215462446Y-145189950D01*
X215907446Y-145189950D02*
X216732446Y-145189950D01*
X216732446Y-145189950D02*
X216732446Y-143914950D01*
X216732446Y-143914950D02*
X215907446Y-143914950D01*
X215907446Y-143914950D02*
X215907446Y-145189950D01*
G36*
X216732446Y-145189950D02*
G01*
X215907446Y-145189950D01*
X215907446Y-143914950D01*
X216732446Y-143914950D01*
X216732446Y-145189950D01*
G37*
X216732446Y-145189950D02*
X215907446Y-145189950D01*
X215907446Y-143914950D01*
X216732446Y-143914950D01*
X216732446Y-145189950D01*
G36*
X215462446Y-151339950D02*
G01*
X214637446Y-151339950D01*
X214637446Y-150014950D01*
X214192446Y-150014950D01*
X214192446Y-151339950D01*
X213367446Y-151339950D01*
X213367446Y-145789950D01*
X215462446Y-145789950D01*
X215462446Y-151339950D01*
G37*
G36*
X218002446Y-151339950D02*
G01*
X217177446Y-151339950D01*
X217177446Y-150014950D01*
X216732446Y-150014950D01*
X216732446Y-151339950D01*
X215907446Y-151339950D01*
X215907446Y-145789950D01*
X218002446Y-145789950D01*
X218002446Y-151339950D01*
G37*
X213367446Y-145189950D02*
X214192446Y-145189950D01*
X214192446Y-145189950D02*
X214192446Y-143914950D01*
X214192446Y-143914950D02*
X213367446Y-143914950D01*
X213367446Y-143914950D02*
X213367446Y-145189950D01*
G36*
X214192446Y-145189950D02*
G01*
X213367446Y-145189950D01*
X213367446Y-143914950D01*
X214192446Y-143914950D01*
X214192446Y-145189950D01*
G37*
X214192446Y-145189950D02*
X213367446Y-145189950D01*
X213367446Y-143914950D01*
X214192446Y-143914950D01*
X214192446Y-145189950D01*
X217177446Y-145189950D02*
X218002446Y-145189950D01*
X218002446Y-145189950D02*
X218002446Y-143914950D01*
X218002446Y-143914950D02*
X217177446Y-143914950D01*
X217177446Y-143914950D02*
X217177446Y-145189950D01*
G36*
X218002446Y-145189950D02*
G01*
X217177446Y-145189950D01*
X217177446Y-143914950D01*
X218002446Y-143914950D01*
X218002446Y-145189950D01*
G37*
X218002446Y-145189950D02*
X217177446Y-145189950D01*
X217177446Y-143914950D01*
X218002446Y-143914950D01*
X218002446Y-145189950D01*
%TO.C,T15*%
X169247500Y-35487500D02*
X168422500Y-35487500D01*
X168422500Y-35487500D02*
X168422500Y-36762500D01*
X168422500Y-36762500D02*
X169247500Y-36762500D01*
X169247500Y-36762500D02*
X169247500Y-35487500D01*
G36*
X169247500Y-36762500D02*
G01*
X168422500Y-36762500D01*
X168422500Y-35487500D01*
X169247500Y-35487500D01*
X169247500Y-36762500D01*
G37*
X169247500Y-36762500D02*
X168422500Y-36762500D01*
X168422500Y-35487500D01*
X169247500Y-35487500D01*
X169247500Y-36762500D01*
X167977500Y-35487500D02*
X167152500Y-35487500D01*
X167152500Y-35487500D02*
X167152500Y-36762500D01*
X167152500Y-36762500D02*
X167977500Y-36762500D01*
X167977500Y-36762500D02*
X167977500Y-35487500D01*
G36*
X167977500Y-36762500D02*
G01*
X167152500Y-36762500D01*
X167152500Y-35487500D01*
X167977500Y-35487500D01*
X167977500Y-36762500D01*
G37*
X167977500Y-36762500D02*
X167152500Y-36762500D01*
X167152500Y-35487500D01*
X167977500Y-35487500D01*
X167977500Y-36762500D01*
X166707500Y-35487500D02*
X165882500Y-35487500D01*
X165882500Y-35487500D02*
X165882500Y-36762500D01*
X165882500Y-36762500D02*
X166707500Y-36762500D01*
X166707500Y-36762500D02*
X166707500Y-35487500D01*
G36*
X166707500Y-36762500D02*
G01*
X165882500Y-36762500D01*
X165882500Y-35487500D01*
X166707500Y-35487500D01*
X166707500Y-36762500D01*
G37*
X166707500Y-36762500D02*
X165882500Y-36762500D01*
X165882500Y-35487500D01*
X166707500Y-35487500D01*
X166707500Y-36762500D01*
X170517500Y-35487500D02*
X169692500Y-35487500D01*
X169692500Y-35487500D02*
X169692500Y-36762500D01*
X169692500Y-36762500D02*
X170517500Y-36762500D01*
X170517500Y-36762500D02*
X170517500Y-35487500D01*
G36*
X170517500Y-36762500D02*
G01*
X169692500Y-36762500D01*
X169692500Y-35487500D01*
X170517500Y-35487500D01*
X170517500Y-36762500D01*
G37*
X170517500Y-36762500D02*
X169692500Y-36762500D01*
X169692500Y-35487500D01*
X170517500Y-35487500D01*
X170517500Y-36762500D01*
G36*
X166707500Y-30662500D02*
G01*
X167152500Y-30662500D01*
X167152500Y-29337500D01*
X167977500Y-29337500D01*
X167977500Y-34887500D01*
X165882500Y-34887500D01*
X165882500Y-29337500D01*
X166707500Y-29337500D01*
X166707500Y-30662500D01*
G37*
G36*
X169247500Y-30662500D02*
G01*
X169692500Y-30662500D01*
X169692500Y-29337500D01*
X170517500Y-29337500D01*
X170517500Y-34887500D01*
X168422500Y-34887500D01*
X168422500Y-29337500D01*
X169247500Y-29337500D01*
X169247500Y-30662500D01*
G37*
%TO.C,T13*%
G36*
X213120000Y-26287000D02*
G01*
X213565000Y-26287000D01*
X213565000Y-24962000D01*
X214390000Y-24962000D01*
X214390000Y-30512000D01*
X212295000Y-30512000D01*
X212295000Y-24962000D01*
X213120000Y-24962000D01*
X213120000Y-26287000D01*
G37*
X216930000Y-31112000D02*
X216105000Y-31112000D01*
X216105000Y-31112000D02*
X216105000Y-32387000D01*
X216105000Y-32387000D02*
X216930000Y-32387000D01*
X216930000Y-32387000D02*
X216930000Y-31112000D01*
G36*
X216930000Y-32387000D02*
G01*
X216105000Y-32387000D01*
X216105000Y-31112000D01*
X216930000Y-31112000D01*
X216930000Y-32387000D01*
G37*
X216930000Y-32387000D02*
X216105000Y-32387000D01*
X216105000Y-31112000D01*
X216930000Y-31112000D01*
X216930000Y-32387000D01*
X215660000Y-31112000D02*
X214835000Y-31112000D01*
X214835000Y-31112000D02*
X214835000Y-32387000D01*
X214835000Y-32387000D02*
X215660000Y-32387000D01*
X215660000Y-32387000D02*
X215660000Y-31112000D01*
G36*
X215660000Y-32387000D02*
G01*
X214835000Y-32387000D01*
X214835000Y-31112000D01*
X215660000Y-31112000D01*
X215660000Y-32387000D01*
G37*
X215660000Y-32387000D02*
X214835000Y-32387000D01*
X214835000Y-31112000D01*
X215660000Y-31112000D01*
X215660000Y-32387000D01*
X214390000Y-31112000D02*
X213565000Y-31112000D01*
X213565000Y-31112000D02*
X213565000Y-32387000D01*
X213565000Y-32387000D02*
X214390000Y-32387000D01*
X214390000Y-32387000D02*
X214390000Y-31112000D01*
G36*
X214390000Y-32387000D02*
G01*
X213565000Y-32387000D01*
X213565000Y-31112000D01*
X214390000Y-31112000D01*
X214390000Y-32387000D01*
G37*
X214390000Y-32387000D02*
X213565000Y-32387000D01*
X213565000Y-31112000D01*
X214390000Y-31112000D01*
X214390000Y-32387000D01*
X213120000Y-31112000D02*
X212295000Y-31112000D01*
X212295000Y-31112000D02*
X212295000Y-32387000D01*
X212295000Y-32387000D02*
X213120000Y-32387000D01*
X213120000Y-32387000D02*
X213120000Y-31112000D01*
G36*
X213120000Y-32387000D02*
G01*
X212295000Y-32387000D01*
X212295000Y-31112000D01*
X213120000Y-31112000D01*
X213120000Y-32387000D01*
G37*
X213120000Y-32387000D02*
X212295000Y-32387000D01*
X212295000Y-31112000D01*
X213120000Y-31112000D01*
X213120000Y-32387000D01*
G36*
X215660000Y-26287000D02*
G01*
X216105000Y-26287000D01*
X216105000Y-24962000D01*
X216930000Y-24962000D01*
X216930000Y-30512000D01*
X214835000Y-30512000D01*
X214835000Y-24962000D01*
X215660000Y-24962000D01*
X215660000Y-26287000D01*
G37*
%TO.C,T18*%
X216210000Y-76575000D02*
X217035000Y-76575000D01*
X217035000Y-76575000D02*
X217035000Y-75300000D01*
X217035000Y-75300000D02*
X216210000Y-75300000D01*
X216210000Y-75300000D02*
X216210000Y-76575000D01*
G36*
X217035000Y-76575000D02*
G01*
X216210000Y-76575000D01*
X216210000Y-75300000D01*
X217035000Y-75300000D01*
X217035000Y-76575000D01*
G37*
X217035000Y-76575000D02*
X216210000Y-76575000D01*
X216210000Y-75300000D01*
X217035000Y-75300000D01*
X217035000Y-76575000D01*
X213670000Y-76575000D02*
X214495000Y-76575000D01*
X214495000Y-76575000D02*
X214495000Y-75300000D01*
X214495000Y-75300000D02*
X213670000Y-75300000D01*
X213670000Y-75300000D02*
X213670000Y-76575000D01*
G36*
X214495000Y-76575000D02*
G01*
X213670000Y-76575000D01*
X213670000Y-75300000D01*
X214495000Y-75300000D01*
X214495000Y-76575000D01*
G37*
X214495000Y-76575000D02*
X213670000Y-76575000D01*
X213670000Y-75300000D01*
X214495000Y-75300000D01*
X214495000Y-76575000D01*
G36*
X218305000Y-82725000D02*
G01*
X217480000Y-82725000D01*
X217480000Y-81400000D01*
X217035000Y-81400000D01*
X217035000Y-82725000D01*
X216210000Y-82725000D01*
X216210000Y-77175000D01*
X218305000Y-77175000D01*
X218305000Y-82725000D01*
G37*
X217480000Y-76575000D02*
X218305000Y-76575000D01*
X218305000Y-76575000D02*
X218305000Y-75300000D01*
X218305000Y-75300000D02*
X217480000Y-75300000D01*
X217480000Y-75300000D02*
X217480000Y-76575000D01*
G36*
X218305000Y-76575000D02*
G01*
X217480000Y-76575000D01*
X217480000Y-75300000D01*
X218305000Y-75300000D01*
X218305000Y-76575000D01*
G37*
X218305000Y-76575000D02*
X217480000Y-76575000D01*
X217480000Y-75300000D01*
X218305000Y-75300000D01*
X218305000Y-76575000D01*
G36*
X215765000Y-82725000D02*
G01*
X214940000Y-82725000D01*
X214940000Y-81400000D01*
X214495000Y-81400000D01*
X214495000Y-82725000D01*
X213670000Y-82725000D01*
X213670000Y-77175000D01*
X215765000Y-77175000D01*
X215765000Y-82725000D01*
G37*
X214940000Y-76575000D02*
X215765000Y-76575000D01*
X215765000Y-76575000D02*
X215765000Y-75300000D01*
X215765000Y-75300000D02*
X214940000Y-75300000D01*
X214940000Y-75300000D02*
X214940000Y-76575000D01*
G36*
X215765000Y-76575000D02*
G01*
X214940000Y-76575000D01*
X214940000Y-75300000D01*
X215765000Y-75300000D01*
X215765000Y-76575000D01*
G37*
X215765000Y-76575000D02*
X214940000Y-76575000D01*
X214940000Y-75300000D01*
X215765000Y-75300000D01*
X215765000Y-76575000D01*
%TO.C,T16*%
X168032500Y-72087500D02*
X168857500Y-72087500D01*
X168857500Y-72087500D02*
X168857500Y-70812500D01*
X168857500Y-70812500D02*
X168032500Y-70812500D01*
X168032500Y-70812500D02*
X168032500Y-72087500D01*
G36*
X168857500Y-72087500D02*
G01*
X168032500Y-72087500D01*
X168032500Y-70812500D01*
X168857500Y-70812500D01*
X168857500Y-72087500D01*
G37*
X168857500Y-72087500D02*
X168032500Y-72087500D01*
X168032500Y-70812500D01*
X168857500Y-70812500D01*
X168857500Y-72087500D01*
X169302500Y-72087500D02*
X170127500Y-72087500D01*
X170127500Y-72087500D02*
X170127500Y-70812500D01*
X170127500Y-70812500D02*
X169302500Y-70812500D01*
X169302500Y-70812500D02*
X169302500Y-72087500D01*
G36*
X170127500Y-72087500D02*
G01*
X169302500Y-72087500D01*
X169302500Y-70812500D01*
X170127500Y-70812500D01*
X170127500Y-72087500D01*
G37*
X170127500Y-72087500D02*
X169302500Y-72087500D01*
X169302500Y-70812500D01*
X170127500Y-70812500D01*
X170127500Y-72087500D01*
X170572500Y-72087500D02*
X171397500Y-72087500D01*
X171397500Y-72087500D02*
X171397500Y-70812500D01*
X171397500Y-70812500D02*
X170572500Y-70812500D01*
X170572500Y-70812500D02*
X170572500Y-72087500D01*
G36*
X171397500Y-72087500D02*
G01*
X170572500Y-72087500D01*
X170572500Y-70812500D01*
X171397500Y-70812500D01*
X171397500Y-72087500D01*
G37*
X171397500Y-72087500D02*
X170572500Y-72087500D01*
X170572500Y-70812500D01*
X171397500Y-70812500D01*
X171397500Y-72087500D01*
G36*
X170127500Y-78237500D02*
G01*
X169302500Y-78237500D01*
X169302500Y-76912500D01*
X168857500Y-76912500D01*
X168857500Y-78237500D01*
X168032500Y-78237500D01*
X168032500Y-72687500D01*
X170127500Y-72687500D01*
X170127500Y-78237500D01*
G37*
G36*
X172667500Y-78237500D02*
G01*
X171842500Y-78237500D01*
X171842500Y-76912500D01*
X171397500Y-76912500D01*
X171397500Y-78237500D01*
X170572500Y-78237500D01*
X170572500Y-72687500D01*
X172667500Y-72687500D01*
X172667500Y-78237500D01*
G37*
X171842500Y-72087500D02*
X172667500Y-72087500D01*
X172667500Y-72087500D02*
X172667500Y-70812500D01*
X172667500Y-70812500D02*
X171842500Y-70812500D01*
X171842500Y-70812500D02*
X171842500Y-72087500D01*
G36*
X172667500Y-72087500D02*
G01*
X171842500Y-72087500D01*
X171842500Y-70812500D01*
X172667500Y-70812500D01*
X172667500Y-72087500D01*
G37*
X172667500Y-72087500D02*
X171842500Y-72087500D01*
X171842500Y-70812500D01*
X172667500Y-70812500D01*
X172667500Y-72087500D01*
%TO.C,T14*%
X193567500Y-33287500D02*
X192742500Y-33287500D01*
X192742500Y-33287500D02*
X192742500Y-34562500D01*
X192742500Y-34562500D02*
X193567500Y-34562500D01*
X193567500Y-34562500D02*
X193567500Y-33287500D01*
G36*
X193567500Y-34562500D02*
G01*
X192742500Y-34562500D01*
X192742500Y-33287500D01*
X193567500Y-33287500D01*
X193567500Y-34562500D01*
G37*
X193567500Y-34562500D02*
X192742500Y-34562500D01*
X192742500Y-33287500D01*
X193567500Y-33287500D01*
X193567500Y-34562500D01*
G36*
X192297500Y-28462500D02*
G01*
X192742500Y-28462500D01*
X192742500Y-27137500D01*
X193567500Y-27137500D01*
X193567500Y-32687500D01*
X191472500Y-32687500D01*
X191472500Y-27137500D01*
X192297500Y-27137500D01*
X192297500Y-28462500D01*
G37*
X191027500Y-33287500D02*
X190202500Y-33287500D01*
X190202500Y-33287500D02*
X190202500Y-34562500D01*
X190202500Y-34562500D02*
X191027500Y-34562500D01*
X191027500Y-34562500D02*
X191027500Y-33287500D01*
G36*
X191027500Y-34562500D02*
G01*
X190202500Y-34562500D01*
X190202500Y-33287500D01*
X191027500Y-33287500D01*
X191027500Y-34562500D01*
G37*
X191027500Y-34562500D02*
X190202500Y-34562500D01*
X190202500Y-33287500D01*
X191027500Y-33287500D01*
X191027500Y-34562500D01*
X189757500Y-33287500D02*
X188932500Y-33287500D01*
X188932500Y-33287500D02*
X188932500Y-34562500D01*
X188932500Y-34562500D02*
X189757500Y-34562500D01*
X189757500Y-34562500D02*
X189757500Y-33287500D01*
G36*
X189757500Y-34562500D02*
G01*
X188932500Y-34562500D01*
X188932500Y-33287500D01*
X189757500Y-33287500D01*
X189757500Y-34562500D01*
G37*
X189757500Y-34562500D02*
X188932500Y-34562500D01*
X188932500Y-33287500D01*
X189757500Y-33287500D01*
X189757500Y-34562500D01*
G36*
X189757500Y-28462500D02*
G01*
X190202500Y-28462500D01*
X190202500Y-27137500D01*
X191027500Y-27137500D01*
X191027500Y-32687500D01*
X188932500Y-32687500D01*
X188932500Y-27137500D01*
X189757500Y-27137500D01*
X189757500Y-28462500D01*
G37*
X192297500Y-33287500D02*
X191472500Y-33287500D01*
X191472500Y-33287500D02*
X191472500Y-34562500D01*
X191472500Y-34562500D02*
X192297500Y-34562500D01*
X192297500Y-34562500D02*
X192297500Y-33287500D01*
G36*
X192297500Y-34562500D02*
G01*
X191472500Y-34562500D01*
X191472500Y-33287500D01*
X192297500Y-33287500D01*
X192297500Y-34562500D01*
G37*
X192297500Y-34562500D02*
X191472500Y-34562500D01*
X191472500Y-33287500D01*
X192297500Y-33287500D01*
X192297500Y-34562500D01*
%TO.C,T20*%
X193264946Y-101902450D02*
X192439946Y-101902450D01*
X192439946Y-101902450D02*
X192439946Y-103177450D01*
X192439946Y-103177450D02*
X193264946Y-103177450D01*
X193264946Y-103177450D02*
X193264946Y-101902450D01*
G36*
X193264946Y-103177450D02*
G01*
X192439946Y-103177450D01*
X192439946Y-101902450D01*
X193264946Y-101902450D01*
X193264946Y-103177450D01*
G37*
X193264946Y-103177450D02*
X192439946Y-103177450D01*
X192439946Y-101902450D01*
X193264946Y-101902450D01*
X193264946Y-103177450D01*
X189454946Y-101902450D02*
X188629946Y-101902450D01*
X188629946Y-101902450D02*
X188629946Y-103177450D01*
X188629946Y-103177450D02*
X189454946Y-103177450D01*
X189454946Y-103177450D02*
X189454946Y-101902450D01*
G36*
X189454946Y-103177450D02*
G01*
X188629946Y-103177450D01*
X188629946Y-101902450D01*
X189454946Y-101902450D01*
X189454946Y-103177450D01*
G37*
X189454946Y-103177450D02*
X188629946Y-103177450D01*
X188629946Y-101902450D01*
X189454946Y-101902450D01*
X189454946Y-103177450D01*
G36*
X189454946Y-97077450D02*
G01*
X189899946Y-97077450D01*
X189899946Y-95752450D01*
X190724946Y-95752450D01*
X190724946Y-101302450D01*
X188629946Y-101302450D01*
X188629946Y-95752450D01*
X189454946Y-95752450D01*
X189454946Y-97077450D01*
G37*
X190724946Y-101902450D02*
X189899946Y-101902450D01*
X189899946Y-101902450D02*
X189899946Y-103177450D01*
X189899946Y-103177450D02*
X190724946Y-103177450D01*
X190724946Y-103177450D02*
X190724946Y-101902450D01*
G36*
X190724946Y-103177450D02*
G01*
X189899946Y-103177450D01*
X189899946Y-101902450D01*
X190724946Y-101902450D01*
X190724946Y-103177450D01*
G37*
X190724946Y-103177450D02*
X189899946Y-103177450D01*
X189899946Y-101902450D01*
X190724946Y-101902450D01*
X190724946Y-103177450D01*
X191994946Y-101902450D02*
X191169946Y-101902450D01*
X191169946Y-101902450D02*
X191169946Y-103177450D01*
X191169946Y-103177450D02*
X191994946Y-103177450D01*
X191994946Y-103177450D02*
X191994946Y-101902450D01*
G36*
X191994946Y-103177450D02*
G01*
X191169946Y-103177450D01*
X191169946Y-101902450D01*
X191994946Y-101902450D01*
X191994946Y-103177450D01*
G37*
X191994946Y-103177450D02*
X191169946Y-103177450D01*
X191169946Y-101902450D01*
X191994946Y-101902450D01*
X191994946Y-103177450D01*
G36*
X191994946Y-97077450D02*
G01*
X192439946Y-97077450D01*
X192439946Y-95752450D01*
X193264946Y-95752450D01*
X193264946Y-101302450D01*
X191169946Y-101302450D01*
X191169946Y-95752450D01*
X191994946Y-95752450D01*
X191994946Y-97077450D01*
G37*
%TD*%
D11*
%TO.C,U3*%
X143027446Y-87533700D03*
X136017446Y-87533700D03*
X143027446Y-87033700D03*
X143027446Y-86533700D03*
X143027446Y-86033700D03*
X143027446Y-85533700D03*
X143027446Y-85033700D03*
X143027446Y-84533700D03*
X143027446Y-84033700D03*
X143027446Y-83533700D03*
X143027446Y-83033700D03*
X143027446Y-82533700D03*
X143027446Y-82033700D03*
X136017446Y-87033700D03*
X136017446Y-86533700D03*
X136017446Y-86033700D03*
X136017446Y-85533700D03*
X136017446Y-85033700D03*
X136017446Y-84533700D03*
X136017446Y-84033700D03*
X136017446Y-83533700D03*
X136017446Y-83033700D03*
X136017446Y-82533700D03*
X136017446Y-82033700D03*
X143027446Y-88033700D03*
X143027446Y-88533700D03*
X143027446Y-89033700D03*
X143027446Y-89533700D03*
X143027446Y-90033700D03*
X143027446Y-90533700D03*
X143027446Y-91033700D03*
X143027446Y-91533700D03*
X143027446Y-92033700D03*
X143027446Y-92533700D03*
X143027446Y-93033700D03*
X143027446Y-93533700D03*
X136017446Y-88033700D03*
X136017446Y-88533700D03*
X136017446Y-89033700D03*
X136017446Y-89533700D03*
X136017446Y-90033700D03*
X136017446Y-90533700D03*
X136017446Y-91033700D03*
X136017446Y-91533700D03*
X136017446Y-92033700D03*
X136017446Y-92533700D03*
X136017446Y-93033700D03*
X136017446Y-93533700D03*
%TD*%
D12*
%TO.C,J1*%
X75372789Y-141783700D03*
D13*
X75372789Y-145983700D03*
X75372789Y-150183700D03*
X69872789Y-141783700D03*
X69872789Y-145983700D03*
X69872789Y-150183700D03*
%TD*%
D12*
%TO.C,J2*%
X75422789Y-126983700D03*
D13*
X75422789Y-131183700D03*
X75422789Y-135383700D03*
X69922789Y-126983700D03*
X69922789Y-131183700D03*
X69922789Y-135383700D03*
%TD*%
D14*
%TO.C,J4*%
X245107885Y-39230000D03*
D15*
X245107885Y-44230000D03*
X245107885Y-49230000D03*
X245107885Y-54230000D03*
X245107885Y-59230000D03*
X245107885Y-64230000D03*
%TD*%
D16*
%TO.C,H3*%
X247152446Y-27333700D03*
%TD*%
D17*
%TO.C,J13*%
X81177446Y-74408700D03*
D18*
X83717446Y-74408700D03*
X81177446Y-76948700D03*
X83717446Y-76948700D03*
X81177446Y-79488700D03*
X83717446Y-79488700D03*
%TD*%
D19*
%TO.C,K1*%
X86509946Y-86071200D03*
D20*
X78889946Y-86071200D03*
X73809946Y-86071200D03*
X68729946Y-86071200D03*
X68729946Y-93691200D03*
X73809946Y-93691200D03*
X78889946Y-93691200D03*
X86509946Y-93691200D03*
%TD*%
D21*
%TO.C,J3*%
X116252446Y-144333700D03*
D22*
X120452446Y-144333700D03*
X124652446Y-144333700D03*
X128852446Y-144333700D03*
X133052446Y-144333700D03*
X137252446Y-144333700D03*
X141452446Y-144333700D03*
X145652446Y-144333700D03*
X116252446Y-149833700D03*
X120452446Y-149833700D03*
X124652446Y-149833700D03*
X128852446Y-149833700D03*
X133052446Y-149833700D03*
X137252446Y-149833700D03*
X141452446Y-149833700D03*
X145652446Y-149833700D03*
%TD*%
D16*
%TO.C,H1*%
X71152446Y-80333700D03*
%TD*%
%TO.C,H2*%
X247152446Y-151333700D03*
%TD*%
D23*
%TO.C,J10*%
X244810331Y-107803700D03*
D24*
X244810331Y-112883700D03*
X244810331Y-117963700D03*
X244810331Y-123043700D03*
X244810331Y-128123700D03*
X244810331Y-133203700D03*
X244810331Y-138283700D03*
X244810331Y-143363700D03*
%TD*%
D25*
%TO.C,J12*%
X94152446Y-59333700D03*
D26*
X92356395Y-61129751D03*
X90560344Y-62925802D03*
%TD*%
D17*
%TO.C,J7*%
X130152446Y-84183700D03*
D18*
X132692446Y-84183700D03*
%TD*%
D17*
%TO.C,J5*%
X158676946Y-94480100D03*
D18*
X156136946Y-94480100D03*
X153596946Y-94480100D03*
%TD*%
D27*
%TO.C,U1*%
X85762446Y-116183700D03*
D28*
X88302446Y-116183700D03*
X90842446Y-116183700D03*
%TD*%
D17*
%TO.C,J6*%
X158682446Y-91033700D03*
D18*
X156142446Y-91033700D03*
X153602446Y-91033700D03*
%TD*%
D12*
%TO.C,J8*%
X76352446Y-100283700D03*
D13*
X70852446Y-100283700D03*
%TD*%
D17*
%TO.C,J9*%
X81302446Y-100308700D03*
D18*
X81302446Y-102848700D03*
%TD*%
D29*
%TO.C,C156*%
X187647446Y-144102450D03*
X185922446Y-144102450D03*
%TD*%
D30*
%TO.C,R36*%
X224250000Y-30037000D03*
X224250000Y-33137000D03*
%TD*%
D31*
%TO.C,R7*%
X118077446Y-137683700D03*
X116252446Y-137683700D03*
%TD*%
D32*
%TO.C,C72*%
X178775000Y-74237500D03*
X178775000Y-72512500D03*
%TD*%
D33*
%TO.C,R115*%
X141512446Y-112758700D03*
X141512446Y-110933700D03*
%TD*%
D34*
%TO.C,F10*%
X238052392Y-118018700D03*
X236002392Y-118018700D03*
%TD*%
D29*
%TO.C,C27*%
X132214946Y-89483700D03*
X130489946Y-89483700D03*
%TD*%
D35*
%TO.C,TP141*%
X189957446Y-147853700D03*
%TD*%
D36*
%TO.C,D19*%
X177763500Y-41812500D03*
D37*
X173781500Y-42732500D03*
X173781500Y-40892500D03*
%TD*%
D31*
%TO.C,R19*%
X143277446Y-137683700D03*
X141452446Y-137683700D03*
%TD*%
D32*
%TO.C,C130*%
X175434946Y-106439950D03*
X175434946Y-104714950D03*
%TD*%
D33*
%TO.C,R94*%
X215187500Y-73975000D03*
X215187500Y-72150000D03*
%TD*%
D38*
%TO.C,C97*%
X221325000Y-69700000D03*
X224450000Y-69700000D03*
%TD*%
D39*
%TO.C,C47*%
X197075000Y-32062500D03*
X198800000Y-32062500D03*
%TD*%
D40*
%TO.C,R173*%
X167509946Y-137977450D03*
X164409946Y-137977450D03*
%TD*%
D29*
%TO.C,C23*%
X143177446Y-140583700D03*
X141452446Y-140583700D03*
%TD*%
D41*
%TO.C,R75*%
X173062500Y-69512500D03*
X173062500Y-66412500D03*
%TD*%
D42*
%TO.C,R137*%
X216847446Y-102451950D03*
X219947446Y-102451950D03*
%TD*%
D38*
%TO.C,C129*%
X173472446Y-116627450D03*
X176597446Y-116627450D03*
%TD*%
D35*
%TO.C,TP87*%
X219472500Y-81551250D03*
%TD*%
%TO.C,TP131*%
X173532446Y-145678700D03*
%TD*%
D38*
%TO.C,C104*%
X219884946Y-109751950D03*
X223009946Y-109751950D03*
%TD*%
D29*
%TO.C,C71*%
X164525000Y-73312500D03*
X162800000Y-73312500D03*
%TD*%
D43*
%TO.C,Q5*%
X191612500Y-43275000D03*
X193512500Y-43275000D03*
X192562500Y-45150000D03*
%TD*%
D44*
%TO.C,C70*%
X164775000Y-57062500D03*
X161650000Y-57062500D03*
%TD*%
D30*
%TO.C,R91*%
X215750000Y-59400000D03*
X215750000Y-62500000D03*
%TD*%
D29*
%TO.C,C21*%
X134777446Y-140583700D03*
X133052446Y-140583700D03*
%TD*%
D44*
%TO.C,C64*%
X162862500Y-47362500D03*
X159737500Y-47362500D03*
%TD*%
D45*
%TO.C,C60*%
X159775000Y-33337500D03*
X159775000Y-35062500D03*
%TD*%
D41*
%TO.C,R175*%
X172759946Y-138127450D03*
X172759946Y-135027450D03*
%TD*%
D46*
%TO.C,R141*%
X208997446Y-100364450D03*
X210822446Y-100364450D03*
%TD*%
D31*
%TO.C,R171*%
X166784946Y-140089950D03*
X164959946Y-140089950D03*
%TD*%
D30*
%TO.C,R252*%
X128202446Y-92483700D03*
X128202446Y-95583700D03*
%TD*%
D44*
%TO.C,C152*%
X187897446Y-132852450D03*
X184772446Y-132852450D03*
%TD*%
%TO.C,C61*%
X162862500Y-42362500D03*
X159737500Y-42362500D03*
%TD*%
D35*
%TO.C,TP2*%
X69902446Y-138833700D03*
%TD*%
D39*
%TO.C,C108*%
X220134946Y-98501950D03*
X221859946Y-98501950D03*
%TD*%
D35*
%TO.C,TP16*%
X248760331Y-117963700D03*
%TD*%
D46*
%TO.C,R159*%
X171159946Y-104714950D03*
X172984946Y-104714950D03*
%TD*%
D47*
%TO.C,U2*%
X97047446Y-108053700D03*
X98317446Y-108053700D03*
X99587446Y-108053700D03*
X100857446Y-108053700D03*
X100857446Y-118713700D03*
X99587446Y-118713700D03*
X98317446Y-118713700D03*
X97047446Y-118713700D03*
%TD*%
D33*
%TO.C,R129*%
X142312446Y-122758700D03*
X142312446Y-120933700D03*
%TD*%
D36*
%TO.C,D15*%
X224176000Y-37437000D03*
D37*
X220194000Y-38357000D03*
X220194000Y-36517000D03*
%TD*%
D38*
%TO.C,C100*%
X221325000Y-64700000D03*
X224450000Y-64700000D03*
%TD*%
D30*
%TO.C,R67*%
X170112500Y-54912500D03*
X170112500Y-58012500D03*
%TD*%
D40*
%TO.C,R197*%
X213147446Y-142464950D03*
X210047446Y-142464950D03*
%TD*%
D33*
%TO.C,R114*%
X143062446Y-108758700D03*
X143062446Y-106933700D03*
%TD*%
D31*
%TO.C,R57*%
X167075000Y-45412500D03*
X165250000Y-45412500D03*
%TD*%
D40*
%TO.C,R73*%
X167812500Y-69362500D03*
X164712500Y-69362500D03*
%TD*%
D46*
%TO.C,R81*%
X194900000Y-64337500D03*
X196725000Y-64337500D03*
%TD*%
D39*
%TO.C,C174*%
X138727446Y-95633700D03*
X140452446Y-95633700D03*
%TD*%
D44*
%TO.C,C137*%
X162559946Y-115977450D03*
X159434946Y-115977450D03*
%TD*%
%TO.C,C110*%
X208972446Y-106601950D03*
X205847446Y-106601950D03*
%TD*%
D33*
%TO.C,R140*%
X213609946Y-104126950D03*
X213609946Y-102301950D03*
%TD*%
D34*
%TO.C,F7*%
X238349946Y-64285000D03*
X236299946Y-64285000D03*
%TD*%
D46*
%TO.C,R22*%
X130439946Y-86483700D03*
X132264946Y-86483700D03*
%TD*%
D31*
%TO.C,R21*%
X147477446Y-137683700D03*
X145652446Y-137683700D03*
%TD*%
D45*
%TO.C,C69*%
X162812500Y-69750000D03*
X162812500Y-71475000D03*
%TD*%
D48*
%TO.C,R146*%
X191747446Y-104502450D03*
X191747446Y-106327450D03*
%TD*%
D38*
%TO.C,C85*%
X199112500Y-67387500D03*
X202237500Y-67387500D03*
%TD*%
D31*
%TO.C,R83*%
X190512500Y-73650000D03*
X188687500Y-73650000D03*
%TD*%
D34*
%TO.C,F6*%
X238349946Y-59285000D03*
X236299946Y-59285000D03*
%TD*%
D41*
%TO.C,R198*%
X224109946Y-143577450D03*
X224109946Y-140477450D03*
%TD*%
D35*
%TO.C,TP17*%
X248760331Y-123043700D03*
%TD*%
D31*
%TO.C,R201*%
X220997446Y-144552450D03*
X219172446Y-144552450D03*
%TD*%
D29*
%TO.C,C144*%
X164222446Y-141927450D03*
X162497446Y-141927450D03*
%TD*%
D42*
%TO.C,R149*%
X193484946Y-104627450D03*
X196584946Y-104627450D03*
%TD*%
D44*
%TO.C,C52*%
X185912500Y-45162500D03*
X182787500Y-45162500D03*
%TD*%
D32*
%TO.C,C118*%
X198484946Y-104239950D03*
X198484946Y-102514950D03*
%TD*%
D33*
%TO.C,R194*%
X214884946Y-142589950D03*
X214884946Y-140764950D03*
%TD*%
D35*
%TO.C,TP65*%
X173835000Y-77063750D03*
%TD*%
D44*
%TO.C,C167*%
X210109946Y-130164950D03*
X206984946Y-130164950D03*
%TD*%
D32*
%TO.C,C169*%
X224109946Y-147339950D03*
X224109946Y-145614950D03*
%TD*%
D38*
%TO.C,C116*%
X196522446Y-111927450D03*
X199647446Y-111927450D03*
%TD*%
D44*
%TO.C,C113*%
X208972446Y-111601950D03*
X205847446Y-111601950D03*
%TD*%
D48*
%TO.C,R5*%
X72702446Y-143571200D03*
X72702446Y-145396200D03*
%TD*%
D35*
%TO.C,TP42*%
X194765000Y-28311250D03*
%TD*%
D46*
%TO.C,R181*%
X194597446Y-132952450D03*
X196422446Y-132952450D03*
%TD*%
D29*
%TO.C,C8*%
X84714946Y-145583700D03*
X82989946Y-145583700D03*
%TD*%
D41*
%TO.C,R174*%
X178472446Y-139089950D03*
X178472446Y-135989950D03*
%TD*%
%TO.C,R98*%
X224412500Y-74962500D03*
X224412500Y-71862500D03*
%TD*%
D40*
%TO.C,R185*%
X190934946Y-140152450D03*
X187834946Y-140152450D03*
%TD*%
D44*
%TO.C,C80*%
X188200000Y-61737500D03*
X185075000Y-61737500D03*
%TD*%
D32*
%TO.C,C50*%
X190575000Y-41125000D03*
X190575000Y-39400000D03*
%TD*%
D49*
%TO.C,Q17*%
X215625000Y-66587500D03*
X213725000Y-66587500D03*
X214675000Y-64712500D03*
%TD*%
D29*
%TO.C,C25*%
X132214946Y-87983700D03*
X130489946Y-87983700D03*
%TD*%
D32*
%TO.C,C45*%
X198787500Y-35625000D03*
X198787500Y-33900000D03*
%TD*%
D38*
%TO.C,C58*%
X173775000Y-50512500D03*
X176900000Y-50512500D03*
%TD*%
D31*
%TO.C,R157*%
X166772446Y-114027450D03*
X164947446Y-114027450D03*
%TD*%
D33*
%TO.C,R182*%
X192672446Y-140277450D03*
X192672446Y-138452450D03*
%TD*%
D35*
%TO.C,TP142*%
X196957446Y-147853700D03*
%TD*%
D38*
%TO.C,C56*%
X173775000Y-48012500D03*
X176900000Y-48012500D03*
%TD*%
D31*
%TO.C,R133*%
X213184946Y-109651950D03*
X211359946Y-109651950D03*
%TD*%
D33*
%TO.C,R107*%
X141802500Y-44193750D03*
X141802500Y-42368750D03*
%TD*%
D50*
%TO.C,C4*%
X90864946Y-119108700D03*
X88789946Y-119108700D03*
%TD*%
D41*
%TO.C,R155*%
X168134946Y-121277450D03*
X168134946Y-118177450D03*
%TD*%
D44*
%TO.C,C136*%
X162559946Y-113477450D03*
X159434946Y-113477450D03*
%TD*%
D35*
%TO.C,TP64*%
X166835000Y-77063750D03*
%TD*%
D38*
%TO.C,C173*%
X221022446Y-133314950D03*
X224147446Y-133314950D03*
%TD*%
D34*
%TO.C,F9*%
X238052392Y-112938700D03*
X236002392Y-112938700D03*
%TD*%
D33*
%TO.C,R70*%
X169550000Y-69487500D03*
X169550000Y-67662500D03*
%TD*%
D49*
%TO.C,Q14*%
X193412500Y-64275000D03*
X191512500Y-64275000D03*
X192462500Y-62400000D03*
%TD*%
D41*
%TO.C,R143*%
X191184946Y-119077450D03*
X191184946Y-115977450D03*
%TD*%
D29*
%TO.C,C24*%
X147377446Y-140583700D03*
X145652446Y-140583700D03*
%TD*%
D41*
%TO.C,R199*%
X218397446Y-142614950D03*
X218397446Y-139514950D03*
%TD*%
D33*
%TO.C,R130*%
X143862446Y-122758700D03*
X143862446Y-120933700D03*
%TD*%
%TO.C,R103*%
X144952500Y-44193750D03*
X144952500Y-42368750D03*
%TD*%
D39*
%TO.C,C132*%
X173722446Y-102877450D03*
X175447446Y-102877450D03*
%TD*%
D35*
%TO.C,TP20*%
X248760331Y-138283700D03*
%TD*%
D44*
%TO.C,C49*%
X185912500Y-40162500D03*
X182787500Y-40162500D03*
%TD*%
D30*
%TO.C,R151*%
X188234946Y-104477450D03*
X188234946Y-107577450D03*
%TD*%
D46*
%TO.C,R6*%
X116252446Y-139133700D03*
X118077446Y-139133700D03*
%TD*%
%TO.C,R153*%
X185634946Y-102539950D03*
X187459946Y-102539950D03*
%TD*%
D33*
%TO.C,R203*%
X78877446Y-89846200D03*
X78877446Y-88021200D03*
%TD*%
D29*
%TO.C,C168*%
X209859946Y-146414950D03*
X208134946Y-146414950D03*
%TD*%
D30*
%TO.C,R48*%
X200887500Y-32212500D03*
X200887500Y-35312500D03*
%TD*%
D46*
%TO.C,R147*%
X194209946Y-102514950D03*
X196034946Y-102514950D03*
%TD*%
D41*
%TO.C,R172*%
X160409946Y-141777450D03*
X160409946Y-138677450D03*
%TD*%
D44*
%TO.C,C82*%
X188200000Y-59237500D03*
X185075000Y-59237500D03*
%TD*%
D48*
%TO.C,R180*%
X195734946Y-129289950D03*
X195734946Y-131114950D03*
%TD*%
D33*
%TO.C,R110*%
X140202500Y-40118750D03*
X140202500Y-38293750D03*
%TD*%
D38*
%TO.C,C148*%
X175384946Y-131327450D03*
X178509946Y-131327450D03*
%TD*%
D35*
%TO.C,TP53*%
X171715000Y-30511250D03*
%TD*%
D31*
%TO.C,R183*%
X190209946Y-142264950D03*
X188384946Y-142264950D03*
%TD*%
D35*
%TO.C,TP160*%
X92352446Y-65683700D03*
%TD*%
D39*
%TO.C,C35*%
X220437500Y-29887000D03*
X222162500Y-29887000D03*
%TD*%
D44*
%TO.C,C164*%
X210109946Y-135164950D03*
X206984946Y-135164950D03*
%TD*%
D31*
%TO.C,R101*%
X221300000Y-75937500D03*
X219475000Y-75937500D03*
%TD*%
D35*
%TO.C,TP13*%
X249057885Y-64230000D03*
%TD*%
D36*
%TO.C,D21*%
X160786500Y-65762500D03*
D37*
X164768500Y-64842500D03*
X164768500Y-66682500D03*
%TD*%
D48*
%TO.C,R76*%
X171050000Y-67687500D03*
X171050000Y-69512500D03*
%TD*%
D33*
%TO.C,R113*%
X143062446Y-112758700D03*
X143062446Y-110933700D03*
%TD*%
D38*
%TO.C,C170*%
X221022446Y-138314950D03*
X224147446Y-138314950D03*
%TD*%
D48*
%TO.C,R28*%
X146165000Y-51418750D03*
X146165000Y-53243750D03*
%TD*%
D34*
%TO.C,F2*%
X238349946Y-39285000D03*
X236299946Y-39285000D03*
%TD*%
D49*
%TO.C,Q35*%
X215322446Y-135202450D03*
X213422446Y-135202450D03*
X214372446Y-133327450D03*
%TD*%
D39*
%TO.C,C120*%
X196772446Y-100677450D03*
X198497446Y-100677450D03*
%TD*%
D48*
%TO.C,R100*%
X216687500Y-72175000D03*
X216687500Y-74000000D03*
%TD*%
D30*
%TO.C,R50*%
X182825000Y-34900000D03*
X182825000Y-38000000D03*
%TD*%
D38*
%TO.C,C55*%
X173775000Y-45512500D03*
X176900000Y-45512500D03*
%TD*%
D41*
%TO.C,R74*%
X178775000Y-70475000D03*
X178775000Y-67375000D03*
%TD*%
D51*
%TO.C,R24*%
X127552446Y-87783700D03*
X127552446Y-85783700D03*
%TD*%
D43*
%TO.C,Q23*%
X191309946Y-111889950D03*
X193209946Y-111889950D03*
X192259946Y-113764950D03*
%TD*%
D46*
%TO.C,R35*%
X217875000Y-31724500D03*
X219700000Y-31724500D03*
%TD*%
D51*
%TO.C,R23*%
X127552446Y-84033700D03*
X127552446Y-82033700D03*
%TD*%
D44*
%TO.C,C37*%
X209275000Y-37987000D03*
X206150000Y-37987000D03*
%TD*%
D35*
%TO.C,TP153*%
X219169946Y-150166200D03*
%TD*%
D38*
%TO.C,C75*%
X175687500Y-62712500D03*
X178812500Y-62712500D03*
%TD*%
D43*
%TO.C,Q2*%
X214975000Y-41099500D03*
X216875000Y-41099500D03*
X215925000Y-42974500D03*
%TD*%
D52*
%TO.C,L2*%
X84662446Y-147468700D03*
X88342446Y-147468700D03*
X88342446Y-149198700D03*
X84662446Y-149198700D03*
%TD*%
D38*
%TO.C,C32*%
X220187500Y-43637000D03*
X223312500Y-43637000D03*
%TD*%
D41*
%TO.C,R184*%
X183834946Y-143952450D03*
X183834946Y-140852450D03*
%TD*%
D30*
%TO.C,R162*%
X159472446Y-105714950D03*
X159472446Y-108814950D03*
%TD*%
D40*
%TO.C,R97*%
X213450000Y-73850000D03*
X210350000Y-73850000D03*
%TD*%
D35*
%TO.C,TP152*%
X212169946Y-150166200D03*
%TD*%
D41*
%TO.C,R187*%
X196184946Y-140302450D03*
X196184946Y-137202450D03*
%TD*%
D38*
%TO.C,C105*%
X219884946Y-112251950D03*
X223009946Y-112251950D03*
%TD*%
D30*
%TO.C,R179*%
X193234946Y-125702450D03*
X193234946Y-128802450D03*
%TD*%
D44*
%TO.C,C79*%
X188200000Y-64237500D03*
X185075000Y-64237500D03*
%TD*%
D33*
%TO.C,R108*%
X141802500Y-40118750D03*
X141802500Y-38293750D03*
%TD*%
D44*
%TO.C,C40*%
X209275000Y-42987000D03*
X206150000Y-42987000D03*
%TD*%
%TO.C,C51*%
X185912500Y-42662500D03*
X182787500Y-42662500D03*
%TD*%
D35*
%TO.C,TP43*%
X187765000Y-28311250D03*
%TD*%
D33*
%TO.C,R164*%
X167197446Y-108502450D03*
X167197446Y-106677450D03*
%TD*%
D46*
%TO.C,R169*%
X171172446Y-130777450D03*
X172997446Y-130777450D03*
%TD*%
D33*
%TO.C,R170*%
X169247446Y-138102450D03*
X169247446Y-136277450D03*
%TD*%
D36*
%TO.C,D25*%
X206424000Y-70250000D03*
D37*
X210406000Y-69330000D03*
X210406000Y-71170000D03*
%TD*%
D44*
%TO.C,C124*%
X185609946Y-111277450D03*
X182484946Y-111277450D03*
%TD*%
D35*
%TO.C,TP119*%
X171412446Y-99126200D03*
%TD*%
D44*
%TO.C,C112*%
X208972446Y-109101950D03*
X205847446Y-109101950D03*
%TD*%
D53*
%TO.C,D1*%
X86477446Y-134333700D03*
X81077446Y-134333700D03*
%TD*%
D48*
%TO.C,R176*%
X170747446Y-136302450D03*
X170747446Y-138127450D03*
%TD*%
D33*
%TO.C,R56*%
X165937500Y-49075000D03*
X165937500Y-47250000D03*
%TD*%
D45*
%TO.C,C93*%
X208450000Y-74237500D03*
X208450000Y-75962500D03*
%TD*%
D33*
%TO.C,R111*%
X144612446Y-112771200D03*
X144612446Y-110946200D03*
%TD*%
D31*
%TO.C,R195*%
X212422446Y-144577450D03*
X210597446Y-144577450D03*
%TD*%
D29*
%TO.C,C9*%
X84664946Y-151033700D03*
X82939946Y-151033700D03*
%TD*%
D44*
%TO.C,C140*%
X164472446Y-130677450D03*
X161347446Y-130677450D03*
%TD*%
D29*
%TO.C,C17*%
X117977446Y-140583700D03*
X116252446Y-140583700D03*
%TD*%
D45*
%TO.C,C154*%
X185934946Y-140539950D03*
X185934946Y-142264950D03*
%TD*%
%TO.C,C159*%
X194147446Y-135039950D03*
X194147446Y-136764950D03*
%TD*%
D32*
%TO.C,C13*%
X94802446Y-108046200D03*
X94802446Y-106321200D03*
%TD*%
D34*
%TO.C,F8*%
X238052392Y-107858700D03*
X236002392Y-107858700D03*
%TD*%
D44*
%TO.C,C39*%
X209275000Y-40487000D03*
X206150000Y-40487000D03*
%TD*%
%TO.C,C94*%
X210412500Y-61550000D03*
X207287500Y-61550000D03*
%TD*%
D30*
%TO.C,R148*%
X200584946Y-100827450D03*
X200584946Y-103927450D03*
%TD*%
D32*
%TO.C,C33*%
X222150000Y-33449500D03*
X222150000Y-31724500D03*
%TD*%
D48*
%TO.C,R80*%
X196037500Y-60675000D03*
X196037500Y-62500000D03*
%TD*%
D46*
%TO.C,R10*%
X124652446Y-139133700D03*
X126477446Y-139133700D03*
%TD*%
D48*
%TO.C,R168*%
X172309946Y-127114950D03*
X172309946Y-128939950D03*
%TD*%
D30*
%TO.C,R138*%
X205884946Y-101339450D03*
X205884946Y-104439450D03*
%TD*%
D46*
%TO.C,R165*%
X162584946Y-104739950D03*
X164409946Y-104739950D03*
%TD*%
D38*
%TO.C,C158*%
X198809946Y-136002450D03*
X201934946Y-136002450D03*
%TD*%
D30*
%TO.C,R191*%
X215447446Y-128014950D03*
X215447446Y-131114950D03*
%TD*%
D38*
%TO.C,C160*%
X198809946Y-133502450D03*
X201934946Y-133502450D03*
%TD*%
D33*
%TO.C,R144*%
X188684946Y-115489950D03*
X188684946Y-113664950D03*
%TD*%
D48*
%TO.C,R68*%
X172612500Y-58500000D03*
X172612500Y-60325000D03*
%TD*%
D36*
%TO.C,D28*%
X223873446Y-106051950D03*
D37*
X219891446Y-106971950D03*
X219891446Y-105131950D03*
%TD*%
D39*
%TO.C,C10*%
X88339946Y-145633700D03*
X90064946Y-145633700D03*
%TD*%
D35*
%TO.C,TP76*%
X197260000Y-79238750D03*
%TD*%
D31*
%TO.C,R77*%
X175662500Y-71450000D03*
X173837500Y-71450000D03*
%TD*%
D38*
%TO.C,C107*%
X219884946Y-114751950D03*
X223009946Y-114751950D03*
%TD*%
D31*
%TO.C,R189*%
X198784946Y-142239950D03*
X196959946Y-142239950D03*
%TD*%
D44*
%TO.C,C155*%
X187897446Y-127852450D03*
X184772446Y-127852450D03*
%TD*%
D35*
%TO.C,TP75*%
X190260000Y-79238750D03*
%TD*%
D46*
%TO.C,R65*%
X162887500Y-36125000D03*
X164712500Y-36125000D03*
%TD*%
D48*
%TO.C,R250*%
X86289946Y-76946200D03*
X86289946Y-78771200D03*
%TD*%
D30*
%TO.C,R39*%
X211900000Y-33687000D03*
X211900000Y-36787000D03*
%TD*%
D46*
%TO.C,R14*%
X133052446Y-139133700D03*
X134877446Y-139133700D03*
%TD*%
D38*
%TO.C,C44*%
X196825000Y-45812500D03*
X199950000Y-45812500D03*
%TD*%
D46*
%TO.C,R53*%
X185937500Y-33925000D03*
X187762500Y-33925000D03*
%TD*%
D36*
%TO.C,D36*%
X183908946Y-136552450D03*
D37*
X187890946Y-135632450D03*
X187890946Y-137472450D03*
%TD*%
D32*
%TO.C,C84*%
X202200000Y-76412500D03*
X202200000Y-74687500D03*
%TD*%
D35*
%TO.C,TP32*%
X211127500Y-25933700D03*
%TD*%
D31*
%TO.C,R71*%
X167087500Y-71475000D03*
X165262500Y-71475000D03*
%TD*%
D32*
%TO.C,C123*%
X190272446Y-109739950D03*
X190272446Y-108014950D03*
%TD*%
D29*
%TO.C,C22*%
X138977446Y-140583700D03*
X137252446Y-140583700D03*
%TD*%
D34*
%TO.C,F12*%
X238052392Y-128178700D03*
X236002392Y-128178700D03*
%TD*%
D29*
%TO.C,C26*%
X132214946Y-90933700D03*
X130489946Y-90933700D03*
%TD*%
D33*
%TO.C,R109*%
X140302446Y-44196200D03*
X140302446Y-42371200D03*
%TD*%
D31*
%TO.C,R15*%
X134877446Y-137683700D03*
X133052446Y-137683700D03*
%TD*%
D41*
%TO.C,R55*%
X168437500Y-52662500D03*
X168437500Y-49562500D03*
%TD*%
D33*
%TO.C,R249*%
X78589946Y-78771200D03*
X78589946Y-76946200D03*
%TD*%
D42*
%TO.C,R61*%
X170737500Y-38212500D03*
X173837500Y-38212500D03*
%TD*%
D31*
%TO.C,R33*%
X213487500Y-41037000D03*
X211662500Y-41037000D03*
%TD*%
D44*
%TO.C,C92*%
X210412500Y-64050000D03*
X207287500Y-64050000D03*
%TD*%
D45*
%TO.C,C109*%
X205884946Y-97576950D03*
X205884946Y-99301950D03*
%TD*%
D48*
%TO.C,R34*%
X215412500Y-33712000D03*
X215412500Y-35537000D03*
%TD*%
D38*
%TO.C,C119*%
X196522446Y-116927450D03*
X199647446Y-116927450D03*
%TD*%
D45*
%TO.C,C12*%
X94802446Y-118721200D03*
X94802446Y-120446200D03*
%TD*%
D48*
%TO.C,R205*%
X82302446Y-84671200D03*
X82302446Y-86496200D03*
%TD*%
D33*
%TO.C,R30*%
X144165000Y-54143750D03*
X144165000Y-52318750D03*
%TD*%
D29*
%TO.C,C19*%
X126377446Y-140583700D03*
X124652446Y-140583700D03*
%TD*%
D32*
%TO.C,C106*%
X221847446Y-102064450D03*
X221847446Y-100339450D03*
%TD*%
D30*
%TO.C,R163*%
X165184946Y-106677450D03*
X165184946Y-109777450D03*
%TD*%
D44*
%TO.C,C165*%
X210109946Y-132664950D03*
X206984946Y-132664950D03*
%TD*%
D45*
%TO.C,C142*%
X162509946Y-138364950D03*
X162509946Y-140089950D03*
%TD*%
D48*
%TO.C,R200*%
X216384946Y-140789950D03*
X216384946Y-142614950D03*
%TD*%
D46*
%TO.C,R69*%
X171475000Y-62162500D03*
X173300000Y-62162500D03*
%TD*%
D48*
%TO.C,R46*%
X192050000Y-35887500D03*
X192050000Y-37712500D03*
%TD*%
D35*
%TO.C,TP10*%
X249057885Y-49230000D03*
%TD*%
D36*
%TO.C,D23*%
X184211500Y-67937500D03*
D37*
X188193500Y-67017500D03*
X188193500Y-68857500D03*
%TD*%
D44*
%TO.C,C153*%
X187897446Y-130352450D03*
X184772446Y-130352450D03*
%TD*%
D35*
%TO.C,TP130*%
X166532446Y-145678700D03*
%TD*%
D46*
%TO.C,R16*%
X137252446Y-139133700D03*
X139077446Y-139133700D03*
%TD*%
D33*
%TO.C,R40*%
X213912500Y-35512000D03*
X213912500Y-33687000D03*
%TD*%
D41*
%TO.C,R196*%
X206047446Y-146264950D03*
X206047446Y-143164950D03*
%TD*%
D31*
%TO.C,R9*%
X122277446Y-137683700D03*
X120452446Y-137683700D03*
%TD*%
D30*
%TO.C,R160*%
X177534946Y-103027450D03*
X177534946Y-106127450D03*
%TD*%
D48*
%TO.C,R88*%
X194475000Y-69862500D03*
X194475000Y-71687500D03*
%TD*%
D46*
%TO.C,R135*%
X217572446Y-100339450D03*
X219397446Y-100339450D03*
%TD*%
D54*
%TO.C,F1*%
X79577446Y-139933700D03*
X86527446Y-139933700D03*
%TD*%
D30*
%TO.C,R51*%
X188537500Y-35862500D03*
X188537500Y-38962500D03*
%TD*%
D36*
%TO.C,D38*%
X206121446Y-138864950D03*
D37*
X210103446Y-137944950D03*
X210103446Y-139784950D03*
%TD*%
D48*
%TO.C,R128*%
X145862446Y-120033700D03*
X145862446Y-121858700D03*
%TD*%
D41*
%TO.C,R99*%
X218700000Y-74000000D03*
X218700000Y-70900000D03*
%TD*%
D32*
%TO.C,C101*%
X147852446Y-88896200D03*
X147852446Y-87171200D03*
%TD*%
D46*
%TO.C,R18*%
X141452446Y-139133700D03*
X143277446Y-139133700D03*
%TD*%
D43*
%TO.C,Q20*%
X214672446Y-109714450D03*
X216572446Y-109714450D03*
X215622446Y-111589450D03*
%TD*%
D30*
%TO.C,R136*%
X223947446Y-98651950D03*
X223947446Y-101751950D03*
%TD*%
D43*
%TO.C,Q8*%
X168562500Y-45475000D03*
X170462500Y-45475000D03*
X169512500Y-47350000D03*
%TD*%
D44*
%TO.C,C122*%
X185609946Y-108777450D03*
X182484946Y-108777450D03*
%TD*%
D36*
%TO.C,D17*%
X200813500Y-39612500D03*
D37*
X196831500Y-40532500D03*
X196831500Y-38692500D03*
%TD*%
D38*
%TO.C,C128*%
X173472446Y-114127450D03*
X176597446Y-114127450D03*
%TD*%
D34*
%TO.C,F4*%
X238349946Y-49285000D03*
X236299946Y-49285000D03*
%TD*%
D45*
%TO.C,C171*%
X216359946Y-137352450D03*
X216359946Y-139077450D03*
%TD*%
D31*
%TO.C,R17*%
X139077446Y-137683700D03*
X137252446Y-137683700D03*
%TD*%
D30*
%TO.C,R60*%
X177837500Y-34412500D03*
X177837500Y-37512500D03*
%TD*%
D35*
%TO.C,TP97*%
X217824946Y-94750700D03*
%TD*%
%TO.C,TP86*%
X212472500Y-81551250D03*
%TD*%
%TO.C,TP108*%
X194462446Y-96926200D03*
%TD*%
D45*
%TO.C,C81*%
X186237500Y-71925000D03*
X186237500Y-73650000D03*
%TD*%
%TO.C,C121*%
X182522446Y-99752450D03*
X182522446Y-101477450D03*
%TD*%
D33*
%TO.C,R105*%
X143352500Y-44193750D03*
X143352500Y-42368750D03*
%TD*%
D38*
%TO.C,C99*%
X221325000Y-67200000D03*
X224450000Y-67200000D03*
%TD*%
D41*
%TO.C,R86*%
X202200000Y-72650000D03*
X202200000Y-69550000D03*
%TD*%
D35*
%TO.C,TP18*%
X248760331Y-128123700D03*
%TD*%
D42*
%TO.C,R37*%
X217150000Y-33837000D03*
X220250000Y-33837000D03*
%TD*%
D46*
%TO.C,R59*%
X171462500Y-36100000D03*
X173287500Y-36100000D03*
%TD*%
D29*
%TO.C,C95*%
X210162500Y-77800000D03*
X208437500Y-77800000D03*
%TD*%
D35*
%TO.C,TP98*%
X210824946Y-94750700D03*
%TD*%
D46*
%TO.C,R41*%
X209300000Y-31749500D03*
X211125000Y-31749500D03*
%TD*%
D48*
%TO.C,R192*%
X217947446Y-131602450D03*
X217947446Y-133427450D03*
%TD*%
D36*
%TO.C,D34*%
X160483946Y-134377450D03*
D37*
X164465946Y-133457450D03*
X164465946Y-135297450D03*
%TD*%
D41*
%TO.C,R87*%
X196487500Y-71687500D03*
X196487500Y-68587500D03*
%TD*%
D32*
%TO.C,C145*%
X178472446Y-142852450D03*
X178472446Y-141127450D03*
%TD*%
D30*
%TO.C,R150*%
X182522446Y-103514950D03*
X182522446Y-106614950D03*
%TD*%
D49*
%TO.C,Q11*%
X169987500Y-62100000D03*
X168087500Y-62100000D03*
X169037500Y-60225000D03*
%TD*%
D45*
%TO.C,C98*%
X216662500Y-68737500D03*
X216662500Y-70462500D03*
%TD*%
D33*
%TO.C,R29*%
X142615000Y-54143750D03*
X142615000Y-52318750D03*
%TD*%
D45*
%TO.C,C74*%
X171025000Y-64250000D03*
X171025000Y-65975000D03*
%TD*%
D41*
%TO.C,R72*%
X160712500Y-73162500D03*
X160712500Y-70062500D03*
%TD*%
%TO.C,R43*%
X191487500Y-50462500D03*
X191487500Y-47362500D03*
%TD*%
D46*
%TO.C,R93*%
X217112500Y-66650000D03*
X218937500Y-66650000D03*
%TD*%
D45*
%TO.C,C147*%
X170722446Y-132864950D03*
X170722446Y-134589950D03*
%TD*%
D38*
%TO.C,C46*%
X196825000Y-48312500D03*
X199950000Y-48312500D03*
%TD*%
D30*
%TO.C,R79*%
X193537500Y-57087500D03*
X193537500Y-60187500D03*
%TD*%
D48*
%TO.C,R134*%
X215109946Y-102326950D03*
X215109946Y-104151950D03*
%TD*%
D35*
%TO.C,TP1*%
X75352446Y-138783700D03*
%TD*%
%TO.C,TP11*%
X249057885Y-54230000D03*
%TD*%
D44*
%TO.C,C91*%
X210412500Y-66550000D03*
X207287500Y-66550000D03*
%TD*%
D35*
%TO.C,TP14*%
X248760331Y-107803700D03*
%TD*%
D30*
%TO.C,R62*%
X159775000Y-37100000D03*
X159775000Y-40200000D03*
%TD*%
D38*
%TO.C,C76*%
X175687500Y-60212500D03*
X178812500Y-60212500D03*
%TD*%
D30*
%TO.C,R139*%
X211597446Y-102301950D03*
X211597446Y-105401950D03*
%TD*%
D33*
%TO.C,R44*%
X188987500Y-46875000D03*
X188987500Y-45050000D03*
%TD*%
D44*
%TO.C,C67*%
X164775000Y-62062500D03*
X161650000Y-62062500D03*
%TD*%
D29*
%TO.C,C18*%
X122177446Y-140583700D03*
X120452446Y-140583700D03*
%TD*%
D43*
%TO.C,Q26*%
X168259946Y-114089950D03*
X170159946Y-114089950D03*
X169209946Y-115964950D03*
%TD*%
D35*
%TO.C,TP109*%
X187462446Y-96926200D03*
%TD*%
D45*
%TO.C,C48*%
X182825000Y-31137500D03*
X182825000Y-32862500D03*
%TD*%
D32*
%TO.C,C62*%
X167525000Y-43325000D03*
X167525000Y-41600000D03*
%TD*%
D48*
%TO.C,R58*%
X169000000Y-38087500D03*
X169000000Y-39912500D03*
%TD*%
D32*
%TO.C,C57*%
X175737500Y-37825000D03*
X175737500Y-36100000D03*
%TD*%
%TO.C,C157*%
X201897446Y-145027450D03*
X201897446Y-143302450D03*
%TD*%
D31*
%TO.C,R11*%
X126477446Y-137683700D03*
X124652446Y-137683700D03*
%TD*%
D48*
%TO.C,R92*%
X218250000Y-62987500D03*
X218250000Y-64812500D03*
%TD*%
D43*
%TO.C,Q38*%
X82302446Y-91846200D03*
X84202446Y-91846200D03*
X83252446Y-93721200D03*
%TD*%
D33*
%TO.C,R118*%
X139962446Y-108758700D03*
X139962446Y-106933700D03*
%TD*%
D38*
%TO.C,C31*%
X220187500Y-41137000D03*
X223312500Y-41137000D03*
%TD*%
%TO.C,C161*%
X198809946Y-131002450D03*
X201934946Y-131002450D03*
%TD*%
D29*
%TO.C,C20*%
X130577446Y-140583700D03*
X128852446Y-140583700D03*
%TD*%
D33*
%TO.C,R116*%
X141512446Y-108758700D03*
X141512446Y-106933700D03*
%TD*%
D40*
%TO.C,R85*%
X191237500Y-71537500D03*
X188137500Y-71537500D03*
%TD*%
D33*
%TO.C,R64*%
X167500000Y-39887500D03*
X167500000Y-38062500D03*
%TD*%
D36*
%TO.C,D30*%
X200510946Y-108227450D03*
D37*
X196528946Y-109147450D03*
X196528946Y-107307450D03*
%TD*%
D38*
%TO.C,C131*%
X173472446Y-119127450D03*
X176597446Y-119127450D03*
%TD*%
D33*
%TO.C,R104*%
X144952500Y-40118750D03*
X144952500Y-38293750D03*
%TD*%
D44*
%TO.C,C125*%
X185609946Y-113777450D03*
X182484946Y-113777450D03*
%TD*%
D41*
%TO.C,R186*%
X201897446Y-141264950D03*
X201897446Y-138164950D03*
%TD*%
D49*
%TO.C,Q32*%
X193109946Y-132889950D03*
X191209946Y-132889950D03*
X192159946Y-131014950D03*
%TD*%
D31*
%TO.C,R13*%
X130677446Y-137683700D03*
X128852446Y-137683700D03*
%TD*%
D35*
%TO.C,TP15*%
X248760331Y-112883700D03*
%TD*%
D34*
%TO.C,F3*%
X238349946Y-44285000D03*
X236299946Y-44285000D03*
%TD*%
D49*
%TO.C,Q29*%
X169684946Y-130714950D03*
X167784946Y-130714950D03*
X168734946Y-128839950D03*
%TD*%
D38*
%TO.C,C43*%
X196825000Y-43312500D03*
X199950000Y-43312500D03*
%TD*%
D33*
%TO.C,R112*%
X144612446Y-108771200D03*
X144612446Y-106946200D03*
%TD*%
D31*
%TO.C,R45*%
X190125000Y-43212500D03*
X188300000Y-43212500D03*
%TD*%
D41*
%TO.C,R84*%
X184137500Y-75337500D03*
X184137500Y-72237500D03*
%TD*%
D38*
%TO.C,C87*%
X199112500Y-64887500D03*
X202237500Y-64887500D03*
%TD*%
D32*
%TO.C,C135*%
X167222446Y-111939950D03*
X167222446Y-110214950D03*
%TD*%
D35*
%TO.C,TP120*%
X164412446Y-99126200D03*
%TD*%
D38*
%TO.C,C117*%
X196522446Y-114427450D03*
X199647446Y-114427450D03*
%TD*%
D42*
%TO.C,R49*%
X193787500Y-36012500D03*
X196887500Y-36012500D03*
%TD*%
D33*
%TO.C,R156*%
X165634946Y-117689950D03*
X165634946Y-115864950D03*
%TD*%
D45*
%TO.C,C166*%
X208147446Y-142852450D03*
X208147446Y-144577450D03*
%TD*%
D35*
%TO.C,TP12*%
X249057885Y-59230000D03*
%TD*%
D38*
%TO.C,C34*%
X220187500Y-46137000D03*
X223312500Y-46137000D03*
%TD*%
D32*
%TO.C,C38*%
X213937500Y-38949500D03*
X213937500Y-37224500D03*
%TD*%
D45*
%TO.C,C36*%
X206187500Y-28962000D03*
X206187500Y-30687000D03*
%TD*%
D46*
%TO.C,R47*%
X194512500Y-33900000D03*
X196337500Y-33900000D03*
%TD*%
D33*
%TO.C,R52*%
X190550000Y-37687500D03*
X190550000Y-35862500D03*
%TD*%
D48*
%TO.C,R158*%
X168697446Y-106702450D03*
X168697446Y-108527450D03*
%TD*%
D42*
%TO.C,R161*%
X170434946Y-106827450D03*
X173534946Y-106827450D03*
%TD*%
D38*
%TO.C,C146*%
X175384946Y-133827450D03*
X178509946Y-133827450D03*
%TD*%
%TO.C,C73*%
X175687500Y-65212500D03*
X178812500Y-65212500D03*
%TD*%
D33*
%TO.C,R32*%
X212350000Y-44699500D03*
X212350000Y-42874500D03*
%TD*%
D31*
%TO.C,R95*%
X212725000Y-75962500D03*
X210900000Y-75962500D03*
%TD*%
D34*
%TO.C,F11*%
X238052392Y-123098700D03*
X236002392Y-123098700D03*
%TD*%
D35*
%TO.C,TP8*%
X249057885Y-39230000D03*
%TD*%
D41*
%TO.C,R31*%
X214850000Y-48287000D03*
X214850000Y-45187000D03*
%TD*%
D44*
%TO.C,C143*%
X164472446Y-125677450D03*
X161347446Y-125677450D03*
%TD*%
D38*
%TO.C,C149*%
X175384946Y-128827450D03*
X178509946Y-128827450D03*
%TD*%
D34*
%TO.C,F13*%
X238052392Y-133258700D03*
X236002392Y-133258700D03*
%TD*%
D30*
%TO.C,R167*%
X169809946Y-123527450D03*
X169809946Y-126627450D03*
%TD*%
D48*
%TO.C,R204*%
X82302446Y-88121200D03*
X82302446Y-89946200D03*
%TD*%
D33*
%TO.C,R117*%
X139962446Y-112758700D03*
X139962446Y-110933700D03*
%TD*%
D41*
%TO.C,R96*%
X206350000Y-77650000D03*
X206350000Y-74550000D03*
%TD*%
D33*
%TO.C,R132*%
X212047446Y-113314450D03*
X212047446Y-111489450D03*
%TD*%
D29*
%TO.C,C83*%
X187950000Y-75487500D03*
X186225000Y-75487500D03*
%TD*%
D35*
%TO.C,TP19*%
X248760331Y-133203700D03*
%TD*%
D32*
%TO.C,C111*%
X213634946Y-107564450D03*
X213634946Y-105839450D03*
%TD*%
D44*
%TO.C,C134*%
X162559946Y-110977450D03*
X159434946Y-110977450D03*
%TD*%
D38*
%TO.C,C88*%
X199112500Y-62387500D03*
X202237500Y-62387500D03*
%TD*%
D31*
%TO.C,R145*%
X189822446Y-111827450D03*
X187997446Y-111827450D03*
%TD*%
%TO.C,R89*%
X199087500Y-73625000D03*
X197262500Y-73625000D03*
%TD*%
D33*
%TO.C,R82*%
X192975000Y-71662500D03*
X192975000Y-69837500D03*
%TD*%
%TO.C,R152*%
X190247446Y-106302450D03*
X190247446Y-104477450D03*
%TD*%
D44*
%TO.C,C63*%
X162862500Y-44862500D03*
X159737500Y-44862500D03*
%TD*%
D39*
%TO.C,C11*%
X88339946Y-151033700D03*
X90064946Y-151033700D03*
%TD*%
D55*
%TO.C,D5*%
X92714946Y-149283700D03*
X92714946Y-147383700D03*
X94589946Y-148333700D03*
%TD*%
D34*
%TO.C,F5*%
X238349946Y-54285000D03*
X236299946Y-54285000D03*
%TD*%
D48*
%TO.C,R188*%
X194172446Y-138477450D03*
X194172446Y-140302450D03*
%TD*%
D35*
%TO.C,TP159*%
X94102446Y-63833700D03*
%TD*%
D30*
%TO.C,R63*%
X165487500Y-38062500D03*
X165487500Y-41162500D03*
%TD*%
D31*
%TO.C,R177*%
X175359946Y-140064950D03*
X173534946Y-140064950D03*
%TD*%
D44*
%TO.C,C68*%
X164775000Y-59562500D03*
X161650000Y-59562500D03*
%TD*%
D30*
%TO.C,R38*%
X206187500Y-32724500D03*
X206187500Y-35824500D03*
%TD*%
D41*
%TO.C,R131*%
X214547446Y-116901950D03*
X214547446Y-113801950D03*
%TD*%
D46*
%TO.C,R193*%
X216809946Y-135264950D03*
X218634946Y-135264950D03*
%TD*%
D38*
%TO.C,C172*%
X221022446Y-135814950D03*
X224147446Y-135814950D03*
%TD*%
D35*
%TO.C,TP9*%
X249057885Y-44230000D03*
%TD*%
D45*
%TO.C,C86*%
X194450000Y-66425000D03*
X194450000Y-68150000D03*
%TD*%
D46*
%TO.C,R20*%
X145652446Y-139133700D03*
X147477446Y-139133700D03*
%TD*%
D32*
%TO.C,C96*%
X224412500Y-78725000D03*
X224412500Y-77000000D03*
%TD*%
D36*
%TO.C,D32*%
X177460946Y-110427450D03*
D37*
X173478946Y-111347450D03*
X173478946Y-109507450D03*
%TD*%
D34*
%TO.C,F14*%
X238052392Y-138338700D03*
X236002392Y-138338700D03*
%TD*%
D45*
%TO.C,C133*%
X159472446Y-101952450D03*
X159472446Y-103677450D03*
%TD*%
D44*
%TO.C,C141*%
X164472446Y-128177450D03*
X161347446Y-128177450D03*
%TD*%
D35*
%TO.C,TP54*%
X164715000Y-30511250D03*
%TD*%
D39*
%TO.C,C59*%
X174025000Y-34262500D03*
X175750000Y-34262500D03*
%TD*%
D35*
%TO.C,TP31*%
X218127500Y-25983700D03*
%TD*%
D46*
%TO.C,R8*%
X120452446Y-139133700D03*
X122277446Y-139133700D03*
%TD*%
D33*
%TO.C,R106*%
X143352500Y-40118750D03*
X143352500Y-38293750D03*
%TD*%
D46*
%TO.C,R12*%
X128852446Y-139133700D03*
X130677446Y-139133700D03*
%TD*%
M02*
